<?xml version="1.0" encoding="UTF-8" standalone="no"?>
<!-- Created with Inkscape (http://www.inkscape.org/) -->

<svg
   xmlns:dc="http://purl.org/dc/elements/1.1/"
   xmlns:cc="http://creativecommons.org/ns#"
   xmlns:rdf="http://www.w3.org/1999/02/22-rdf-syntax-ns#"
   xmlns:svg="http://www.w3.org/2000/svg"
   xmlns="http://www.w3.org/2000/svg"
   xmlns:sodipodi="http://sodipodi.sourceforge.net/DTD/sodipodi-0.dtd"
   xmlns:inkscape="http://www.inkscape.org/namespaces/inkscape"
   width="297mm"
   height="210mm"
   viewBox="0 0 1052.3622 744.09448"
   id="svg2"
   version="1.1"
   inkscape:version="0.91 r13725"
   sodipodi:docname="disegno.svg">
  <defs
     id="defs4">
    <inkscape:perspective
       id="perspective14"
       inkscape:persp3d-origin="267.3215 : 174.17533 : 1"
       inkscape:vp_z="534.64301 : 261.263 : 1"
       inkscape:vp_y="0 : 1000 : 0"
       inkscape:vp_x="0 : 261.263 : 1"
       sodipodi:type="inkscape:persp3d" />
  </defs>
  <sodipodi:namedview
     id="base"
     pagecolor="#ffffff"
     bordercolor="#666666"
     borderopacity="1.0"
     inkscape:pageopacity="0.0"
     inkscape:pageshadow="2"
     inkscape:zoom="0.35"
     inkscape:cx="22.142857"
     inkscape:cy="514.28571"
     inkscape:document-units="px"
     inkscape:current-layer="layer1"
     showgrid="false"
     inkscape:window-width="1366"
     inkscape:window-height="702"
     inkscape:window-x="0"
     inkscape:window-y="27"
     inkscape:window-maximized="1" />
  <metadata
     id="metadata7">
    <rdf:RDF>
      <cc:Work
         rdf:about="">
        <dc:format>image/svg+xml</dc:format>
        <dc:type
           rdf:resource="http://purl.org/dc/dcmitype/StillImage" />
        <dc:title></dc:title>
      </cc:Work>
    </rdf:RDF>
  </metadata>
  <g
     inkscape:label="Livello 1"
     inkscape:groupmode="layer"
     id="layer1"
     transform="translate(0,-308.26772)">
    <g
       transform="translate(20,200)"
       style="font-style:normal;font-weight:normal;font-size:40px;line-height:125%;font-family:sans-serif;letter-spacing:0px;word-spacing:0px;fill:#000000;fill-opacity:1;stroke:none;stroke-width:1px;stroke-linecap:butt;stroke-linejoin:miter;stroke-opacity:1"
       id="flowRoot3336">
      <path
         d="m 20.611328,141.41684 q 1.269531,0.42969 2.460938,1.83594 1.210937,1.40625 2.421875,3.86719 l 4.003906,7.96875 -4.238281,0 -3.730469,-7.48047 q -1.445313,-2.92969 -2.8125,-3.88672 -1.347656,-0.95703 -3.691406,-0.95703 l -4.296875,0 0,12.32422 -3.9453129,0 0,-29.16016 8.9062499,0 q 5,0 7.460938,2.08984 2.460937,2.08985 2.460937,6.3086 0,2.7539 -1.289062,4.57031 -1.269532,1.81641 -3.710938,2.51953 z m -9.882812,-12.24609 0,10.35156 4.960937,0 q 2.851563,0 4.296875,-1.30859 1.464844,-1.32813 1.464844,-3.88672 0,-2.5586 -1.464844,-3.84766 -1.445312,-1.30859 -4.296875,-1.30859 l -4.960937,0 z"
         style=""
         id="path3690" />
      <path
         d="m 41.119141,135.73325 q -2.890625,0 -4.570313,2.26562 -1.679687,2.2461 -1.679687,6.17188 0,3.92578 1.660156,6.1914 1.679687,2.2461 4.589844,2.2461 2.871093,0 4.550781,-2.26563 1.679687,-2.26562 1.679687,-6.17187 0,-3.88672 -1.679687,-6.15235 -1.679688,-2.28515 -4.550781,-2.28515 z m 0,-3.04688 q 4.6875,0 7.363281,3.04688 2.675781,3.04687 2.675781,8.4375 0,5.37109 -2.675781,8.4375 -2.675781,3.04687 -7.363281,3.04687 -4.707032,0 -7.382813,-3.04687 -2.65625,-3.06641 -2.65625,-8.4375 0,-5.39063 2.65625,-8.4375 2.675781,-3.04688 7.382813,-3.04688 z"
         style=""
         id="path3692" />
      <path
         d="m 71.041016,133.85825 0,3.39844 q -1.523438,-0.78125 -3.164063,-1.17188 -1.640625,-0.39062 -3.398437,-0.39062 -2.675782,0 -4.023438,0.82031 -1.328125,0.82031 -1.328125,2.46094 0,1.25 0.957031,1.97265 0.957032,0.70313 3.847657,1.34766 l 1.230468,0.27344 q 3.828125,0.82031 5.429688,2.32421 1.621094,1.48438 1.621094,4.16016 0,3.04688 -2.421875,4.82422 -2.402344,1.77734 -6.621094,1.77734 -1.757813,0 -3.671875,-0.35156 -1.894531,-0.33203 -4.003906,-1.01562 l 0,-3.71094 q 1.992187,1.03515 3.925781,1.5625 1.933594,0.50781 3.828125,0.50781 2.539062,0 3.90625,-0.85937 1.367187,-0.87891 1.367187,-2.46094 0,-1.46485 -0.996093,-2.2461 -0.976563,-0.78125 -4.316407,-1.5039 l -1.25,-0.29297 q -3.339843,-0.70313 -4.824218,-2.14844 -1.484375,-1.46484 -1.484375,-4.0039 0,-3.08594 2.1875,-4.76563 2.1875,-1.67969 6.210937,-1.67969 1.992188,0 3.75,0.29297 1.757813,0.29297 3.242188,0.87891 z"
         style=""
         id="path3694" />
      <path
         d="m 91.900391,133.85825 0,3.39844 q -1.523438,-0.78125 -3.164063,-1.17188 -1.640625,-0.39062 -3.398437,-0.39062 -2.675782,0 -4.023438,0.82031 -1.328125,0.82031 -1.328125,2.46094 0,1.25 0.957031,1.97265 0.957032,0.70313 3.847657,1.34766 l 1.230468,0.27344 q 3.828125,0.82031 5.429688,2.32421 1.621094,1.48438 1.621094,4.16016 0,3.04688 -2.421875,4.82422 -2.402344,1.77734 -6.621094,1.77734 -1.757813,0 -3.671875,-0.35156 -1.894531,-0.33203 -4.003906,-1.01562 l 0,-3.71094 q 1.992187,1.03515 3.925781,1.5625 1.933594,0.50781 3.828125,0.50781 2.539062,0 3.90625,-0.85937 1.367187,-0.87891 1.367187,-2.46094 0,-1.46485 -0.996093,-2.2461 -0.976563,-0.78125 -4.316407,-1.5039 l -1.25,-0.29297 q -3.339843,-0.70313 -4.824218,-2.14844 -1.484375,-1.46484 -1.484375,-4.0039 0,-3.08594 2.1875,-4.76563 2.1875,-1.67969 6.210937,-1.67969 1.992188,0 3.75,0.29297 1.757813,0.29297 3.242188,0.87891 z"
         style=""
         id="path3696" />
      <path
         d="m 107.29102,135.73325 q -2.89063,0 -4.57032,2.26562 -1.67968,2.2461 -1.67968,6.17188 0,3.92578 1.66015,6.1914 1.67969,2.2461 4.58985,2.2461 2.87109,0 4.55078,-2.26563 1.67968,-2.26562 1.67968,-6.17187 0,-3.88672 -1.67968,-6.15235 -1.67969,-2.28515 -4.55078,-2.28515 z m 0,-3.04688 q 4.6875,0 7.36328,3.04688 2.67578,3.04687 2.67578,8.4375 0,5.37109 -2.67578,8.4375 -2.67578,3.04687 -7.36328,3.04687 -4.70704,0 -7.382817,-3.04687 -2.65625,-3.06641 -2.65625,-8.4375 0,-5.39063 2.65625,-8.4375 2.675777,-3.04688 7.382817,-3.04688 z"
         style=""
         id="path3698" />
      <path
         d="m 141.45117,141.88559 0,13.20313 -3.59375,0 0,-13.08594 q 0,-3.10547 -1.21094,-4.64844 -1.21093,-1.54297 -3.63281,-1.54297 -2.91015,0 -4.58984,1.85547 -1.67969,1.85547 -1.67969,5.0586 l 0,12.36328 -3.61328,0 0,-21.875 3.61328,0 0,3.39843 q 1.28906,-1.97265 3.02734,-2.94921 1.75782,-0.97657 4.04297,-0.97657 3.76953,0 5.70313,2.34375 1.93359,2.32422 1.93359,6.85547 z"
         style=""
         id="path3700" />
      <path
         d="m 167.36914,143.25278 0,1.75781 -16.52344,0 q 0.23438,3.71094 2.22657,5.66406 2.01171,1.9336 5.58593,1.9336 2.07032,0 4.00391,-0.50781 1.95312,-0.50782 3.86719,-1.52344 l 0,3.39844 q -1.9336,0.82031 -3.96485,1.25 -2.03125,0.42968 -4.12109,0.42968 -5.23438,0 -8.30078,-3.04687 -3.04688,-3.04688 -3.04688,-8.24219 0,-5.37109 2.89063,-8.51562 2.91015,-3.16407 7.83203,-3.16407 4.41406,0 6.97266,2.85157 2.57812,2.83203 2.57812,7.71484 z m -3.59375,-1.05469 q -0.0391,-2.94922 -1.66016,-4.70703 -1.60156,-1.75781 -4.25781,-1.75781 -3.00781,0 -4.82422,1.69922 -1.79687,1.69922 -2.07031,4.78515 l 12.8125,-0.0195 z"
         style=""
         id="path3702" />
      <path
         d="m 176.82227,127.00278 0,6.21094 7.40234,0 0,2.79297 -7.40234,0 0,11.875 q 0,2.67578 0.72265,3.4375 0.74219,0.76171 2.98828,0.76171 l 3.69141,0 0,3.00782 -3.69141,0 q -4.16015,0 -5.74218,-1.54297 -1.58204,-1.5625 -1.58204,-5.66406 l 0,-11.875 -2.63671,0 0,-2.79297 2.63671,0 0,-6.21094 3.61329,0 z"
         style=""
         id="path3704" />
      <path
         d="m 215.65039,133.85825 0,3.39844 q -1.52344,-0.78125 -3.16406,-1.17188 -1.64063,-0.39062 -3.39844,-0.39062 -2.67578,0 -4.02344,0.82031 -1.32812,0.82031 -1.32812,2.46094 0,1.25 0.95703,1.97265 0.95703,0.70313 3.84766,1.34766 l 1.23046,0.27344 q 3.82813,0.82031 5.42969,2.32421 1.6211,1.48438 1.6211,4.16016 0,3.04688 -2.42188,4.82422 -2.40234,1.77734 -6.62109,1.77734 -1.75782,0 -3.67188,-0.35156 -1.89453,-0.33203 -4.0039,-1.01562 l 0,-3.71094 q 1.99218,1.03515 3.92578,1.5625 1.93359,0.50781 3.82812,0.50781 2.53906,0 3.90625,-0.85937 1.36719,-0.87891 1.36719,-2.46094 0,-1.46485 -0.99609,-2.2461 -0.97657,-0.78125 -4.31641,-1.5039 l -1.25,-0.29297 q -3.33984,-0.70313 -4.82422,-2.14844 -1.48437,-1.46484 -1.48437,-4.0039 0,-3.08594 2.1875,-4.76563 2.1875,-1.67969 6.21093,-1.67969 1.99219,0 3.75,0.29297 1.75782,0.29297 3.24219,0.87891 z"
         style=""
         id="path3706" />
      <path
         d="m 223.07227,150.12778 4.12109,0 0,4.96094 -4.12109,0 0,-4.96094 z"
         style=""
         id="path3708" />
      <path
         d="m 251.04102,134.05356 0,3.35938 q -1.52344,-0.83985 -3.06641,-1.25 -1.52344,-0.42969 -3.08594,-0.42969 -3.49609,0 -5.42969,2.22656 -1.93359,2.20703 -1.93359,6.21094 0,4.0039 1.93359,6.23047 1.9336,2.20703 5.42969,2.20703 1.5625,0 3.08594,-0.41016 1.54297,-0.42969 3.06641,-1.26953 l 0,3.32031 q -1.50391,0.70313 -3.125,1.05469 -1.60157,0.35156 -3.41797,0.35156 -4.94141,0 -7.85157,-3.10547 -2.91015,-3.10546 -2.91015,-8.3789 0,-5.35156 2.92969,-8.41797 2.94921,-3.06641 8.0664,-3.06641 1.66016,0 3.24219,0.35157 1.58203,0.33203 3.06641,1.01562 z"
         style=""
         id="path3710" />
      <path
         d="m 257.83789,150.12778 4.12109,0 0,4.96094 -4.12109,0 0,-4.96094 z"
         style=""
         id="path3712" />
      <path
         d="m 280.00586,144.09262 q -4.35547,0 -6.03516,0.9961 -1.67968,0.99609 -1.67968,3.39843 0,1.91407 1.25,3.04688 1.26953,1.11328 3.4375,1.11328 2.98828,0 4.78515,-2.10937 1.81641,-2.12891 1.81641,-5.64454 l 0,-0.80078 -3.57422,0 z m 7.16797,-1.48437 0,12.48047 -3.59375,0 0,-3.32032 q -1.23047,1.99219 -3.06641,2.94922 -1.83594,0.9375 -4.49219,0.9375 -3.35937,0 -5.35156,-1.875 -1.97265,-1.89453 -1.97265,-5.05859 0,-3.69141 2.46093,-5.56641 2.48047,-1.875 7.38282,-1.875 l 5.03906,0 0,-0.35156 q 0,-2.48047 -1.64063,-3.82812 -1.62109,-1.36719 -4.57031,-1.36719 -1.875,0 -3.65234,0.44922 -1.77735,0.44922 -3.41797,1.34765 l 0,-3.32031 q 1.97265,-0.76172 3.82812,-1.13281 1.85547,-0.39063 3.61328,-0.39063 4.7461,0 7.08985,2.46094 2.34375,2.46094 2.34375,7.46094 z"
         style=""
         id="path3714" />
      <path
         d="m 320.00586,136.57309 q -0.60547,-0.35156 -1.32813,-0.50781 -0.70312,-0.17578 -1.5625,-0.17578 -3.04687,0 -4.6875,1.99219 -1.62109,1.97265 -1.62109,5.68359 l 0,11.52344 -3.61328,0 0,-21.875 3.61328,0 0,3.39843 q 1.13281,-1.99218 2.94922,-2.94921 1.81641,-0.97657 4.41406,-0.97657 0.3711,0 0.82031,0.0586 0.44922,0.0391 0.9961,0.13672 l 0.0195,3.6914 z"
         style=""
         id="path3716" />
      <path
         d="m 320.65039,150.12778 4.12109,0 0,4.96094 -4.12109,0 0,-4.96094 z"
         style=""
         id="path3718" />
      <path
         d="m 332.87695,124.69809 3.59375,0 0,30.39063 -3.59375,0 0,-30.39063 z"
         style=""
         id="path3720" />
      <path
         d="m 24.810547,191.88559 0,13.20313 -3.59375,0 0,-13.08594 q 0,-3.10547 -1.210938,-4.64844 -1.210937,-1.54297 -3.632812,-1.54297 -2.910156,0 -4.589844,1.85547 -1.679687,1.85547 -1.679687,5.0586 l 0,12.36328 -3.6132816,0 0,-30.39063 3.6132816,0 0,11.91406 q 1.289062,-1.97265 3.027343,-2.94921 1.757813,-0.97657 4.042969,-0.97657 3.769531,0 5.703125,2.34375 1.933594,2.32422 1.933594,6.85547 z"
         style=""
         id="path3722" />
      <path
         d="m 35.572266,177.00278 0,6.21094 7.402343,0 0,2.79297 -7.402343,0 0,11.875 q 0,2.67578 0.722656,3.4375 0.742187,0.76171 2.988281,0.76171 l 3.691406,0 0,3.00782 -3.691406,0 q -4.160156,0 -5.742187,-1.54297 -1.582032,-1.5625 -1.582032,-5.66406 l 0,-11.875 -2.636718,0 0,-2.79297 2.636718,0 0,-6.21094 3.613282,0 z"
         style=""
         id="path3724" />
      <path
         d="m 51.275391,177.00278 0,6.21094 7.402343,0 0,2.79297 -7.402343,0 0,11.875 q 0,2.67578 0.722656,3.4375 0.742187,0.76171 2.988281,0.76171 l 3.691406,0 0,3.00782 -3.691406,0 q -4.160156,0 -5.742187,-1.54297 -1.582032,-1.5625 -1.582032,-5.66406 l 0,-11.875 -2.636718,0 0,-2.79297 2.636718,0 0,-6.21094 3.613282,0 z"
         style=""
         id="path3726" />
      <path
         d="m 66.900391,201.80747 0,11.60156 -3.613282,0 0,-30.19531 3.613282,0 0,3.32031 q 1.132812,-1.95313 2.851562,-2.89063 1.738281,-0.95703 4.140625,-0.95703 3.984375,0 6.464844,3.16407 2.5,3.16406 2.5,8.32031 0,5.15625 -2.5,8.32031 -2.480469,3.16406 -6.464844,3.16406 -2.402344,0 -4.140625,-0.9375 -1.71875,-0.95703 -2.851562,-2.91015 z m 12.226562,-7.63672 q 0,-3.96485 -1.640625,-6.21094 -1.621094,-2.26562 -4.472656,-2.26562 -2.851563,0 -4.492188,2.26562 -1.621093,2.24609 -1.621093,6.21094 0,3.96484 1.621093,6.23047 1.640625,2.24609 4.492188,2.24609 2.851562,0 4.472656,-2.24609 1.640625,-2.26563 1.640625,-6.23047 z"
         style=""
         id="path3728" />
      <path
         d="m 89.732422,200.12778 4.121094,0 0,4.96094 -4.121094,0 0,-4.96094 z m 0,-15.72266 4.121094,0 0,4.96094 -4.121094,0 0,-4.96094 z"
         style=""
         id="path3730" />
      <path
         d="m 108.7168,175.92856 3.32031,0 -10.15625,32.87109 -3.320313,0 10.156253,-32.87109 z"
         style=""
         id="path3732" />
      <path
         d="m 122.23242,175.92856 3.32031,0 -10.15625,32.87109 -3.32031,0 10.15625,-32.87109 z"
         style=""
         id="path3734" />
      <path
         d="m 127.27148,183.21372 3.59375,0 4.49219,17.07031 4.47266,-17.07031 4.23828,0 4.49219,17.07031 4.47265,-17.07031 3.59375,0 -5.72265,21.875 -4.23828,0 -4.70704,-17.92969 -4.72656,17.92969 -4.23828,0 -5.72266,-21.875 z"
         style=""
         id="path3736" />
      <path
         d="m 160.00586,183.21372 3.59375,0 4.49219,17.07031 4.47265,-17.07031 4.23828,0 4.49219,17.07031 4.47266,-17.07031 3.59375,0 -5.72266,21.875 -4.23828,0 -4.70703,-17.92969 -4.72656,17.92969 -4.23828,0 -5.72266,-21.875 z"
         style=""
         id="path3738" />
      <path
         d="m 192.74023,183.21372 3.59375,0 4.49219,17.07031 4.47266,-17.07031 4.23828,0 4.49219,17.07031 4.47265,-17.07031 3.59375,0 -5.72265,21.875 -4.23828,0 -4.70704,-17.92969 -4.72656,17.92969 -4.23828,0 -5.72266,-21.875 z"
         style=""
         id="path3740" />
      <path
         d="m 224.40039,200.12778 4.12109,0 0,4.96094 -4.12109,0 0,-4.96094 z"
         style=""
         id="path3742" />
      <path
         d="m 249.30273,186.57309 q -0.60546,-0.35156 -1.32812,-0.50781 -0.70313,-0.17578 -1.5625,-0.17578 -3.04688,0 -4.6875,1.99219 -1.62109,1.97265 -1.62109,5.68359 l 0,11.52344 -3.61329,0 0,-21.875 3.61329,0 0,3.39843 q 1.13281,-1.99218 2.94921,-2.94921 1.81641,-0.97657 4.41407,-0.97657 0.37109,0 0.82031,0.0586 0.44922,0.0391 0.99609,0.13672 l 0.0195,3.6914 z"
         style=""
         id="path3744" />
      <path
         d="m 260.72852,185.73325 q -2.89063,0 -4.57032,2.26562 -1.67968,2.2461 -1.67968,6.17188 0,3.92578 1.66015,6.1914 1.67969,2.2461 4.58985,2.2461 2.87109,0 4.55078,-2.26563 1.67968,-2.26562 1.67968,-6.17187 0,-3.88672 -1.67968,-6.15235 -1.67969,-2.28515 -4.55078,-2.28515 z m 0,-3.04688 q 4.6875,0 7.36328,3.04688 2.67578,3.04687 2.67578,8.4375 0,5.37109 -2.67578,8.4375 -2.67578,3.04687 -7.36328,3.04687 -4.70704,0 -7.38282,-3.04687 -2.65625,-3.06641 -2.65625,-8.4375 0,-5.39063 2.65625,-8.4375 2.67578,-3.04688 7.38282,-3.04688 z"
         style=""
         id="path3746" />
      <path
         d="m 290.65039,183.85825 0,3.39844 q -1.52344,-0.78125 -3.16406,-1.17188 -1.64063,-0.39062 -3.39844,-0.39062 -2.67578,0 -4.02344,0.82031 -1.32812,0.82031 -1.32812,2.46094 0,1.25 0.95703,1.97265 0.95703,0.70313 3.84766,1.34766 l 1.23046,0.27344 q 3.82813,0.82031 5.42969,2.32421 1.6211,1.48438 1.6211,4.16016 0,3.04688 -2.42188,4.82422 -2.40234,1.77734 -6.62109,1.77734 -1.75782,0 -3.67188,-0.35156 -1.89453,-0.33203 -4.0039,-1.01562 l 0,-3.71094 q 1.99218,1.03515 3.92578,1.5625 1.93359,0.50781 3.82812,0.50781 2.53906,0 3.90625,-0.85937 1.36719,-0.87891 1.36719,-2.46094 0,-1.46485 -0.99609,-2.2461 -0.97657,-0.78125 -4.31641,-1.5039 l -1.25,-0.29297 q -3.33984,-0.70313 -4.82422,-2.14844 -1.48437,-1.46484 -1.48437,-4.0039 0,-3.08594 2.1875,-4.76563 2.1875,-1.67969 6.21093,-1.67969 1.99219,0 3.75,0.29297 1.75782,0.29297 3.24219,0.87891 z"
         style=""
         id="path3748" />
      <path
         d="m 311.50977,183.85825 0,3.39844 q -1.52344,-0.78125 -3.16407,-1.17188 -1.64062,-0.39062 -3.39843,-0.39062 -2.67579,0 -4.02344,0.82031 -1.32813,0.82031 -1.32813,2.46094 0,1.25 0.95703,1.97265 0.95704,0.70313 3.84766,1.34766 l 1.23047,0.27344 q 3.82812,0.82031 5.42969,2.32421 1.62109,1.48438 1.62109,4.16016 0,3.04688 -2.42187,4.82422 -2.40235,1.77734 -6.6211,1.77734 -1.75781,0 -3.67187,-0.35156 -1.89453,-0.33203 -4.00391,-1.01562 l 0,-3.71094 q 1.99219,1.03515 3.92578,1.5625 1.9336,0.50781 3.82813,0.50781 2.53906,0 3.90625,-0.85937 1.36718,-0.87891 1.36718,-2.46094 0,-1.46485 -0.99609,-2.2461 -0.97656,-0.78125 -4.31641,-1.5039 l -1.25,-0.29297 q -3.33984,-0.70313 -4.82421,-2.14844 -1.48438,-1.46484 -1.48438,-4.0039 0,-3.08594 2.1875,-4.76563 2.1875,-1.67969 6.21094,-1.67969 1.99219,0 3.75,0.29297 1.75781,0.29297 3.24219,0.87891 z"
         style=""
         id="path3750" />
      <path
         d="m 326.90039,185.73325 q -2.89062,0 -4.57031,2.26562 -1.67969,2.2461 -1.67969,6.17188 0,3.92578 1.66016,6.1914 1.67968,2.2461 4.58984,2.2461 2.87109,0 4.55078,-2.26563 1.67969,-2.26562 1.67969,-6.17187 0,-3.88672 -1.67969,-6.15235 -1.67969,-2.28515 -4.55078,-2.28515 z m 0,-3.04688 q 4.6875,0 7.36328,3.04688 2.67578,3.04687 2.67578,8.4375 0,5.37109 -2.67578,8.4375 -2.67578,3.04687 -7.36328,3.04687 -4.70703,0 -7.38281,-3.04687 -2.65625,-3.06641 -2.65625,-8.4375 0,-5.39063 2.65625,-8.4375 2.67578,-3.04688 7.38281,-3.04688 z"
         style=""
         id="path3752" />
      <path
         d="m 361.06055,191.88559 0,13.20313 -3.59375,0 0,-13.08594 q 0,-3.10547 -1.21094,-4.64844 -1.21094,-1.54297 -3.63281,-1.54297 -2.91016,0 -4.58985,1.85547 -1.67968,1.85547 -1.67968,5.0586 l 0,12.36328 -3.61329,0 0,-21.875 3.61329,0 0,3.39843 q 1.28906,-1.97265 3.02734,-2.94921 1.75781,-0.97657 4.04297,-0.97657 3.76953,0 5.70312,2.34375 1.9336,2.32422 1.9336,6.85547 z"
         style=""
         id="path3754" />
      <path
         d="m 386.97852,193.25278 0,1.75781 -16.52344,0 q 0.23437,3.71094 2.22656,5.66406 2.01172,1.9336 5.58594,1.9336 2.07031,0 4.0039,-0.50781 1.95313,-0.50782 3.86719,-1.52344 l 0,3.39844 q -1.93359,0.82031 -3.96484,1.25 -2.03125,0.42968 -4.1211,0.42968 -5.23437,0 -8.30078,-3.04687 -3.04687,-3.04688 -3.04687,-8.24219 0,-5.37109 2.89062,-8.51562 2.91016,-3.16407 7.83203,-3.16407 4.41407,0 6.97266,2.85157 2.57813,2.83203 2.57813,7.71484 z m -3.59375,-1.05469 q -0.0391,-2.94922 -1.66016,-4.70703 -1.60156,-1.75781 -4.25781,-1.75781 -3.00782,0 -4.82422,1.69922 -1.79688,1.69922 -2.07031,4.78515 l 12.8125,-0.0195 z"
         style=""
         id="path3756" />
      <path
         d="m 396.43164,177.00278 0,6.21094 7.40234,0 0,2.79297 -7.40234,0 0,11.875 q 0,2.67578 0.72266,3.4375 0.74218,0.76171 2.98828,0.76171 l 3.6914,0 0,3.00782 -3.6914,0 q -4.16016,0 -5.74219,-1.54297 -1.58203,-1.5625 -1.58203,-5.66406 l 0,-11.875 -2.63672,0 0,-2.79297 2.63672,0 0,-6.21094 3.61328,0 z"
         style=""
         id="path3758" />
      <path
         d="m 409.08789,200.12778 4.12109,0 0,4.96094 -4.12109,0 0,-4.96094 z"
         style=""
         id="path3760" />
      <path
         d="m 437.05664,184.05356 0,3.35938 q -1.52344,-0.83985 -3.06641,-1.25 -1.52343,-0.42969 -3.08593,-0.42969 -3.4961,0 -5.42969,2.22656 -1.93359,2.20703 -1.93359,6.21094 0,4.0039 1.93359,6.23047 1.93359,2.20703 5.42969,2.20703 1.5625,0 3.08593,-0.41016 1.54297,-0.42969 3.06641,-1.26953 l 0,3.32031 q -1.50391,0.70313 -3.125,1.05469 -1.60156,0.35156 -3.41797,0.35156 -4.9414,0 -7.85156,-3.10547 -2.91016,-3.10546 -2.91016,-8.3789 0,-5.35156 2.92969,-8.41797 2.94922,-3.06641 8.06641,-3.06641 1.66015,0 3.24218,0.35157 1.58204,0.33203 3.06641,1.01562 z"
         style=""
         id="path3762" />
      <path
         d="m 451.82227,185.73325 q -2.89063,0 -4.57032,2.26562 -1.67968,2.2461 -1.67968,6.17188 0,3.92578 1.66015,6.1914 1.67969,2.2461 4.58985,2.2461 2.87109,0 4.55078,-2.26563 1.67968,-2.26562 1.67968,-6.17187 0,-3.88672 -1.67968,-6.15235 -1.67969,-2.28515 -4.55078,-2.28515 z m 0,-3.04688 q 4.6875,0 7.36328,3.04688 2.67578,3.04687 2.67578,8.4375 0,5.37109 -2.67578,8.4375 -2.67578,3.04687 -7.36328,3.04687 -4.70704,0 -7.38282,-3.04687 -2.65625,-3.06641 -2.65625,-8.4375 0,-5.39063 2.65625,-8.4375 2.67578,-3.04688 7.38282,-3.04688 z"
         style=""
         id="path3764" />
      <path
         d="m 484.83008,187.41294 q 1.34765,-2.42188 3.22265,-3.57422 1.875,-1.15235 4.41407,-1.15235 3.41797,0 5.27343,2.40235 1.85547,2.38281 1.85547,6.79687 l 0,13.20313 -3.61328,0 0,-13.08594 q 0,-3.14453 -1.11328,-4.66797 -1.11328,-1.52344 -3.39844,-1.52344 -2.79297,0 -4.41406,1.85547 -1.62109,1.85547 -1.62109,5.0586 l 0,12.36328 -3.61328,0 0,-13.08594 q 0,-3.16406 -1.11329,-4.66797 -1.11328,-1.52344 -3.4375,-1.52344 -2.7539,0 -4.375,1.875 -1.62109,1.85547 -1.62109,5.03907 l 0,12.36328 -3.61328,0 0,-21.875 3.61328,0 0,3.39843 q 1.23047,-2.01171 2.94922,-2.96875 1.71875,-0.95703 4.08203,-0.95703 2.38281,0 4.04297,1.21094 1.67969,1.21094 2.48047,3.51563 z"
         style=""
         id="path3766" />
      <path
         d="m 15.103516,235.73325 q -2.890625,0 -4.570313,2.26562 -1.6796874,2.2461 -1.6796874,6.17188 0,3.92578 1.6601564,6.1914 1.679687,2.2461 4.589844,2.2461 2.871093,0 4.550781,-2.26563 1.679687,-2.26562 1.679687,-6.17187 0,-3.88672 -1.679687,-6.15235 -1.679688,-2.28515 -4.550781,-2.28515 z m 0,-3.04688 q 4.6875,0 7.363281,3.04688 2.675781,3.04687 2.675781,8.4375 0,5.37109 -2.675781,8.4375 -2.675781,3.04687 -7.363281,3.04687 -4.707032,0 -7.3828129,-3.04687 -2.65625,-3.06641 -2.65625,-8.4375 0,-5.39063 2.65625,-8.4375 2.6757809,-3.04688 7.3828129,-3.04688 z"
         style=""
         id="path3768" />
      <path
         d="m 43.755859,236.57309 q -0.605468,-0.35156 -1.328125,-0.50781 -0.703125,-0.17578 -1.5625,-0.17578 -3.046875,0 -4.6875,1.99219 -1.621093,1.97265 -1.621093,5.68359 l 0,11.52344 -3.613282,0 0,-21.875 3.613282,0 0,3.39843 q 1.132812,-1.99218 2.949218,-2.94921 1.816407,-0.97657 4.414063,-0.97657 0.371094,0 0.820312,0.0586 0.449219,0.0391 0.996094,0.13672 l 0.01953,3.6914 z"
         style=""
         id="path3770" />
      <path
         d="m 47.564453,233.21372 3.59375,0 0,21.875 -3.59375,0 0,-21.875 z m 0,-8.51563 3.59375,0 0,4.55078 -3.59375,0 0,-4.55078 z"
         style=""
         id="path3772" />
      <path
         d="m 73.052734,243.89731 q 0,-3.90625 -1.621093,-6.05469 -1.601563,-2.14843 -4.511719,-2.14843 -2.890625,0 -4.511719,2.14843 -1.601562,2.14844 -1.601562,6.05469 0,3.88672 1.601562,6.03516 1.621094,2.14843 4.511719,2.14843 2.910156,0 4.511719,-2.14843 1.621093,-2.14844 1.621093,-6.03516 z m 3.59375,8.47656 q 0,5.58594 -2.480468,8.30078 -2.480469,2.73438 -7.597657,2.73438 -1.894531,0 -3.574218,-0.29297 -1.679688,-0.27344 -3.261719,-0.85937 l 0,-3.4961 q 1.582031,0.85938 3.125,1.26953 1.542969,0.41016 3.144531,0.41016 3.535156,0 5.292969,-1.85547 1.757812,-1.83594 1.757812,-5.56641 l 0,-1.77734 q -1.113281,1.93359 -2.851562,2.89063 -1.738281,0.95703 -4.160156,0.95703 -4.023438,0 -6.484375,-3.06641 -2.460938,-3.06641 -2.460938,-8.125 0,-5.07812 2.460938,-8.14453 2.460937,-3.06641 6.484375,-3.06641 2.421875,0 4.160156,0.95703 1.738281,0.95704 2.851562,2.89063 l 0,-3.32031 3.59375,0 0,19.16015 z"
         style=""
         id="path3774" />
      <path
         d="m 93.990234,244.09262 q -4.355468,0 -6.035156,0.9961 -1.679687,0.99609 -1.679687,3.39843 0,1.91407 1.25,3.04688 1.269531,1.11328 3.4375,1.11328 2.988281,0 4.785156,-2.10937 1.816406,-2.12891 1.816406,-5.64454 l 0,-0.80078 -3.574219,0 z m 7.167966,-1.48437 0,12.48047 -3.593747,0 0,-3.32032 q -1.230469,1.99219 -3.066406,2.94922 -1.835938,0.9375 -4.492188,0.9375 -3.359375,0 -5.351562,-1.875 -1.972656,-1.89453 -1.972656,-5.05859 0,-3.69141 2.460937,-5.56641 2.480469,-1.875 7.382813,-1.875 l 5.039062,0 0,-0.35156 q 0,-2.48047 -1.640625,-3.82812 -1.621094,-1.36719 -4.570312,-1.36719 -1.875,0 -3.652344,0.44922 -1.777344,0.44922 -3.417969,1.34765 l 0,-3.32031 q 1.972656,-0.76172 3.828125,-1.13281 1.855469,-0.39063 3.613281,-0.39063 4.746094,0 7.089844,2.46094 2.343747,2.46094 2.343747,7.46094 z"
         style=""
         id="path3776" />
      <path
         d="m 125.61133,237.41294 q 1.34765,-2.42188 3.22265,-3.57422 1.875,-1.15235 4.41407,-1.15235 3.41797,0 5.27343,2.40235 1.85547,2.38281 1.85547,6.79687 l 0,13.20313 -3.61328,0 0,-13.08594 q 0,-3.14453 -1.11328,-4.66797 -1.11328,-1.52344 -3.39844,-1.52344 -2.79297,0 -4.41406,1.85547 -1.62109,1.85547 -1.62109,5.0586 l 0,12.36328 -3.61328,0 0,-13.08594 q 0,-3.16406 -1.11329,-4.66797 -1.11328,-1.52344 -3.4375,-1.52344 -2.7539,0 -4.375,1.875 -1.62109,1.85547 -1.62109,5.03907 l 0,12.36328 -3.61328,0 0,-21.875 3.61328,0 0,3.39843 q 1.23047,-2.01171 2.94922,-2.96875 1.71875,-0.95703 4.08203,-0.95703 2.38281,0 4.04297,1.21094 1.67969,1.21094 2.48047,3.51563 z"
         style=""
         id="path3778" />
      <path
         d="m 147.56445,233.21372 3.59375,0 0,21.875 -3.59375,0 0,-21.875 z m 0,-8.51563 3.59375,0 0,4.55078 -3.59375,0 0,-4.55078 z"
         style=""
         id="path3780" />
      <path
         d="m 169.77148,244.60044 q 0,2.79296 1.38672,4.39453 1.38672,1.58203 3.8086,1.58203 2.40234,0 3.76953,-1.60156 1.38672,-1.60157 1.38672,-4.375 0,-2.73438 -1.40625,-4.33594 -1.40625,-1.6211 -3.78907,-1.6211 -2.36328,0 -3.76953,1.60157 -1.38672,1.60156 -1.38672,4.35547 z m 10.64454,5.83984 q -1.17188,1.50391 -2.69532,2.22656 -1.5039,0.70313 -3.51562,0.70313 -3.35938,0 -5.46875,-2.42188 -2.08985,-2.4414 -2.08985,-6.34765 0,-3.90625 2.10938,-6.34766 2.10937,-2.44141 5.44922,-2.44141 2.01172,0 3.53515,0.74219 1.52344,0.72266 2.67579,2.20703 l 0,-2.55859 2.79296,0 0,14.375 q 2.85157,-0.42969 4.45313,-2.59766 1.62109,-2.1875 1.62109,-5.64453 0,-2.08984 -0.625,-3.92578 -0.60547,-1.83594 -1.85547,-3.39844 -2.03125,-2.55859 -4.96093,-3.90625 -2.91016,-1.36719 -6.34766,-1.36719 -2.40234,0 -4.60937,0.64454 -2.20704,0.625 -4.08204,1.875 -3.0664,1.99218 -4.80468,5.23437 -1.71875,3.22266 -1.71875,6.99219 0,3.10547 1.11328,5.82031 1.13281,2.71484 3.26172,4.78516 2.05078,2.03125 4.74609,3.08593 2.69531,1.07422 5.76172,1.07422 2.51953,0 4.94141,-0.85937 2.4414,-0.83985 4.47265,-2.42188 l 1.75781,2.16797 q -2.4414,1.89453 -5.33203,2.89063 -2.87109,1.01562 -5.83984,1.01562 -3.61328,0 -6.81641,-1.28906 -3.20312,-1.26953 -5.70312,-3.71094 -2.5,-2.4414 -3.8086,-5.64453 -1.30859,-3.22266 -1.30859,-6.91406 0,-3.55469 1.32813,-6.77735 1.32812,-3.22265 3.78906,-5.66406 2.51953,-2.48047 5.82031,-3.78906 3.30078,-1.32813 6.99219,-1.32813 4.14062,0 7.67578,1.69922 3.55469,1.69922 5.95703,4.82422 1.46484,1.91406 2.22656,4.16016 0.78125,2.24609 0.78125,4.64844 0,5.13671 -3.10547,8.10546 -3.10546,2.96875 -8.57421,3.08594 l 0,-3.00781 z"
         style=""
         id="path3782" />
      <path
         d="m 211.33398,236.57309 q -0.60546,-0.35156 -1.32812,-0.50781 -0.70313,-0.17578 -1.5625,-0.17578 -3.04688,0 -4.6875,1.99219 -1.62109,1.97265 -1.62109,5.68359 l 0,11.52344 -3.61329,0 0,-21.875 3.61329,0 0,3.39843 q 1.13281,-1.99218 2.94921,-2.94921 1.81641,-0.97657 4.41407,-0.97657 0.37109,0 0.82031,0.0586 0.44922,0.0391 0.99609,0.13672 l 0.0195,3.6914 z"
         style=""
         id="path3784" />
      <path
         d="m 222.75977,235.73325 q -2.89063,0 -4.57032,2.26562 -1.67968,2.2461 -1.67968,6.17188 0,3.92578 1.66015,6.1914 1.67969,2.2461 4.58985,2.2461 2.87109,0 4.55078,-2.26563 1.67968,-2.26562 1.67968,-6.17187 0,-3.88672 -1.67968,-6.15235 -1.67969,-2.28515 -4.55078,-2.28515 z m 0,-3.04688 q 4.6875,0 7.36328,3.04688 2.67578,3.04687 2.67578,8.4375 0,5.37109 -2.67578,8.4375 -2.67578,3.04687 -7.36328,3.04687 -4.70704,0 -7.38282,-3.04687 -2.65625,-3.06641 -2.65625,-8.4375 0,-5.39063 2.65625,-8.4375 2.67578,-3.04688 7.38282,-3.04688 z"
         style=""
         id="path3786" />
      <path
         d="m 252.68164,233.85825 0,3.39844 q -1.52344,-0.78125 -3.16406,-1.17188 -1.64063,-0.39062 -3.39844,-0.39062 -2.67578,0 -4.02344,0.82031 -1.32812,0.82031 -1.32812,2.46094 0,1.25 0.95703,1.97265 0.95703,0.70313 3.84766,1.34766 l 1.23046,0.27344 q 3.82813,0.82031 5.42969,2.32421 1.6211,1.48438 1.6211,4.16016 0,3.04688 -2.42188,4.82422 -2.40234,1.77734 -6.62109,1.77734 -1.75782,0 -3.67188,-0.35156 -1.89453,-0.33203 -4.0039,-1.01562 l 0,-3.71094 q 1.99218,1.03515 3.92578,1.5625 1.93359,0.50781 3.82812,0.50781 2.53906,0 3.90625,-0.85937 1.36719,-0.87891 1.36719,-2.46094 0,-1.46485 -0.99609,-2.2461 -0.97657,-0.78125 -4.31641,-1.5039 l -1.25,-0.29297 q -3.33984,-0.70313 -4.82422,-2.14844 -1.48437,-1.46484 -1.48437,-4.0039 0,-3.08594 2.1875,-4.76563 2.1875,-1.67969 6.21093,-1.67969 1.99219,0 3.75,0.29297 1.75782,0.29297 3.24219,0.87891 z"
         style=""
         id="path3788" />
      <path
         d="m 273.54102,233.85825 0,3.39844 q -1.52344,-0.78125 -3.16407,-1.17188 -1.64062,-0.39062 -3.39843,-0.39062 -2.67579,0 -4.02344,0.82031 -1.32813,0.82031 -1.32813,2.46094 0,1.25 0.95703,1.97265 0.95704,0.70313 3.84766,1.34766 l 1.23047,0.27344 q 3.82812,0.82031 5.42969,2.32421 1.62109,1.48438 1.62109,4.16016 0,3.04688 -2.42187,4.82422 -2.40235,1.77734 -6.6211,1.77734 -1.75781,0 -3.67187,-0.35156 -1.89453,-0.33203 -4.00391,-1.01562 l 0,-3.71094 q 1.99219,1.03515 3.92578,1.5625 1.9336,0.50781 3.82813,0.50781 2.53906,0 3.90625,-0.85937 1.36718,-0.87891 1.36718,-2.46094 0,-1.46485 -0.99609,-2.2461 -0.97656,-0.78125 -4.31641,-1.5039 l -1.25,-0.29297 q -3.33984,-0.70313 -4.82421,-2.14844 -1.48438,-1.46484 -1.48438,-4.0039 0,-3.08594 2.1875,-4.76563 2.1875,-1.67969 6.21094,-1.67969 1.99219,0 3.75,0.29297 1.75781,0.29297 3.24219,0.87891 z"
         style=""
         id="path3790" />
      <path
         d="m 288.93164,235.73325 q -2.89062,0 -4.57031,2.26562 -1.67969,2.2461 -1.67969,6.17188 0,3.92578 1.66016,6.1914 1.67968,2.2461 4.58984,2.2461 2.87109,0 4.55078,-2.26563 1.67969,-2.26562 1.67969,-6.17187 0,-3.88672 -1.67969,-6.15235 -1.67969,-2.28515 -4.55078,-2.28515 z m 0,-3.04688 q 4.6875,0 7.36328,3.04688 2.67578,3.04687 2.67578,8.4375 0,5.37109 -2.67578,8.4375 -2.67578,3.04687 -7.36328,3.04687 -4.70703,0 -7.38281,-3.04687 -2.65625,-3.06641 -2.65625,-8.4375 0,-5.39063 2.65625,-8.4375 2.67578,-3.04688 7.38281,-3.04688 z"
         style=""
         id="path3792" />
      <path
         d="m 323.0918,241.88559 0,13.20313 -3.59375,0 0,-13.08594 q 0,-3.10547 -1.21094,-4.64844 -1.21094,-1.54297 -3.63281,-1.54297 -2.91016,0 -4.58985,1.85547 -1.67968,1.85547 -1.67968,5.0586 l 0,12.36328 -3.61329,0 0,-21.875 3.61329,0 0,3.39843 q 1.28906,-1.97265 3.02734,-2.94921 1.75781,-0.97657 4.04297,-0.97657 3.76953,0 5.70312,2.34375 1.9336,2.32422 1.9336,6.85547 z"
         style=""
         id="path3794" />
      <path
         d="m 349.00977,243.25278 0,1.75781 -16.52344,0 q 0.23437,3.71094 2.22656,5.66406 2.01172,1.9336 5.58594,1.9336 2.07031,0 4.0039,-0.50781 1.95313,-0.50782 3.86719,-1.52344 l 0,3.39844 q -1.93359,0.82031 -3.96484,1.25 -2.03125,0.42968 -4.1211,0.42968 -5.23437,0 -8.30078,-3.04687 -3.04687,-3.04688 -3.04687,-8.24219 0,-5.37109 2.89062,-8.51562 2.91016,-3.16407 7.83203,-3.16407 4.41407,0 6.97266,2.85157 2.57813,2.83203 2.57813,7.71484 z m -3.59375,-1.05469 q -0.0391,-2.94922 -1.66016,-4.70703 -1.60156,-1.75781 -4.25781,-1.75781 -3.00782,0 -4.82422,1.69922 -1.79688,1.69922 -2.07031,4.78515 l 12.8125,-0.0195 z"
         style=""
         id="path3796" />
      <path
         d="m 358.46289,227.00278 0,6.21094 7.40234,0 0,2.79297 -7.40234,0 0,11.875 q 0,2.67578 0.72266,3.4375 0.74218,0.76171 2.98828,0.76171 l 3.6914,0 0,3.00782 -3.6914,0 q -4.16016,0 -5.74219,-1.54297 -1.58203,-1.5625 -1.58203,-5.66406 l 0,-11.875 -2.63672,0 0,-2.79297 2.63672,0 0,-6.21094 3.61328,0 z"
         style=""
         id="path3798" />
      <path
         d="m 371.11914,250.12778 4.12109,0 0,4.96094 -4.12109,0 0,-4.96094 z"
         style=""
         id="path3800" />
      <path
         d="m 391.82227,235.73325 q -2.89063,0 -4.57032,2.26562 -1.67968,2.2461 -1.67968,6.17188 0,3.92578 1.66015,6.1914 1.67969,2.2461 4.58985,2.2461 2.87109,0 4.55078,-2.26563 1.67968,-2.26562 1.67968,-6.17187 0,-3.88672 -1.67968,-6.15235 -1.67969,-2.28515 -4.55078,-2.28515 z m 0,-3.04688 q 4.6875,0 7.36328,3.04688 2.67578,3.04687 2.67578,8.4375 0,5.37109 -2.67578,8.4375 -2.67578,3.04687 -7.36328,3.04687 -4.70704,0 -7.38282,-3.04687 -2.65625,-3.06641 -2.65625,-8.4375 0,-5.39063 2.65625,-8.4375 2.67578,-3.04688 7.38282,-3.04688 z"
         style=""
         id="path3802" />
      <path
         d="m 420.47461,236.57309 q -0.60547,-0.35156 -1.32813,-0.50781 -0.70312,-0.17578 -1.5625,-0.17578 -3.04687,0 -4.6875,1.99219 -1.62109,1.97265 -1.62109,5.68359 l 0,11.52344 -3.61328,0 0,-21.875 3.61328,0 0,3.39843 q 1.13281,-1.99218 2.94922,-2.94921 1.81641,-0.97657 4.41406,-0.97657 0.3711,0 0.82031,0.0586 0.44922,0.0391 0.9961,0.13672 l 0.0195,3.6914 z"
         style=""
         id="path3804" />
      <path
         d="m 437.97461,243.89731 q 0,-3.90625 -1.62109,-6.05469 -1.60157,-2.14843 -4.51172,-2.14843 -2.89063,0 -4.51172,2.14843 -1.60156,2.14844 -1.60156,6.05469 0,3.88672 1.60156,6.03516 1.62109,2.14843 4.51172,2.14843 2.91015,0 4.51172,-2.14843 1.62109,-2.14844 1.62109,-6.03516 z m 3.59375,8.47656 q 0,5.58594 -2.48047,8.30078 -2.48047,2.73438 -7.59766,2.73438 -1.89453,0 -3.57421,-0.29297 -1.67969,-0.27344 -3.26172,-0.85937 l 0,-3.4961 q 1.58203,0.85938 3.125,1.26953 1.54297,0.41016 3.14453,0.41016 3.53515,0 5.29297,-1.85547 1.75781,-1.83594 1.75781,-5.56641 l 0,-1.77734 q -1.11328,1.93359 -2.85156,2.89063 -1.73828,0.95703 -4.16016,0.95703 -4.02344,0 -6.48437,-3.06641 -2.46094,-3.06641 -2.46094,-8.125 0,-5.07812 2.46094,-8.14453 2.46093,-3.06641 6.48437,-3.06641 2.42188,0 4.16016,0.95703 1.73828,0.95704 2.85156,2.89063 l 0,-3.32031 3.59375,0 0,19.16015 z"
         style=""
         id="path3806" />
    </g>
    <g
       style="font-style:normal;font-weight:normal;font-size:60px;line-height:125%;font-family:sans-serif;letter-spacing:0px;word-spacing:0px;fill:#000000;fill-opacity:1;stroke:none;stroke-width:1px;stroke-linecap:butt;stroke-linejoin:miter;stroke-opacity:1"
       id="flowRoot3352" />
    <g
       style="font-style:normal;font-weight:normal;font-size:40px;line-height:125%;font-family:sans-serif;text-align:center;letter-spacing:0px;word-spacing:0px;text-anchor:middle;fill:#000000;fill-opacity:1;stroke:none;stroke-width:1px;stroke-linecap:butt;stroke-linejoin:miter;stroke-opacity:1"
       id="text3360">
      <path
         d="m 359.21042,532.28967 q -1.09375,0 -4.76563,-0.50781 -0.3125,5.89844 -0.3125,20.66406 0,1.5625 -1.01562,2.65625 -1.01563,1.05469 -2.53906,1.05469 -1.5625,0 -2.57813,-1.05469 -1.01562,-1.09375 -1.01562,-2.65625 l 0,-11.48437 q 0,-5.74219 0.70312,-16.17188 0.78125,-11.28906 0.85938,-16.17187 l 0,-5.39063 q 0,-3.86718 0.46875,-5.625 0.89843,-3.4375 3.82812,-2.96875 1.25,-0.39062 3.55469,-0.58593 2.30469,-0.19532 5.66406,-0.19532 7.14844,0 13.39844,4.88282 6.875,5.39062 6.875,12.96875 0,9.6875 -7.34375,15.42968 -6.5625,5.15625 -15.78125,5.15625 z m 1.95312,-31.01562 q -1.71875,0 -3.08593,0.0781 -1.32813,0.0781 -2.26563,0.23438 l -0.0781,7.1875 -0.82032,15.54687 4.29688,0.50782 q 6.5625,0 11.05469,-3.32032 4.92187,-3.63281 4.92187,-9.80468 0,-4.375 -4.6875,-7.53907 -4.33594,-2.89062 -9.33594,-2.89062 z"
         style="font-style:normal;font-variant:normal;font-weight:normal;font-stretch:normal;font-size:80px;font-family:'Comic Sans MS';-inkscape-font-specification:'Comic Sans MS';text-align:center;text-anchor:middle"
         id="path3810" />
      <path
         d="m 420.61667,526.35217 q -0.27344,4.88282 -3.90625,4.88282 -3.35938,0 -3.35938,-3.86719 0,-0.74219 -0.11718,-2.73438 l -0.11719,-3.28125 q -6.17188,0.74219 -9.88281,3.47657 -3.47657,2.53906 -5.78125,7.65625 l 0.0781,21.40625 q 0,3.94531 -3.86719,3.94531 -3.4375,0 -3.4375,-3.94531 l 0,-27.42188 q 0,-1.28906 0.0781,-3.86719 0.11719,-2.57812 0.11719,-3.86718 0,-3.94532 3.4375,-3.94532 3.82812,0 3.86718,6.48438 7.5,-7.22656 16.64063,-7.22656 3.16406,0 4.72656,2.38281 1.5625,2.38281 1.5625,7.1875 0,2.03125 -0.0391,2.73437 z"
         style="font-style:normal;font-variant:normal;font-weight:normal;font-stretch:normal;font-size:80px;font-family:'Comic Sans MS';-inkscape-font-specification:'Comic Sans MS';text-align:center;text-anchor:middle"
         id="path3812" />
      <path
         d="m 447.06198,557.01624 q -8.82812,0 -14.29687,-4.41407 -5.97657,-4.88281 -5.97657,-13.67187 0,-10.15625 4.92188,-17.03125 5.35156,-7.5 14.29687,-7.5 6.48438,0 10.58594,2.1875 5.03906,2.69531 5.03906,8.28125 0,3.90625 -4.41406,7.10937 -1.95312,1.40625 -8.28125,4.375 l -14.92187,7.07032 q 2.1875,3.24218 5.42968,4.88281 3.28125,1.64062 7.61719,1.64062 2.69531,0 6.32813,-1.01562 4.60937,-1.28906 5.9375,-3.35938 1.32812,-2.10937 2.85156,-2.10937 1.36719,0 2.42187,1.05469 1.09375,1.01562 1.09375,2.38281 0,4.33594 -6.99218,7.46094 -5.97657,2.65625 -11.64063,2.65625 z m -1.05469,-35.58594 q -4.76562,0 -7.92968,3.71094 -3.16407,3.67187 -4.72657,11.09375 l 11.99219,-5.70313 q 7.07031,-3.4375 10.07813,-5.97656 -3.35938,-3.125 -9.41407,-3.125 z"
         style="font-style:normal;font-variant:normal;font-weight:normal;font-stretch:normal;font-size:80px;font-family:'Comic Sans MS';-inkscape-font-specification:'Comic Sans MS';text-align:center;text-anchor:middle"
         id="path3814" />
      <path
         d="m 499.09323,525.14124 q -2.14844,0 -3.00781,-1.44532 -0.58594,-1.01562 -1.01563,-4.21875 -2.92968,0.74219 -9.02343,2.73438 -6.28907,2.5 -6.32813,6.17187 1.17188,0.42969 2.30469,0.625 8.98437,1.60157 13.35937,4.41407 6.36719,4.10156 6.36719,11.875 0,6.36718 -5.50781,9.60937 -4.57031,2.65625 -11.5625,2.65625 -5.11719,0 -9.76563,-1.71875 -6.01562,-2.1875 -6.01562,-6.09375 0,-1.5625 1.21094,-2.73437 1.25,-1.17188 2.8125,-1.17188 1.21093,0 3.125,1.875 0.9375,0.89844 4.21875,1.48438 2.61718,0.46875 4.41406,0.46875 3.28125,0 5.78125,-0.78125 3.63281,-1.13282 3.63281,-3.59375 0,-5.3125 -7.42187,-7.1875 l -4.0625,-0.89844 q -5.19532,-1.13281 -7.38282,-2.65625 -3.16406,-2.1875 -3.16406,-6.60156 0,-8.16407 7.69531,-11.64063 2.34375,-1.05469 7.5,-2.5 5.15625,-1.48437 7.38282,-2.5 1.60156,-0.70312 3.47656,-0.70312 1.67969,0 2.73437,1.09375 1.09375,1.09375 1.09375,2.85156 0,1.13281 0.46875,3.32031 0.50782,2.1875 0.50782,3.32031 0,1.75782 -1.09375,2.85157 -1.05469,1.09375 -2.73438,1.09375 z"
         style="font-style:normal;font-variant:normal;font-weight:normal;font-stretch:normal;font-size:80px;font-family:'Comic Sans MS';-inkscape-font-specification:'Comic Sans MS';text-align:center;text-anchor:middle"
         id="path3816" />
      <path
         d="m 529.87448,557.01624 q -8.82812,0 -14.29687,-4.41407 -5.97657,-4.88281 -5.97657,-13.67187 0,-10.15625 4.92188,-17.03125 5.35156,-7.5 14.29687,-7.5 6.48438,0 10.58594,2.1875 5.03906,2.69531 5.03906,8.28125 0,3.90625 -4.41406,7.10937 -1.95312,1.40625 -8.28125,4.375 l -14.92187,7.07032 q 2.1875,3.24218 5.42968,4.88281 3.28125,1.64062 7.61719,1.64062 2.69531,0 6.32813,-1.01562 4.60937,-1.28906 5.9375,-3.35938 1.32812,-2.10937 2.85156,-2.10937 1.36719,0 2.42187,1.05469 1.09375,1.01562 1.09375,2.38281 0,4.33594 -6.99218,7.46094 -5.97657,2.65625 -11.64063,2.65625 z m -1.05469,-35.58594 q -4.76562,0 -7.92968,3.71094 -3.16407,3.67187 -4.72657,11.09375 l 11.99219,-5.70313 q 7.07031,-3.4375 10.07813,-5.97656 -3.35938,-3.125 -9.41407,-3.125 z"
         style="font-style:normal;font-variant:normal;font-weight:normal;font-stretch:normal;font-size:80px;font-family:'Comic Sans MS';-inkscape-font-specification:'Comic Sans MS';text-align:center;text-anchor:middle"
         id="path3818" />
      <path
         d="m 585.49948,557.9928 q -3.35937,0 -3.78906,-3.67188 l -1.09375,-8.55468 q -0.54688,-4.57032 -0.54688,-8.55469 0,-1.09375 0.11719,-3.71094 0.15625,-2.61719 0.15625,-3.71094 0,-8.4375 -3.125,-8.4375 -4.375,0 -8.35937,5.19532 -3.59375,4.72656 -5.625,11.95312 -0.0781,1.52344 -0.35157,3.82813 -0.23437,1.95312 -0.23437,3.78906 0,1.17187 0.23437,3.51562 0.23438,2.34375 0.23438,3.51563 0,1.75781 -1.09375,2.85156 -1.05469,1.09375 -2.73438,1.09375 -1.71875,0 -2.77343,-1.09375 -1.05469,-1.09375 -1.05469,-2.85156 0,-1.17188 -0.27344,-3.51563 -0.23437,-2.34375 -0.23437,-3.51562 0,-4.02344 0.54687,-11.13281 0.58594,-7.14844 0.58594,-11.17188 0,-1.25 -0.15625,-3.71094 -0.11719,-2.46093 -0.11719,-3.71093 0,-1.67969 1.09375,-2.73438 1.13281,-1.09375 2.77344,-1.09375 3.59375,0 3.94531,5.07813 l 0.11719,4.57031 q 6.5625,-8.75 13.47656,-8.75 6.25,0 8.71094,5.50781 1.67969,3.67188 1.83594,10.85938 l 0,3.94531 -0.0391,3.63281 q 0,3.24219 0.82032,8.39844 0.85937,5.11719 0.85937,8.32031 0,1.71875 -1.13281,2.77344 -1.09375,1.09375 -2.77344,1.09375 z"
         style="font-style:normal;font-variant:normal;font-weight:normal;font-stretch:normal;font-size:80px;font-family:'Comic Sans MS';-inkscape-font-specification:'Comic Sans MS';text-align:center;text-anchor:middle"
         id="path3820" />
      <path
         d="m 623.54636,521.93811 q -0.82032,0 -1.95313,-0.0781 -1.09375,-0.0781 -1.91406,-0.0781 -0.89844,0 -5.3125,0.58594 l 0.74219,23.08594 0.0391,1.71875 0.0391,1.99218 q 0.15625,8.55469 -4.10156,8.55469 -1.5625,0 -2.73438,-1.01562 -1.13281,-1.01563 -1.13281,-2.53907 0,-1.48437 0.11719,-4.45312 0.11719,-2.96875 0.11719,-4.45313 l -0.78125,-22.8125 q -2.85157,-0.11718 -8.67188,-0.66406 -3.47656,-0.46875 -3.47656,-3.86719 0,-1.71875 1.05469,-2.85156 1.05468,-1.13281 2.69531,-1.13281 l 8.20312,0.66406 q 0,-1.99219 -0.19531,-5.3125 -0.15625,-3.35937 -0.15625,-4.84375 0,-1.64062 1.13281,-2.69531 1.13282,-1.09375 2.77344,-1.09375 3.51563,0 4.10156,5.74219 0.11719,1.44531 0.11719,3.47656 l -0.0781,2.26562 -0.0391,2.42188 q 4.84375,-0.625 5.54688,-0.625 4.0625,0 5.3125,0.39062 2.38281,0.78125 2.38281,3.67188 0,1.71875 -1.09375,2.85156 -1.05469,1.09375 -2.73437,1.09375 z"
         style="font-style:normal;font-variant:normal;font-weight:normal;font-stretch:normal;font-size:80px;font-family:'Comic Sans MS';-inkscape-font-specification:'Comic Sans MS';text-align:center;text-anchor:middle"
         id="path3822" />
      <path
         d="m 665.57761,557.79749 q -0.74219,0 -2.69532,-1.71875 -1.75781,-1.60157 -2.61718,-2.85157 -3.75,2.03125 -6.60157,3.04688 -2.85156,1.05469 -4.76562,1.05469 -9.14063,0 -13.32031,-5.15625 -3.94532,-4.84375 -3.94532,-14.84375 0,-9.45313 6.48438,-16.17188 6.52344,-6.71875 15.54687,-6.71875 3.39844,0 7.61719,1.75781 5.3125,2.1875 5.3125,5.27344 0,1.05469 -0.78125,1.875 -0.39062,1.48438 -0.625,4.88281 -0.19531,3.39844 -0.23437,8.71094 -0.0391,4.84375 0.66406,7.65625 0.39062,1.71875 2.46094,6.875 0.27343,0.70313 0.89843,2.07031 l 0.23438,0.66407 q 0,1.5625 -1.09375,2.57812 -1.09375,1.01563 -2.53906,1.01563 z m -8.125,-27.14844 q 0,-1.67969 0.19531,-3.63281 0.23437,-1.99219 0.66406,-4.21875 -1.44531,-0.74219 -2.5,-1.09375 -1.01562,-0.35157 -1.64062,-0.35157 -6.05469,0 -10.46875,4.96094 -4.375,4.92188 -4.375,11.36719 0,6.40625 2.26562,9.60937 2.26563,3.20313 6.79688,3.20313 3.75,0 6.36718,-1.36719 1.40625,-0.74219 3.94532,-2.96875 -1.25,-10.35156 -1.25,-15.50781 z"
         style="font-style:normal;font-variant:normal;font-weight:normal;font-stretch:normal;font-size:80px;font-family:'Comic Sans MS';-inkscape-font-specification:'Comic Sans MS';text-align:center;text-anchor:middle"
         id="path3824" />
    </g>
    <g
       style="font-style:normal;font-variant:normal;font-weight:500;font-stretch:normal;font-size:70px;line-height:125%;font-family:Sportrop;-inkscape-font-specification:'Sportrop Medium';letter-spacing:0px;word-spacing:0px;fill:#000000;fill-opacity:1;stroke:none;stroke-width:1px;stroke-linecap:butt;stroke-linejoin:miter;stroke-opacity:1"
       id="flowRoot3364" />
    <g
       transform="translate(-20,291.12486)"
       style="font-style:normal;font-variant:normal;font-weight:500;font-stretch:normal;font-size:80px;line-height:125%;font-family:Sportrop;-inkscape-font-specification:'Sportrop Medium';text-align:center;letter-spacing:0px;word-spacing:0px;text-anchor:middle;fill:#000000;fill-opacity:1;stroke:none;stroke-width:1px;stroke-linecap:butt;stroke-linejoin:miter;stroke-opacity:1"
       id="flowRoot3372">
      <path
         d="m 230.92676,357.03899 q 0,-0.91666 -3.33334,-4.33333 -3.33333,-3.41667 -3.33333,-5.66667 l 0,-36.66666 31.91667,0 q 7.91666,0 13,4.58333 5.08333,4.5 5.08333,11.83333 l 0,13.91667 q 0,6.16667 -3.41667,10 -3.33333,3.75 -7.66666,5.16667 l 11.08333,17.5 0,3.66666 -9.5,0 -12.83333,-20 -14.33334,0 0,-10 15,0 q 6.58334,0 9.08334,-2 2.58333,-2.08333 2.58333,-7.91666 l 0,-6.91667 q 0,-5.75 -2.58333,-7.75 -2.5,-2.08333 -9.08334,-2.08333 l -18.33333,0 0,29.66666 q -0.25,-0.33333 -1.66667,-1.66666 -1.33333,-1.41667 -1.58333,-1.83334 l -0.0833,-29.5 21.66666,0 q 7.66667,0 11.33334,2.91667 3.66666,2.83333 3.66666,10.41667 l 0,6.91666 q 0,7.5 -3.66666,10.33334 -3.58334,2.75 -11.33334,2.75 l -11.66666,0 0,3.33333 12.91666,0 12.75,20 3.91667,0 -12.83333,-20.16667 3.66666,-0.58333 q 4,-1.16667 6.75,-4.16667 2.83334,-3.08333 2.83334,-8.08333 l 0,-13.75 q 0,-6.16667 -4.16667,-9.66667 -4.08333,-3.58333 -10.83333,-3.58333 l -28.33334,0 0,33.33333 q 0,0.83334 1.66667,2.5 1.66667,1.58334 3.33333,3.66667 1.66667,2 1.66667,3.83333 l 0,20 -10,0 0,-22.91666 1.5,1.5 q 1.58333,1.58333 1.83333,1.91666 l 0,16.16667 3.33334,0 0,-16.66667 z"
         style=""
         id="path3828" />
      <path
         d="m 280.97884,340.03899 q 0.0833,-7.25 5.16667,-11.75 5.08333,-4.58333 13.16666,-4.58333 l 6.66667,0 q 8,0 13.16667,4.58333 5.16666,4.58334 5.16666,12.08334 l 0,21.66666 q -0.58333,6.58334 -5.66666,10.83334 -5,4.16666 -12.41667,4.16666 l -6.91667,0 q -7.5,0 -12.66666,-4.16666 -5.08334,-4.25 -5.66667,-10.83334 l 0,-8 1.5,1.5 q 1.33333,1.33334 1.75,2 0.0833,0 0.0833,0.0833 l 0,2.66666 q 0,6.25 4.33334,9.83334 4.41666,3.58333 10.66666,3.58333 l 6.91667,0 q 6.25,0 10.5,-3.58333 4.25,-3.58334 4.25,-9.75 l 0,-19.91667 q 0,-6.08333 -4.16667,-9.75 -4.08333,-3.66667 -10.83333,-3.66667 l -6.66667,0 q -6.75,0 -10.91666,3.58334 -4.08334,3.58333 -4.08334,9.75 l 0,6.66666 q 0,1 3.33334,4.33334 3.33333,3.33333 3.33333,5.66666 0,6.16667 2.83333,8.25 2.5,1.75 8.83334,1.75 6.33333,0 8.83333,-1.75 2.83333,-2.08333 2.83333,-8.25 l 0,-13.33333 q 0,-6.16667 -2.83333,-8.25 -2.5,-1.75 -8.83333,-1.75 -6.33334,0 -8.83334,1.75 -2.83333,2.08333 -2.83333,8.25 l 0,6.33333 q -0.0833,-0.16666 -1.58333,-1.58333 -1.41667,-1.5 -1.75,-1.91667 l 0,-3.16666 q 0.0833,-7.5 3.83333,-10.25 3.75,-2.75 11.16667,-2.75 7.58333,0 11.25,2.91666 3.75,2.83334 3.75,10.41667 l 0,13.33333 q 0,7.58334 -3.75,10.5 -3.66667,2.83334 -11.25,2.83334 -7.41667,0 -11.08334,-2.58334 -3.58333,-2.66666 -3.91666,-9.08333 l 0,-1.66667 q 0,-1 -3.33334,-4.33333 -3.33333,-3.33333 -3.33333,-5.66667 l 0,-7 z"
         style=""
         id="path3830" />
      <path
         d="m 330.97884,337.03899 q 0,-5.75 5.5,-9.5 5.5,-3.83333 12.83333,-3.83333 l 6.83334,0 q 8,0 13.08333,4.58333 5.08333,4.5 5.08333,12.08334 l -10,0 0,-1.66667 q -0.75,-5 -11.5,-5 -11.83333,0 -11.83333,5 0,5 11.83333,5 l 3.5,0 q 7.16667,0 12.41667,2.91667 5.25,2.91666 5.58333,8.16666 -6.16666,-7.58333 -18,-7.75 l -5.16666,0 q -4.08334,0 -6.91667,-0.75 -2.83333,-0.83333 -4.16667,-2.16666 -1.33333,-1.41667 -1.91666,-2.66667 -0.5,-1.33333 -0.5,-2.75 0,-2.5 1.16666,-4.16667 1.16667,-1.75 3.33334,-2.58333 2.25,-0.91667 4.75,-1.25 2.58333,-0.33333 5.91666,-0.33333 6.08334,0 9.58334,1.41666 3.5,1.41667 4.83333,5.25 l 3.5,0 q -0.91667,-4.16666 -4.75,-7.08333 -3.83333,-2.91667 -10,-2.91667 l -6.66667,0 q -6.25,0 -10.66666,3 -4.33334,3 -4.33334,7 l 0,3.66667 q 0,3.66667 4.41667,6.66667 4.5,3 10.41667,3 l 7.16666,0 q 7.08334,0 12.5,3.83333 5.5,3.83333 5.5,9.5 0,5.75 -5.5,9.58333 -5.5,3.75 -12.75,3.75 l -6.75,0 q -7.75,0 -13.08333,-4.66666 -5.25,-4.66667 -5.25,-12 l 10.25,0 q 0.66667,3.75 3.25,5.25 2.58333,1.41666 8.33333,1.41666 11.5,0 11.5,-5.91666 0,-1.33334 0.5,-1.58334 0.41667,0.16667 1.41667,1.16667 1,1 1.25,1.83333 -0.83333,4 -4,5.91667 -3.16667,1.91667 -10.66667,1.91667 -6.16666,0 -9.5,-1.66667 -3.33333,-1.66667 -4.75,-5 l -3.83333,0 q 1.08333,4.16667 4.91667,7.08333 3.91666,2.91667 9.66666,2.91667 l 6.66667,0 q 6.25,0 10.58333,-2.91667 4.41667,-2.91666 4.41667,-7.08333 0,-4 -4.33333,-7 -4.25,-3 -10.33334,-3 l -7.16666,0 q -7.08334,0 -12.66667,-3.75 -5.5,-3.75 -5.5,-9.58333 l 0,-3.33334 z"
         style=""
         id="path3832" />
      <path
         d="m 380.97884,337.03899 q 0,-5.75 5.5,-9.5 5.5,-3.83333 12.83333,-3.83333 l 6.83334,0 q 8,0 13.08333,4.58333 5.08333,4.5 5.08333,12.08334 l -10,0 0,-1.66667 q -0.75,-5 -11.5,-5 -11.83333,0 -11.83333,5 0,5 11.83333,5 l 3.5,0 q 7.16667,0 12.41667,2.91667 5.25,2.91666 5.58333,8.16666 -6.16666,-7.58333 -18,-7.75 l -5.16666,0 q -4.08334,0 -6.91667,-0.75 -2.83333,-0.83333 -4.16667,-2.16666 -1.33333,-1.41667 -1.91666,-2.66667 -0.5,-1.33333 -0.5,-2.75 0,-2.5 1.16666,-4.16667 1.16667,-1.75 3.33334,-2.58333 2.25,-0.91667 4.75,-1.25 2.58333,-0.33333 5.91666,-0.33333 6.08334,0 9.58334,1.41666 3.5,1.41667 4.83333,5.25 l 3.5,0 q -0.91667,-4.16666 -4.75,-7.08333 -3.83333,-2.91667 -10,-2.91667 l -6.66667,0 q -6.25,0 -10.66666,3 -4.33334,3 -4.33334,7 l 0,3.66667 q 0,3.66667 4.41667,6.66667 4.5,3 10.41667,3 l 7.16666,0 q 7.08334,0 12.5,3.83333 5.5,3.83333 5.5,9.5 0,5.75 -5.5,9.58333 -5.5,3.75 -12.75,3.75 l -6.75,0 q -7.75,0 -13.08333,-4.66666 -5.25,-4.66667 -5.25,-12 l 10.25,0 q 0.66667,3.75 3.25,5.25 2.58333,1.41666 8.33333,1.41666 11.5,0 11.5,-5.91666 0,-1.33334 0.5,-1.58334 0.41667,0.16667 1.41667,1.16667 1,1 1.25,1.83333 -0.83333,4 -4,5.91667 -3.16667,1.91667 -10.66667,1.91667 -6.16666,0 -9.5,-1.66667 -3.33333,-1.66667 -4.75,-5 l -3.83333,0 q 1.08333,4.16667 4.91667,7.08333 3.91666,2.91667 9.66666,2.91667 l 6.66667,0 q 6.25,0 10.58333,-2.91667 4.41667,-2.91666 4.41667,-7.08333 0,-4 -4.33333,-7 -4.25,-3 -10.33334,-3 l -7.16666,0 q -7.08334,0 -12.66667,-3.75 -5.5,-3.75 -5.5,-9.58333 l 0,-3.33334 z"
         style=""
         id="path3834" />
      <path
         d="m 430.97884,340.03899 q 0.0833,-7.25 5.16667,-11.75 5.08333,-4.58333 13.16666,-4.58333 l 6.66667,0 q 8,0 13.16667,4.58333 5.16666,4.58334 5.16666,12.08334 l 0,21.66666 q -0.58333,6.58334 -5.66666,10.83334 -5,4.16666 -12.41667,4.16666 l -6.91667,0 q -7.5,0 -12.66666,-4.16666 -5.08334,-4.25 -5.66667,-10.83334 l 0,-8 1.5,1.5 q 1.33333,1.33334 1.75,2 0.0833,0 0.0833,0.0833 l 0,2.66666 q 0,6.25 4.33334,9.83334 4.41666,3.58333 10.66666,3.58333 l 6.91667,0 q 6.25,0 10.5,-3.58333 4.25,-3.58334 4.25,-9.75 l 0,-19.91667 q 0,-6.08333 -4.16667,-9.75 -4.08333,-3.66667 -10.83333,-3.66667 l -6.66667,0 q -6.75,0 -10.91666,3.58334 -4.08334,3.58333 -4.08334,9.75 l 0,6.66666 q 0,1 3.33334,4.33334 3.33333,3.33333 3.33333,5.66666 0,6.16667 2.83333,8.25 2.5,1.75 8.83334,1.75 6.33333,0 8.83333,-1.75 2.83333,-2.08333 2.83333,-8.25 l 0,-13.33333 q 0,-6.16667 -2.83333,-8.25 -2.5,-1.75 -8.83333,-1.75 -6.33334,0 -8.83334,1.75 -2.83333,2.08333 -2.83333,8.25 l 0,6.33333 q -0.0833,-0.16666 -1.58333,-1.58333 -1.41667,-1.5 -1.75,-1.91667 l 0,-3.16666 q 0.0833,-7.5 3.83333,-10.25 3.75,-2.75 11.16667,-2.75 7.58333,0 11.25,2.91666 3.75,2.83334 3.75,10.41667 l 0,13.33333 q 0,7.58334 -3.75,10.5 -3.66667,2.83334 -11.25,2.83334 -7.41667,0 -11.08334,-2.58334 -3.58333,-2.66666 -3.91666,-9.08333 l 0,-1.66667 q 0,-1 -3.33334,-4.33333 -3.33333,-3.33333 -3.33333,-5.66667 l 0,-7 z"
         style=""
         id="path3836" />
      <path
         d="m 487.64551,356.95566 q 0,-1 -3.33334,-4.33333 -3.33333,-3.33334 -3.33333,-5.66667 l 0,-23.25 25,0 q 7.66667,0 12.91667,4.5 5.33333,4.5 5.41666,12.16667 l 0,36.66666 -10,0 0,-33.33333 q 0,-6.16667 -2.83333,-8.25 -2.5,-1.75 -8.91667,-1.75 -6.5,0 -9.08333,2.08333 -2.5,2.08334 -2.5,7.91667 l 0,6.25 q -0.16667,-0.25 -1.58333,-1.66667 -1.41667,-1.41666 -1.75,-1.91666 l 0,-3 q 0.0833,-7.5 3.83333,-10.25 3.75,-2.75 11.16667,-2.75 7.58333,0 11.25,2.91666 3.75,2.83334 3.75,10.41667 l 0,30 3.33333,0 0,-33.25 q 0,-6.25 -4.41667,-9.83333 -4.33333,-3.58334 -10.58333,-3.58334 l -21.66667,0 0,19.91667 q 0,1 3.33334,4.33333 3.33333,3.33334 3.33333,5.66667 l 0,20.08333 -10,0 0,-23 1.5,1.5 q 1.66667,1.83334 1.83333,2.08334 l 0,16.08333 3.33334,0 0,-16.75 z"
         style=""
         id="path3838" />
      <path
         d="m 530.97884,340.37233 q 0,-7.5 5,-12.08334 5.08333,-4.58333 13.33333,-4.58333 l 6.66667,0 q 8,0 13.16667,4.58333 5.16666,4.58334 5.16666,12.08334 l 0,13.33333 -30,0 0,-10 20,0 q 0,-6.16667 -2.83333,-8.25 -2.5,-1.75 -8.91667,-1.75 -6.5,0 -9.08333,2.08333 -2.5,2.08334 -2.5,7.91667 l 0,6.33333 q -0.25,-0.33333 -1.33333,-1.25 -1,-1 -2,-2.33333 l 0,-3.08333 q 0,-7.33334 3.75,-10.16667 3.75,-2.83333 11.16666,-2.83333 7.66667,0 11.33334,2.91666 3.75,2.83334 3.75,10.41667 l 0,3.33333 -20,0 0,3.33334 23.33333,0 0,-9.91667 q 0,-6.08333 -4.16667,-9.75 -4.08333,-3.66667 -10.83333,-3.66667 l -6.66667,0 q -6.75,0 -10.91666,3.58334 -4.08334,3.58333 -4.08334,9.75 l 0,6.66666 q 0,0.91667 3.33334,4.33334 3.33333,3.41666 3.33333,5.66666 0,5.91667 2.5,8 2.58333,2 9.08333,2 6.16667,0 8.58334,-1.5 2.41666,-1.58333 2.91666,-5.16666 l 10.25,0 q 0,7.41666 -5.16666,12.08333 -5.16667,4.58333 -13,4.58333 l -6.83334,0 q -7.25,0 -12.83333,-4.25 -5.5,-4.33333 -5.5,-10.75 l 0,-8 q 1,1 1.66667,1.91667 0.75,0.91667 1,1.25 0.33333,0.33333 0.58333,0.33333 0.0833,0 0.0833,0.0833 l 0,2.66666 q 0,6.25 4.33334,9.83334 4.41666,3.58333 10.66666,3.58333 l 6.83334,0 q 5.58333,0 9.41666,-2.75 3.91667,-2.75 5.08334,-7.25 l -4.08334,0 q -1.58333,3.75 -4.83333,5.25 -3.25,1.41667 -9.16667,1.41667 -8,0 -10.66666,-2.41667 -4.25,-3.91667 -4.25,-10.91667 0,-0.58333 -0.83334,-1.58333 -0.83333,-1.08333 -2.41666,-2.66667 -1.5,-1.58333 -2.08334,-2.25 -1.33333,-1.58333 -1.33333,-3.5 l 0,-6.66666 z"
         style=""
         id="path3840" />
      <path
         d="m 590.97884,349.95566 q -0.16667,-0.25 -1.58333,-1.66667 -1.41667,-1.41666 -1.75,-1.91666 l 0,-16 10,0 0,-3.33334 -10,0 0,-13.33333 -3.33334,0 0,13.33333 -3.33333,0 0,3.33334 3.33333,0 0,16.58333 q 0,0.91667 1.66667,2.58333 1.66667,1.58334 3.33333,3.58334 1.66667,2 1.66667,3.91666 l 0,1.58334 q 0,4.83333 2.5,6.66666 2.5,1.75 9.16667,1.75 l 1.66666,0 0,10 -5.25,0 q -7.75,0 -12.91666,-4.58333 -5.16667,-4.58333 -5.16667,-12.08333 l 0,-6.33334 1.5,1.5 q 1.66667,1.83334 1.83333,2.08334 l 0,2.75 q 0,6.16666 4.25,9.75 4.25,3.58333 10.5,3.58333 l 1.91667,0 0,-3.33333 q -6.08333,-0.16667 -9.75,-2.58334 -3.58333,-2.5 -3.58333,-7.41666 l 0,-3.41667 q 0,-1 -3.33334,-4.33333 -3.33333,-3.33334 -3.33333,-5.66667 l 0,-13.25 -3.33333,0 0,-10 3.33333,0 0,-13.33333 10,0 0,13.33333 10,0 0,10 -10,0 0,16.25 z"
         style=""
         id="path3842" />
      <path
         d="m 670.92676,357.03899 q 0,-0.91666 -3.33334,-4.33333 -3.33333,-3.41667 -3.33333,-5.66667 l 0,-20.25 q 0,-7.83333 5.75,-12.33333 4.91667,-4.08333 12.33333,-4.08333 l 13.75,0 q 7.91667,0.16666 13,4.75 5.16667,4.58333 5.16667,12 l 0,49.91666 -10,0 0,-33.33333 -26.66667,0 0,-10 26.66667,0 0,-3.33333 q 0,-6.16667 -2.83333,-8.25 -2.5,-1.75 -8.83334,-1.75 l -6.66666,0 q -6.58334,0 -9.16667,2.08333 -2.5,2 -2.5,7.75 l 0,19.83333 q -0.16667,-0.25 -1.25,-1.25 -1,-1 -2.08333,-2.33333 l 0,-16.41667 q 0.0833,-7.5 3.83333,-10.25 3.75,-2.75 11.16667,-2.75 l 6.66666,0 q 7.58334,0 11.25,2.83334 3.75,2.83333 3.75,10.33333 l 0,6.83333 -26.66666,0 0,3.33334 26.66666,0 0,33.33333 3.33334,0 0,-46.75 q -0.0833,-6 -4.33334,-9.58333 -4.16666,-3.66667 -10.66666,-3.66667 l -13.58334,0 q -6.5,0 -10.66666,3.58333 -4.08334,3.58334 -4.08334,9.5 l 0,20.25 q 0,0.91667 1.66667,2.58334 1.66667,1.58333 3.33333,3.58333 1.66667,2 1.66667,3.83333 l 0,20 -10,0 0,-22.91666 1.5,1.5 q 1.25,1.25 1.75,1.91666 l 0.0833,0.0833 0,16.08333 3.33334,0 0,-16.66667 z"
         style=""
         id="path3844" />
      <path
         d="m 730.97884,349.95566 q -0.16667,-0.25 -1.58333,-1.66667 -1.41667,-1.41666 -1.75,-1.91666 l 0,-16 10,0 0,-3.33334 -10,0 0,-13.33333 -3.33334,0 0,13.33333 -3.33333,0 0,3.33334 3.33333,0 0,16.58333 q 0,0.91667 1.66667,2.58333 1.66667,1.58334 3.33333,3.58334 1.66667,2 1.66667,3.91666 l 0,1.58334 q 0,4.83333 2.5,6.66666 2.5,1.75 9.16667,1.75 l 1.66666,0 0,10 -5.25,0 q -7.75,0 -12.91666,-4.58333 -5.16667,-4.58333 -5.16667,-12.08333 l 0,-6.33334 1.5,1.5 q 1.66667,1.83334 1.83333,2.08334 l 0,2.75 q 0,6.16666 4.25,9.75 4.25,3.58333 10.5,3.58333 l 1.91667,0 0,-3.33333 q -6.08333,-0.16667 -9.75,-2.58334 -3.58333,-2.5 -3.58333,-7.41666 l 0,-3.41667 q 0,-1 -3.33334,-4.33333 -3.33333,-3.33334 -3.33333,-5.66667 l 0,-13.25 -3.33333,0 0,-10 3.33333,0 0,-13.33333 10,0 0,13.33333 10,0 0,10 -10,0 0,16.25 z"
         style=""
         id="path3846" />
      <path
         d="m 750.97884,340.03899 q 0.0833,-7.25 5.16667,-11.75 5.08333,-4.58333 13.16666,-4.58333 l 6.66667,0 q 8,0 13.16667,4.58333 5.16666,4.58334 5.16666,12.08334 l 0,21.66666 q -0.58333,6.58334 -5.66666,10.83334 -5,4.16666 -12.41667,4.16666 l -6.91667,0 q -7.5,0 -12.66666,-4.16666 -5.08334,-4.25 -5.66667,-10.83334 l 0,-8 1.5,1.5 q 1.33333,1.33334 1.75,2 0.0833,0 0.0833,0.0833 l 0,2.66666 q 0,6.25 4.33334,9.83334 4.41666,3.58333 10.66666,3.58333 l 6.91667,0 q 6.25,0 10.5,-3.58333 4.25,-3.58334 4.25,-9.75 l 0,-19.91667 q 0,-6.08333 -4.16667,-9.75 -4.08333,-3.66667 -10.83333,-3.66667 l -6.66667,0 q -6.75,0 -10.91666,3.58334 -4.08334,3.58333 -4.08334,9.75 l 0,6.66666 q 0,1 3.33334,4.33334 3.33333,3.33333 3.33333,5.66666 0,6.16667 2.83333,8.25 2.5,1.75 8.83334,1.75 6.33333,0 8.83333,-1.75 2.83333,-2.08333 2.83333,-8.25 l 0,-13.33333 q 0,-6.16667 -2.83333,-8.25 -2.5,-1.75 -8.83333,-1.75 -6.33334,0 -8.83334,1.75 -2.83333,2.08333 -2.83333,8.25 l 0,6.33333 q -0.0833,-0.16666 -1.58333,-1.58333 -1.41667,-1.5 -1.75,-1.91667 l 0,-3.16666 q 0.0833,-7.5 3.83333,-10.25 3.75,-2.75 11.16667,-2.75 7.58333,0 11.25,2.91666 3.75,2.83334 3.75,10.41667 l 0,13.33333 q 0,7.58334 -3.75,10.5 -3.66667,2.83334 -11.25,2.83334 -7.41667,0 -11.08334,-2.58334 -3.58333,-2.66666 -3.91666,-9.08333 l 0,-1.66667 q 0,-1 -3.33334,-4.33333 -3.33333,-3.33333 -3.33333,-5.66667 l 0,-7 z"
         style=""
         id="path3848" />
      <path
         d="m 807.64551,356.95566 q 0,-1 -3.33334,-4.33333 -3.33333,-3.33334 -3.33333,-5.66667 l 0,-23.25 45,0 q 7.91667,0 13.08333,4.66667 5.25,4.66666 5.25,12.08333 l 0,36.58333 -10,0 0,-33.33333 q 0,-6.16667 -2.83333,-8.25 -2.75,-1.75 -5.5,-1.75 -8.33333,0 -8.33333,10 l 0,33.33333 -10,0 0,-33.33333 q 0,-5.25 -2,-7.33333 -1.91667,-2.16667 -6.33334,-2.66667 -8.33333,0 -8.33333,10 l 0,6.25 q -0.16667,-0.25 -1.58333,-1.66667 -1.41667,-1.41666 -1.75,-1.91666 l 0,-3.75 q 0.25,-7.41667 4,-9.83334 3.66666,-2.41666 7.66666,-2.41666 3.75,0 7.41667,2.41666 4.25,3.08334 4.25,10.91667 l 0,30 3.33333,0 0,-30 q 0,-8 4,-10.91667 3.33334,-2.41666 7.66667,-2.41666 3.75,0 7.41667,2.41666 4.25,3.08334 4.25,10.91667 l 0,30 3.33333,0 0,-33.33333 q -0.0833,-6.08334 -4.33333,-9.66667 -4.16667,-3.66667 -10.66667,-3.66667 l -41.66667,0 0,19.91667 q 0,1 3.33334,4.33333 3.33333,3.33334 3.33333,5.66667 l 0,20.08333 -10,0 0,-23 1.5,1.5 q 1.66667,1.83334 1.83333,2.08334 l 0,16.08333 3.33334,0 0,-16.75 z"
         style=""
         id="path3850" />
      <path
         d="m 390.92676,457.03899 q 0,-0.91666 -1.66667,-2.5 -1.66667,-1.66666 -3.33333,-3.66666 -1.66667,-2 -1.66667,-3.83334 l 0,-36.66666 9.58333,0 17.08334,19.08333 17.08333,-19.08333 9.58333,0 0,66.66666 -10,0 0,-46.41666 q 0,-2.5 -1,-2.5 -1,0 -1.75,0.83333 l -13.91666,15.5 -13.83334,-15.5 q -0.91666,-0.91667 -1.66666,-0.91667 -0.16667,0 -0.41667,0.16667 -0.25,0.16667 -0.5,0.83333 -0.25,0.58334 -0.25,1.58334 l 0,19.41666 q -0.5,-0.58333 -1.5,-1.5 -1,-1 -1.83333,-2 l 0,-16.16666 q 0,-4.5 3.58333,-5.41667 l 0.41667,-0.0833 q 0.41666,-0.0833 0.66666,-0.0833 2.25,0 3.66667,1.66667 l 11.66667,13 q 9.66666,-10.91667 11.41666,-12.75 1.83334,-1.83333 3.75,-1.91667 2.16667,0 3.5,1.58334 1.33334,1.5 1.33334,4 l 0,43.33333 3.33333,0 0,-60 -4.75,0 -18.58333,20.75 -18.58334,-20.75 -4.75,0 0,33.33333 q 0,0.91667 1.66667,2.58334 1.66667,1.58333 3.33333,3.58333 1.66667,2 1.66667,3.83333 l 0,20 -10,0 0,-23 q 0.33333,0.33334 1.83333,1.91667 1.5,1.5 1.5,1.66667 l 0,16.08333 3.33334,0 0,-16.66667 z"
         style=""
         id="path3852" />
      <path
         d="m 447.59342,460.37233 q 0,6.08333 4.16667,9.75 4.16667,3.58333 10.58333,3.58333 l 21.91667,0 0,-16.66667 q 0,-0.58333 -0.91667,-1.66666 -0.83333,-1.08334 -2.41666,-2.66667 -1.5,-1.58333 -2,-2.16667 -1.33334,-1.58333 -1.33334,-3.5 l 0,-3.33333 q 0,-6.16667 -2.83333,-8.25 -2.5,-1.75 -8.83333,-1.75 l -15,0 0,-10 18.5,0 q 7.83333,0 12.41666,4.08333 5.75,5.16667 5.75,11.75 l 0,10.5 q -0.16666,-0.25 -1.58333,-1.66666 -1.41667,-1.41667 -1.75,-1.91667 l 0,-6.75 q 0,-5.5 -4.16667,-9.08333 -4.16666,-3.58334 -10.66666,-3.58334 l -15.16667,0 0,3.33334 11.66667,0 q 7.41666,0 11.16666,2.75 3.75,2.75 3.83334,10.25 l 0,3.66666 q 0,0.91667 3.33333,4.33334 3.33333,3.41666 3.33333,5.66666 l 0,20 -25.25,0 q -7.66666,0 -12.83333,-4.5 -5.16667,-4.58333 -5.25,-12.16666 0,-7.5 5.25,-12.08334 5.33333,-4.58333 13.08333,-4.58333 l 11.66667,0 0,10 -10,0 q -5.75,0 -7.91667,1.75 -2.08333,1.75 -2.08333,4.91667 0,3.33333 2.41667,5 2.41666,1.66666 9.25,1.66666 6.33333,0 8.83333,-1.75 2.83333,-2.08333 2.83333,-8.25 l 0,-3 q 0.33334,0.0833 1.66667,1.75 1.41667,1.58334 1.66667,1.83334 l 0,1.08333 q 0,6.16667 -4.25,9.25 -3.33334,2.41667 -10.75,2.41667 -7.33334,0 -11.16667,-2.16667 -3.83333,-2.16667 -3.83333,-7.83333 0,-6 4.41666,-8.16667 3.58334,-1.83333 7.25,-1.83333 l 8.33334,0 0,-3.33334 -8.33334,0 q -6.5,0 -10.75,3.75 -4.25,3.66667 -4.25,9.58334 z"
         style=""
         id="path3854" />
      <path
         d="m 494.26009,440.37233 q 0,-7.41667 5,-12 5.08333,-4.66667 13.08333,-4.66667 l 6.91667,0 q 8,0 13.16667,4.58333 5.16666,4.58334 5.16666,12.08334 l -10.33333,0 q -0.58333,-3.5 -2.83333,-5.08334 -2.16667,-1.58333 -8.5,-1.58333 -6.33334,0 -8.83334,1.75 -2.83333,2.08333 -2.83333,8.25 l 0,6.33333 q -0.25,-0.33333 -1.33333,-1.25 -1,-1 -2,-2.33333 l 0,-3.08333 q 0,-7.33334 3.75,-10.16667 3.75,-2.83333 11.25,-2.83333 5.83333,0 9.16666,1.5 3.33334,1.5 4.75,5.16666 l 4,0 q -1,-4.25 -4.66666,-7.08333 -3.66667,-2.91667 -9.91667,-2.91667 l -6.91667,0 q -6.5,0 -10.66666,3.66667 -4.08334,3.58333 -4.08334,9.58333 l 0,6.75 q 0,1 1.66667,2.58334 1.66667,1.58333 3.33333,3.58333 1.66667,1.91667 1.66667,3.83333 0,6.16667 2.83333,8.25 2.5,1.75 8.83334,1.75 4.41666,0 6.83333,-0.91666 2.5,-0.91667 3.25,-2.16667 0.83333,-1.25 1.33333,-3.58333 l 10.25,0 q 0,7.41666 -5.16666,12.08333 -5.08334,4.58333 -13.16667,4.58333 l -6.66667,0 q -7.91666,0 -13.16666,-4.58333 -5.16667,-4.66667 -5.16667,-12.08333 l 0,-6.33334 1.5,1.5 q 1.66667,1.83334 1.83333,2.08334 l 0,2.66666 q 0,6.25 4.33334,9.83334 4.41666,3.58333 10.66666,3.58333 l 6.66667,0 q 6,0 9.75,-2.83333 3.83333,-2.83334 4.91667,-7.16667 l -4.08334,0 q -1.16666,3.33333 -4.41666,5 -3.16667,1.66667 -9.5,1.66667 -7.83334,0 -10.75,-2.41667 -4.25,-3.5 -4.25,-9.25 l 0,-1.66667 q 0,-1 -1.66667,-2.58333 -1.66667,-1.58333 -3.33333,-3.5 -1.66667,-2 -1.66667,-3.91667 l 0,-6.66666 z"
         style=""
         id="path3856" />
      <path
         d="m 550.92676,456.95566 q 0,-0.91667 -3.33334,-4.33333 -3.33333,-3.41667 -3.33333,-5.66667 l 0,-36.58333 10,0 0,13.33333 15,0 q 7.66667,0 12.91667,4.5 5.33333,4.5 5.41666,12.16667 l 0,36.66666 -10,0 0,-33.33333 q 0,-6.16667 -2.83333,-8.25 -2.33333,-1.58333 -8,-1.75 l -1.75,0 q -6,0.16667 -8.41667,2.25 -2.33333,2 -2.33333,7.75 l 0,6.25 q -0.16667,-0.25 -1.58333,-1.66667 -1.41667,-1.41666 -1.75,-1.91666 l 0,-3 q 0.0833,-7.41667 3.58333,-10.08334 3.58333,-2.75 10.33333,-2.91666 l 2.08334,0 q 6.91666,0.16666 10.41666,3 3.58334,2.83333 3.58334,10.33333 l 0,30 3.33333,0 0,-33.25 q 0,-6.25 -4.41667,-9.83333 -4.33333,-3.58334 -10.58333,-3.58334 l -18.33333,0 0,-13.33333 -3.33334,0 0,33.25 q 0,0.91667 1.66667,2.58333 1.66667,1.58334 3.33333,3.58334 1.66667,2 1.66667,3.83333 l 0,20.08333 -10,0 0,-23 1.5,1.5 q 1.66667,1.83334 1.83333,2.08334 l 0,16.08333 3.33334,0 0,-16.75 z"
         style=""
         id="path3858" />
      <path
         d="m 599.26009,420.37233 q -2,0 -3.5,-1.41667 -1.5,-1.5 -1.5,-3.58333 l 0,-5 10,0 0,5 q 0,2.25 -1.5,3.5 -1.33333,1.5 -3.5,1.5 z m 0,-3.33334 q 0.75,0 1.16667,-0.5 0.5,-0.5 0.5,-1.16666 l 0,-1.66667 -3.33334,0 0,1.66667 q 0,0.75 0.5,1.25 0.5,0.41666 1.16667,0.41666 z m 1.66667,40 q 0,-1 -3.33334,-4.33333 -3.33333,-3.33333 -3.33333,-5.66667 l 0,-23.33333 10,0 0,26.33333 q -0.0833,-0.16666 -1.58333,-1.58333 -1.41667,-1.5 -1.75,-1.91667 l 0,-19.5 -3.33334,0 0,20 q 0,1 3.33334,4.33334 3.33333,3.33333 3.33333,5.66666 l 0,20 -10,0 0,-23 1.5,1.5 q 1.83333,1.83334 1.83333,2.08334 l 0,16.08333 3.33334,0 0,-16.66667 z"
         style=""
         id="path3860" />
      <path
         d="m 617.64551,456.95566 q 0,-1 -3.33334,-4.33333 -3.33333,-3.33334 -3.33333,-5.66667 l 0,-23.25 25,0 q 7.66667,0 12.91667,4.5 5.33333,4.5 5.41666,12.16667 l 0,36.66666 -10,0 0,-33.33333 q 0,-6.16667 -2.83333,-8.25 -2.5,-1.75 -8.91667,-1.75 -6.5,0 -9.08333,2.08333 -2.5,2.08334 -2.5,7.91667 l 0,6.25 q -0.16667,-0.25 -1.58333,-1.66667 -1.41667,-1.41666 -1.75,-1.91666 l 0,-3 q 0.0833,-7.5 3.83333,-10.25 3.75,-2.75 11.16667,-2.75 7.58333,0 11.25,2.91666 3.75,2.83334 3.75,10.41667 l 0,30 3.33333,0 0,-33.25 q 0,-6.25 -4.41667,-9.83333 -4.33333,-3.58334 -10.58333,-3.58334 l -21.66667,0 0,19.91667 q 0,1 3.33334,4.33333 3.33333,3.33334 3.33333,5.66667 l 0,20.08333 -10,0 0,-23 1.5,1.5 q 1.66667,1.83334 1.83333,2.08334 l 0,16.08333 3.33334,0 0,-16.75 z"
         style=""
         id="path3862" />
      <path
         d="m 660.97884,440.37233 q 0,-7.5 5,-12.08334 5.08333,-4.58333 13.33333,-4.58333 l 6.66667,0 q 8,0 13.16667,4.58333 5.16666,4.58334 5.16666,12.08334 l 0,13.33333 -30,0 0,-10 20,0 q 0,-6.16667 -2.83333,-8.25 -2.5,-1.75 -8.91667,-1.75 -6.5,0 -9.08333,2.08333 -2.5,2.08334 -2.5,7.91667 l 0,6.33333 q -0.25,-0.33333 -1.33333,-1.25 -1,-1 -2,-2.33333 l 0,-3.08333 q 0,-7.33334 3.75,-10.16667 3.75,-2.83333 11.16666,-2.83333 7.66667,0 11.33334,2.91666 3.75,2.83334 3.75,10.41667 l 0,3.33333 -20,0 0,3.33334 23.33333,0 0,-9.91667 q 0,-6.08333 -4.16667,-9.75 -4.08333,-3.66667 -10.83333,-3.66667 l -6.66667,0 q -6.75,0 -10.91666,3.58334 -4.08334,3.58333 -4.08334,9.75 l 0,6.66666 q 0,0.91667 3.33334,4.33334 3.33333,3.41666 3.33333,5.66666 0,5.91667 2.5,8 2.58333,2 9.08333,2 6.16667,0 8.58334,-1.5 2.41666,-1.58333 2.91666,-5.16666 l 10.25,0 q 0,7.41666 -5.16666,12.08333 -5.16667,4.58333 -13,4.58333 l -6.83334,0 q -7.25,0 -12.83333,-4.25 -5.5,-4.33333 -5.5,-10.75 l 0,-8 q 1,1 1.66667,1.91667 0.75,0.91667 1,1.25 0.33333,0.33333 0.58333,0.33333 0.0833,0 0.0833,0.0833 l 0,2.66666 q 0,6.25 4.33334,9.83334 4.41666,3.58333 10.66666,3.58333 l 6.83334,0 q 5.58333,0 9.41666,-2.75 3.91667,-2.75 5.08334,-7.25 l -4.08334,0 q -1.58333,3.75 -4.83333,5.25 -3.25,1.41667 -9.16667,1.41667 -8,0 -10.66666,-2.41667 -4.25,-3.91667 -4.25,-10.91667 0,-0.58333 -0.83334,-1.58333 -0.83333,-1.08333 -2.41666,-2.66667 -1.5,-1.58333 -2.08334,-2.25 -1.33333,-1.58333 -1.33333,-3.5 l 0,-6.66666 z"
         style=""
         id="path3864" />
    </g>
    <g
       id="g3505"
       transform="matrix(2.2011921,0,0,2.0166016,58.138951,768.98635)">
      <g
         id="g3507">
        <path
           id="path3509"
           d="m 88.007812,102.52197 c 0,3.89746 -3.189453,7.08692 -7.086914,7.08692 l -73.8344722,0 C 3.1889648,109.60889 0,106.41943 0,102.52197 L 0,7.0864258 C 0,3.1889648 3.1889648,0 7.0864258,0 L 80.920899,0 c 3.89746,0 7.086914,3.1889648 7.086914,7.0864258 l 0,95.4355442 z"
           inkscape:connector-curvature="0"
           style="fill:#029346" />
      </g>
      <g
         transform="translate(1.7480469,100.8374)"
         style="font-size:19.541605px;font-family:DejaVuSans-Bold;fill:#ffffff"
         id="text3511">
        <path
           d="m 8.6734956,-6.6792595 q 0.6202169,0.2099196 1.2022667,0.8969291 0.5915917,0.6870096 1.1831827,1.8892763 L 13.015014,0 10.944444,0 9.1219601,-3.6545091 Q 8.415867,-5.085779 7.747941,-5.5533272 7.0895569,-6.0208754 5.944541,-6.0208754 l -2.0991959,0 0,6.0208754 -1.9274434,0 0,-14.245906 4.3510604,0 q 2.4427007,0 3.6449674,1.020972 1.2022665,1.020973 1.2022665,3.082001 0,1.345394 -0.629759,2.2327814 -0.6202165,0.8873873 -1.8129414,1.2308921 z m -4.8281505,-5.9827085 0,5.0571539 2.423617,0 q 1.3931027,0 2.0991959,-0.6393005 0.7156349,-0.6488424 0.7156349,-1.8988184 0,-1.249975 -0.7156349,-1.879734 -0.7060932,-0.639301 -2.0991959,-0.639301 l -2.423617,0 z"
           style="font-size:19.541605px;font-family:DejaVuSans-Bold;fill:#ffffff"
           id="path3867" />
        <path
           d="m 23.692288,-5.7823304 0,0.858762 -8.072362,0 q 0.114501,1.8129418 1.087765,2.7671218 0.982805,0.9446381 2.728954,0.9446381 1.011431,0 1.956069,-0.2480868 0.95418,-0.2480868 1.889276,-0.7442603 l 0,1.66027304 q -0.944638,0.40075557 -1.936985,0.61067516 -0.992347,0.20991958 -2.01332,0.20991958 -2.557202,0 -4.055264,-1.48852068 -1.488521,-1.4885207 -1.488521,-4.0266393 0,-2.6239948 1.412186,-4.1602245 1.421728,-1.5457717 3.826262,-1.5457717 2.156447,0 3.406422,1.3931029 1.259518,1.3835609 1.259518,3.7690107 z m -1.755691,-0.5152571 q -0.01908,-1.4408117 -0.811053,-2.2995737 -0.782428,-0.8587619 -2.080113,-0.8587619 -1.469437,0 -2.356824,0.8301365 -0.877845,0.8301366 -1.011431,2.3377409 l 6.259421,-0.00954 z"
           style="font-size:19.541605px;font-family:DejaVuSans-Bold;fill:#ffffff"
           id="path3869" />
        <path
           d="m 28.272351,-1.6030223 0,5.6678288 -1.765233,0 0,-14.7516215 1.765233,0 0,1.6221057 q 0.553425,-0.9541797 1.393103,-1.4121867 0.84922,-0.467548 2.022861,-0.467548 1.946527,0 3.158336,1.5457717 1.22135,1.5457715 1.22135,4.0648065 0,2.519035 -1.22135,4.0648065 -1.211809,1.54577148 -3.158336,1.54577148 -1.173641,0 -2.022861,-0.45800637 -0.839678,-0.46754816 -1.393103,-1.42172811 z m 5.973167,-3.7308435 q 0,-1.9369853 -0.801512,-3.0342922 -0.791969,-1.1068487 -2.185072,-1.1068487 -1.393102,0 -2.194613,1.1068487 -0.79197,1.0973069 -0.79197,3.0342922 0,1.9369852 0.79197,3.043834 0.801511,1.0973069 2.194613,1.0973069 1.393103,0 2.185072,-1.0973069 0.801512,-1.1068488 0.801512,-3.043834 z"
           style="font-size:19.541605px;font-family:DejaVuSans-Bold;fill:#ffffff"
           id="path3871" />
        <path
           d="m 45.810176,-6.6792595 q 0.620217,0.2099196 1.202267,0.8969291 0.591591,0.6870096 1.183183,1.8892763 L 50.151695,0 48.081124,0 46.258641,-3.6545091 q -0.706093,-1.4312699 -1.374019,-1.8988181 -0.658385,-0.4675482 -1.8034,-0.4675482 l -2.099196,0 0,6.0208754 -1.927444,0 0,-14.245906 4.351061,0 q 2.4427,0 3.644967,1.020972 1.202267,1.020973 1.202267,3.082001 0,1.345394 -0.629759,2.2327814 -0.620217,0.8873873 -1.812942,1.2308921 z m -4.82815,-5.9827085 0,5.0571539 2.423617,0 q 1.393102,0 2.099196,-0.6393005 0.715635,-0.6488424 0.715635,-1.8988184 0,-1.249975 -0.715635,-1.879734 -0.706094,-0.639301 -2.099196,-0.639301 l -2.423617,0 z"
           style="font-size:19.541605px;font-family:DejaVuSans-Bold;fill:#ffffff"
           id="path3873" />
        <path
           d="m 57.00271,-5.372033 q -2.127821,0 -2.948416,0.4866318 -0.820595,0.4866317 -0.820595,1.660273 0,0.9350964 0.610676,1.4885207 0.620217,0.5438826 1.679356,0.5438826 1.459896,0 2.337741,-1.0305143 0.887387,-1.0400562 0.887387,-2.75758 l 0,-0.3912138 -1.746149,0 z m 3.501841,-0.7251768 0,6.0972098 -1.755692,0 0,-1.6221059 q -0.601133,0.97326355 -1.498062,1.44081171 -0.896929,0.45800637 -2.194614,0.45800637 -1.641189,0 -2.614453,-0.91601273 -0.963722,-0.92555455 -0.963722,-2.47132605 0,-1.8034 1.202267,-2.7194128 1.211809,-0.9160127 3.6068,-0.9160127 l 2.461784,0 0,-0.1717524 q 0,-1.2118085 -0.801511,-1.8701927 -0.791969,-0.6679259 -2.232781,-0.6679259 -0.916012,0 -1.784316,0.2194614 -0.868304,0.2194613 -1.669815,0.6583841 l 0,-1.6221054 q 0.963722,-0.372131 1.870193,-0.553425 0.906471,-0.190836 1.765232,-0.190836 2.318658,0 3.463674,1.2022669 1.145016,1.2022667 1.145016,3.6449673 z"
           style="font-size:19.541605px;font-family:DejaVuSans-Bold;fill:#ffffff"
           id="path3875" />
        <path
           d="m 65.828872,-1.6030223 0,5.6678288 -1.765233,0 0,-14.7516215 1.765233,0 0,1.6221057 q 0.553424,-0.9541797 1.393102,-1.4121867 0.849221,-0.467548 2.022862,-0.467548 1.946527,0 3.158335,1.5457717 1.221351,1.5457715 1.221351,4.0648065 0,2.519035 -1.221351,4.0648065 -1.211808,1.54577148 -3.158335,1.54577148 -1.173641,0 -2.022862,-0.45800637 -0.839678,-0.46754816 -1.393102,-1.42172811 z m 5.973166,-3.7308435 q 0,-1.9369853 -0.801511,-3.0342922 -0.791969,-1.1068487 -2.185072,-1.1068487 -1.393103,0 -2.194614,1.1068487 -0.791969,1.0973069 -0.791969,3.0342922 0,1.9369852 0.791969,3.043834 0.801511,1.0973069 2.194614,1.0973069 1.393103,0 2.185072,-1.0973069 0.801511,-1.1068488 0.801511,-3.043834 z"
           style="font-size:19.541605px;font-family:DejaVuSans-Bold;fill:#ffffff"
           id="path3877" />
      </g>
      <path
         id="path3513"
         d="M 44.003906,17.89209 26.859375,35.037598 c -4.387695,4.387695 -7.102539,10.448242 -7.102539,17.144531 0,13.391602 10.856445,24.24707 24.24707,24.24707 13.390625,0 24.247071,-10.855468 24.247071,-24.24707 0,-6.695312 -2.713868,-12.756836 -7.101563,-17.144043 L 44.003906,17.89209 Z"
         inkscape:connector-curvature="0"
         style="fill:#ffffff" />
    </g>
    <g
       id="layer1-7"
       inkscape:label="Layer 1"
       transform="matrix(0.38273815,0,0,0.36132578,742.23539,689.7695)">
      <g
         inkscape:export-ydpi="300.05554"
         inkscape:export-xdpi="300.05554"
         inkscape:export-filename="/home/paulormm/usp/softwarelivre/OSI/OSI_member_card_model_final-300dpi.png"
         transform="matrix(3.1607572,0,0,3.1607572,1289.8039,2829.9529)"
         id="g3879"
         style="display:inline">
        <path
           style="text-anchor:middle;fill:#3fa652;stroke:#21552a;stroke-width:7.37396765;stroke-linejoin:round"
           inkscape:connector-curvature="0"
           d="m -287.05192,-768.95371 m 11.01179,28.68474 a 30.724865,30.724865 0 1 0 -22.02358,0 l -20.69627,53.92828 a 88.487611,88.487611 0 1 1 63.41612,0 z"
           id="path3773"
           inkscape:export-filename="/home/rafael/workspace/logo-osi/3/png/logo396x412.png"
           inkscape:export-xdpi="48.18"
           inkscape:export-ydpi="48.18" />
        <g
           transform="scale(0.99041196,1.0096809)"
           style="font-style:normal;font-weight:normal;font-size:37.00550079px;line-height:125%;font-family:Sans;-inkscape-font-specification:Sans;letter-spacing:0px;word-spacing:0px;display:inline;fill:#20552a;fill-opacity:1;stroke:none"
           id="text7890-3-1">
          <path
             d="m -391.97946,-660.9188 q -2.54051,0 -4.01675,1.99121 -1.47625,1.97405 -1.47625,5.42435 0,3.45029 1.45908,5.4415 1.47624,1.97405 4.03392,1.97405 2.52335,0 3.9996,-1.99121 1.47624,-1.99122 1.47624,-5.42434 0,-3.41597 -1.47624,-5.40718 -1.47625,-2.00838 -3.9996,-2.00838 z m 0,-2.67784 q 4.11976,0 6.47145,2.67784 2.35169,2.67784 2.35169,7.41556 0,4.72055 -2.35169,7.41555 -2.35169,2.67784 -6.47145,2.67784 -4.13691,0 -6.48861,-2.67784 -2.33452,-2.695 -2.33452,-7.41555 0,-4.73772 2.33452,-7.41556 2.3517,-2.67784 6.48861,-2.67784 z"
             style="font-style:normal;font-variant:normal;font-weight:normal;font-stretch:normal;font-size:35.15522385px;font-family:OpenSymbol;-inkscape-font-specification:Sans;fill:#000000;fill-opacity:1"
             id="path3880" />
          <path
             d="m -374.88248,-646.79148 0,10.19639 -3.17564,0 0,-26.53808 3.17564,0 0,2.91816 q 0.99561,-1.71656 2.50618,-2.54051 1.52774,-0.84112 3.63912,-0.84112 3.50179,0 5.68182,2.78083 2.1972,2.78084 2.1972,7.31257 0,4.53172 -2.1972,7.31256 -2.18003,2.78083 -5.68182,2.78083 -2.11138,0 -3.63912,-0.82395 -1.51057,-0.84112 -2.50618,-2.55768 z m 10.74569,-6.71176 q 0,-3.48463 -1.44192,-5.45868 -1.42474,-1.99121 -3.93093,-1.99121 -2.50618,0 -3.94809,1.99121 -1.42475,1.97405 -1.42475,5.45868 0,3.48462 1.42475,5.47583 1.44191,1.97405 3.94809,1.97405 2.50619,0 3.93093,-1.97405 1.44192,-1.99121 1.44192,-5.47583 z"
             style="font-style:normal;font-variant:normal;font-weight:normal;font-stretch:normal;font-size:35.15522385px;font-family:OpenSymbol;-inkscape-font-specification:Sans;fill:#000000;fill-opacity:1"
             id="path3882" />
          <path
             d="m -339.17796,-654.31003 0,1.54491 -14.52213,0 q 0.20599,3.26147 1.95688,4.97803 1.76806,1.6994 4.90938,1.6994 1.81955,0 3.51895,-0.44631 1.71657,-0.4463 3.3988,-1.33892 l 0,2.98682 q -1.6994,0.72096 -3.48463,1.09861 -1.78522,0.37764 -3.62195,0.37764 -4.60039,0 -7.29539,-2.67784 -2.67784,-2.67784 -2.67784,-7.2439 0,-4.72055 2.54051,-7.48422 2.55768,-2.78083 6.88342,-2.78083 3.87944,0 6.12814,2.50618 2.26586,2.48902 2.26586,6.78043 z m -3.15848,-0.92694 q -0.0343,-2.59202 -1.45908,-4.13692 -1.40758,-1.54491 -3.74211,-1.54491 -2.6435,0 -4.23991,1.49341 -1.57924,1.49341 -1.81955,4.20558 l 11.26065,-0.0172 z"
             style="font-style:normal;font-variant:normal;font-weight:normal;font-stretch:normal;font-size:35.15522385px;font-family:OpenSymbol;-inkscape-font-specification:Sans;fill:#000000;fill-opacity:1"
             id="path3884" />
          <path
             d="m -318.01272,-655.51162 0,11.60397 -3.15848,0 0,-11.50098 q 0,-2.72934 -1.06427,-4.08542 -1.06427,-1.35609 -3.19281,-1.35609 -2.55768,0 -4.03392,1.63074 -1.47625,1.63073 -1.47625,4.4459 l 0,10.86585 -3.17564,0 0,-19.22552 3.17564,0 0,2.98682 q 1.13293,-1.73373 2.66067,-2.59201 1.54491,-0.85828 3.55329,-0.85828 3.31297,0 5.01237,2.05988 1.6994,2.04271 1.6994,6.02514 z"
             style="font-style:normal;font-variant:normal;font-weight:normal;font-stretch:normal;font-size:35.15522385px;font-family:OpenSymbol;-inkscape-font-specification:Sans;fill:#000000;fill-opacity:1"
             id="path3886" />
        </g>
        <g
           transform="scale(0.99041196,1.0096809)"
           style="font-style:normal;font-weight:normal;font-size:37.00550079px;line-height:125%;font-family:Sans;-inkscape-font-specification:Sans;letter-spacing:0px;word-spacing:0px;display:inline;fill:#20552a;fill-opacity:1;stroke:none"
           id="text7890-3-1-1">
          <path
             d="m -284.34797,-663.19494 0,2.98683 q -1.33892,-0.68663 -2.78084,-1.02994 -1.44191,-0.34332 -2.98682,-0.34332 -2.35169,0 -3.53612,0.72096 -1.16726,0.72096 -1.16726,2.16287 0,1.0986 0.84111,1.73373 0.84112,0.61796 3.38163,1.18443 l 1.08144,0.24032 q 3.36446,0.72095 4.77205,2.04271 1.42474,1.30459 1.42474,3.65628 0,2.67784 -2.12853,4.23991 -2.11138,1.56207 -5.81915,1.56207 -1.54491,0 -3.22714,-0.30898 -1.66507,-0.29181 -3.51896,-0.89261 l 0,-3.26147 q 1.75089,0.90978 3.45029,1.37325 1.6994,0.44631 3.36447,0.44631 2.23153,0 3.43312,-0.75529 1.2016,-0.77245 1.2016,-2.16287 0,-1.28742 -0.87545,-1.97405 -0.85828,-0.68663 -3.7936,-1.32175 l -1.0986,-0.25749 q -2.93533,-0.61796 -4.23992,-1.88822 -1.30459,-1.28742 -1.30459,-3.51895 0,-2.71217 1.92256,-4.18842 1.92255,-1.47624 5.45867,-1.47624 1.75089,0 3.2958,0.25748 1.54491,0.25749 2.8495,0.77245 z"
             style="font-style:normal;font-variant:normal;font-weight:normal;font-stretch:normal;font-size:35.15522385px;font-family:OpenSymbol;-inkscape-font-specification:Sans;fill:#000000;fill-opacity:1"
             id="path3889" />
          <path
             d="m -270.82145,-661.54703 q -2.54052,0 -4.01676,1.99121 -1.47625,1.97405 -1.47625,5.42434 0,3.45029 1.45908,5.44151 1.47625,1.97405 4.03393,1.97405 2.52335,0 3.99959,-1.99122 1.47625,-1.99121 1.47625,-5.42434 0,-3.41596 -1.47625,-5.40718 -1.47624,-2.00837 -3.99959,-2.00837 z m 0,-2.67784 q 4.11975,0 6.47144,2.67784 2.35169,2.67783 2.35169,7.41555 0,4.72055 -2.35169,7.41556 -2.35169,2.67783 -6.47144,2.67783 -4.13692,0 -6.48861,-2.67783 -2.33453,-2.69501 -2.33453,-7.41556 0,-4.73772 2.33453,-7.41555 2.35169,-2.67784 6.48861,-2.67784 z"
             style="font-style:normal;font-variant:normal;font-weight:normal;font-stretch:normal;font-size:35.15522385px;font-family:OpenSymbol;-inkscape-font-specification:Sans;fill:#000000;fill-opacity:1"
             id="path3891" />
          <path
             d="m -257.10611,-652.1231 0,-11.6383 3.15848,0 0,11.51814 q 0,2.72934 1.06427,4.10259 1.06427,1.35608 3.19281,1.35608 2.55768,0 4.03392,-1.63073 1.49341,-1.63074 1.49341,-4.4459 l 0,-10.90018 3.15848,0 0,19.22551 -3.15848,0 0,-2.95249 q -1.1501,1.7509 -2.67784,2.60918 -1.51057,0.84111 -3.51895,0.84111 -3.31297,0 -5.02954,-2.05987 -1.71656,-2.05988 -1.71656,-6.02514 z m 7.94769,-12.10177 0,0 z"
             style="font-style:normal;font-variant:normal;font-weight:normal;font-stretch:normal;font-size:35.15522385px;font-family:OpenSymbol;-inkscape-font-specification:Sans;fill:#000000;fill-opacity:1"
             id="path3893" />
          <path
             d="m -223.32414,-660.80891 q -0.53213,-0.30898 -1.16726,-0.44631 -0.61796,-0.15449 -1.37325,-0.15449 -2.67784,0 -4.11975,1.7509 -1.42475,1.73372 -1.42475,4.9952 l 0,10.12772 -3.17564,0 0,-19.22551 3.17564,0 0,2.98682 q 0.9956,-1.7509 2.59201,-2.59201 1.5964,-0.85828 3.87943,-0.85828 0.32615,0 0.72096,0.0515 0.39481,0.0343 0.87545,0.12016 l 0.0172,3.24431 z"
             style="font-style:normal;font-variant:normal;font-weight:normal;font-stretch:normal;font-size:35.15522385px;font-family:OpenSymbol;-inkscape-font-specification:Sans;fill:#000000;fill-opacity:1"
             id="path3895" />
          <path
             d="m -206.89662,-663.02328 0,2.95249 q -1.33892,-0.73812 -2.695,-1.0986 -1.33892,-0.37764 -2.71217,-0.37764 -3.07265,0 -4.77205,1.95688 -1.6994,1.93971 -1.6994,5.45867 0,3.51896 1.6994,5.47584 1.6994,1.93972 4.77205,1.93972 1.37325,0 2.71217,-0.36048 1.35608,-0.37765 2.695,-1.11577 l 0,2.91816 q -1.32175,0.61796 -2.7465,0.92694 -1.40758,0.30898 -3.00399,0.30898 -4.3429,0 -6.90058,-2.72933 -2.55768,-2.72934 -2.55768,-7.36406 0,-4.70338 2.57484,-7.39839 2.59201,-2.695 7.08941,-2.695 1.45908,0 2.8495,0.30898 1.39041,0.29181 2.695,0.89261 z"
             style="font-style:normal;font-variant:normal;font-weight:normal;font-stretch:normal;font-size:35.15522385px;font-family:OpenSymbol;-inkscape-font-specification:Sans;fill:#000000;fill-opacity:1"
             id="path3897" />
          <path
             d="m -184.9246,-654.93826 0,1.5449 -14.52213,0 q 0.20599,3.26147 1.95688,4.97804 1.76806,1.6994 4.90937,1.6994 1.81956,0 3.51896,-0.44631 1.71656,-0.44631 3.39879,-1.33892 l 0,2.98682 q -1.69939,0.72096 -3.48462,1.0986 -1.78523,0.37764 -3.62195,0.37764 -4.60039,0 -7.29539,-2.67783 -2.67784,-2.67784 -2.67784,-7.2439 0,-4.72055 2.54051,-7.48422 2.55768,-2.78083 6.88342,-2.78083 3.87943,0 6.12813,2.50618 2.26587,2.48902 2.26587,6.78043 z m -3.15848,-0.92695 q -0.0343,-2.59201 -1.45908,-4.13692 -1.40758,-1.5449 -3.74211,-1.5449 -2.64351,0 -4.23991,1.49341 -1.57924,1.49341 -1.81956,4.20558 l 11.26066,-0.0172 z"
             style="font-style:normal;font-variant:normal;font-weight:normal;font-stretch:normal;font-size:35.15522385px;font-family:OpenSymbol;-inkscape-font-specification:Sans;fill:#000000;fill-opacity:1"
             id="path3899" />
        </g>
        <g
           transform="scale(0.99041196,1.0096809)"
           style="font-style:normal;font-weight:normal;font-size:37.00550079px;line-height:125%;font-family:Sans;-inkscape-font-specification:Sans;letter-spacing:0px;word-spacing:0px;display:inline;fill:#20552a;fill-opacity:1;stroke:none"
           id="text7890-3-1-1-4">
          <path
             d="m -365.16091,-628.65575 3.15848,0 0,19.22551 -3.15848,0 0,-19.22551 z m 0,-7.48422 3.15848,0 0,3.9996 -3.15848,0 0,-3.9996 z"
             style="font-style:normal;font-variant:normal;font-weight:normal;font-stretch:normal;font-size:35.15522385px;font-family:OpenSymbol;-inkscape-font-specification:Sans;fill:#000000;fill-opacity:1"
             id="path3902" />
          <path
             d="m -339.42962,-621.03421 0,11.60397 -3.15848,0 0,-11.50097 q 0,-2.72934 -1.06427,-4.08542 -1.06427,-1.35609 -3.1928,-1.35609 -2.55768,0 -4.03393,1.63074 -1.47624,1.63073 -1.47624,4.4459 l 0,10.86584 -3.17565,0 0,-19.22551 3.17565,0 0,2.98682 q 1.13293,-1.73373 2.66067,-2.59201 1.54491,-0.85828 3.55329,-0.85828 3.31296,0 5.01236,2.05987 1.6994,2.04272 1.6994,6.02514 z"
             style="font-style:normal;font-variant:normal;font-weight:normal;font-stretch:normal;font-size:35.15522385px;font-family:OpenSymbol;-inkscape-font-specification:Sans;fill:#000000;fill-opacity:1"
             id="path3904" />
          <path
             d="m -333.0955,-628.65575 3.15847,0 0,19.22551 -3.15847,0 0,-19.22551 z m 0,-7.48422 3.15847,0 0,3.9996 -3.15847,0 0,-3.9996 z"
             style="font-style:normal;font-variant:normal;font-weight:normal;font-stretch:normal;font-size:35.15522385px;font-family:OpenSymbol;-inkscape-font-specification:Sans;fill:#000000;fill-opacity:1"
             id="path3906" />
          <path
             d="m -320.22127,-634.11442 0,5.45867 6.50577,0 0,2.45469 -6.50577,0 0,10.4367 q 0,2.3517 0.63513,3.02116 0.65229,0.66946 2.62634,0.66946 l 3.2443,0 0,2.6435 -3.2443,0 q -3.65628,0 -5.0467,-1.35608 -1.39042,-1.37325 -1.39042,-4.97804 l 0,-10.4367 -2.31736,0 0,-2.45469 2.31736,0 0,-5.45867 3.17565,0 z"
             style="font-style:normal;font-variant:normal;font-weight:normal;font-stretch:normal;font-size:35.15522385px;font-family:OpenSymbol;-inkscape-font-specification:Sans;fill:#000000;fill-opacity:1"
             id="path3908" />
          <path
             d="m -309.54425,-628.65575 3.15848,0 0,19.22551 -3.15848,0 0,-19.22551 z m 0,-7.48422 3.15848,0 0,3.9996 -3.15848,0 0,-3.9996 z"
             style="font-style:normal;font-variant:normal;font-weight:normal;font-stretch:normal;font-size:35.15522385px;font-family:OpenSymbol;-inkscape-font-specification:Sans;fill:#000000;fill-opacity:1"
             id="path3910" />
          <path
             d="m -291.05686,-619.09449 q -3.82793,0 -5.30418,0.87545 -1.47624,0.87544 -1.47624,2.98682 0,1.68223 1.0986,2.67784 1.11577,0.97844 3.02115,0.97844 2.62634,0 4.20558,-1.85389 1.59641,-1.87105 1.59641,-4.96087 l 0,-0.70379 -3.14132,0 z m 6.29979,-1.30459 0,10.96884 -3.15847,0 0,-2.91816 q -1.08144,1.7509 -2.69501,2.59202 -1.61357,0.82395 -3.94809,0.82395 -2.95249,0 -4.70339,-1.6479 -1.73373,-1.66507 -1.73373,-4.4459 0,-3.24431 2.16287,-4.89221 2.18004,-1.6479 6.48861,-1.6479 l 4.42874,0 0,-0.30898 q 0,-2.18004 -1.44192,-3.36447 -1.42474,-1.20159 -4.01676,-1.20159 -1.6479,0 -3.20997,0.39481 -1.56207,0.39481 -3.00399,1.18443 l 0,-2.91816 q 1.73373,-0.66946 3.36447,-0.99561 1.63073,-0.34331 3.17564,-0.34331 4.17125,0 6.23113,2.16287 2.05987,2.16287 2.05987,6.55727 z"
             style="font-style:normal;font-variant:normal;font-weight:normal;font-stretch:normal;font-size:35.15522385px;font-family:OpenSymbol;-inkscape-font-specification:Sans;fill:#000000;fill-opacity:1"
             id="path3912" />
          <path
             d="m -275.10997,-634.11442 0,5.45867 6.50577,0 0,2.45469 -6.50577,0 0,10.4367 q 0,2.3517 0.63512,3.02116 0.6523,0.66946 2.62635,0.66946 l 3.2443,0 0,2.6435 -3.2443,0 q -3.65628,0 -5.0467,-1.35608 -1.39042,-1.37325 -1.39042,-4.97804 l 0,-10.4367 -2.31736,0 0,-2.45469 2.31736,0 0,-5.45867 3.17565,0 z"
             style="font-style:normal;font-variant:normal;font-weight:normal;font-stretch:normal;font-size:35.15522385px;font-family:OpenSymbol;-inkscape-font-specification:Sans;fill:#000000;fill-opacity:1"
             id="path3914" />
          <path
             d="m -264.43295,-628.65575 3.15848,0 0,19.22551 -3.15848,0 0,-19.22551 z m 0,-7.48422 3.15848,0 0,3.9996 -3.15848,0 0,-3.9996 z"
             style="font-style:normal;font-variant:normal;font-weight:normal;font-stretch:normal;font-size:35.15522385px;font-family:OpenSymbol;-inkscape-font-specification:Sans;fill:#000000;fill-opacity:1"
             id="path3916" />
          <path
             d="m -256.94873,-628.65575 3.3473,0 6.00797,16.1357 6.00797,-16.1357 3.3473,0 -7.20956,19.22551 -4.29141,0 -7.20957,-19.22551 z"
             style="font-style:normal;font-variant:normal;font-weight:normal;font-stretch:normal;font-size:35.15522385px;font-family:OpenSymbol;-inkscape-font-specification:Sans;fill:#000000;fill-opacity:1"
             id="path3918" />
          <path
             d="m -217.43344,-619.83261 0,1.5449 -14.52213,0 q 0.20599,3.26148 1.95689,4.97804 1.76806,1.6994 4.90937,1.6994 1.81956,0 3.51895,-0.44631 1.71657,-0.44631 3.3988,-1.33892 l 0,2.98682 q -1.6994,0.72096 -3.48462,1.0986 -1.78523,0.37765 -3.62195,0.37765 -4.60039,0 -7.2954,-2.67784 -2.67784,-2.67784 -2.67784,-7.2439 0,-4.72055 2.54052,-7.48422 2.55768,-2.78083 6.88342,-2.78083 3.87943,0 6.12813,2.50618 2.26586,2.48902 2.26586,6.78043 z m -3.15848,-0.92695 q -0.0343,-2.59201 -1.45907,-4.13692 -1.40759,-1.5449 -3.74211,-1.5449 -2.64351,0 -4.23992,1.49341 -1.57923,1.49341 -1.81955,4.20558 l 11.26065,-0.0172 z"
             style="font-style:normal;font-variant:normal;font-weight:normal;font-stretch:normal;font-size:35.15522385px;font-family:OpenSymbol;-inkscape-font-specification:Sans;fill:#000000;fill-opacity:1"
             id="path3920" />
        </g>
        <g
           inkscape:export-ydpi="48.18"
           inkscape:export-xdpi="48.18"
           inkscape:export-filename="/home/rafael/workspace/logo-osi/3/png/logo396x412.png"
           transform="translate(-21.225811,-1.0146812)"
           id="g3797">
          <path
             transform="matrix(0.33912491,0,0,0.33852655,-402.53969,-908.3754)"
             style="fill:none;stroke:#000000;stroke-width:6.66513872;stroke-miterlimit:4;stroke-dasharray:none;stroke-opacity:1"
             d="m 669.28572,646.64789 a 23.571428,23.571411 0 0 1 -23.57143,23.57141 23.571428,23.571411 0 0 1 -23.57142,-23.57141 23.571428,23.571411 0 0 1 23.57142,-23.57141 23.571428,23.571411 0 0 1 23.57143,23.57141 z"
             id="path3015" />
          <g
             style="font-style:normal;font-variant:normal;font-weight:bold;font-stretch:normal;font-size:12.65519524px;line-height:125%;font-family:OpenSymbol;-inkscape-font-specification:'OpenSymbol Bold';letter-spacing:0px;word-spacing:0px;fill:#000000;fill-opacity:1;stroke:none"
             id="text3793">
            <path
               d="m -183.7552,-690.46513 q 0.74769,0 1.06902,-0.27807 0.3275,-0.27807 0.3275,-0.91454 0,-0.63028 -0.3275,-0.90217 -0.32133,-0.27189 -1.06902,-0.27189 l -1.00105,0 0,2.36667 1.00105,0 z m -1.00105,1.64369 0,3.4913 -2.37902,0 0,-9.22569 3.63342,0 q 1.82289,0 2.66946,0.61175 0.85274,0.61175 0.85274,1.93412 0,0.91454 -0.44491,1.50157 -0.43873,0.58703 -1.32855,0.8651 0.48817,0.11123 0.87128,0.50671 0.3893,0.38929 0.78477,1.18642 l 1.29147,2.62002 -2.53351,0 -1.12463,-2.29252 q -0.33986,-0.69208 -0.69208,-0.94543 -0.34604,-0.25335 -0.92689,-0.25335 l -0.67355,0 z"
               style=""
               id="path3924" />
          </g>
        </g>
      </g>
    </g>
  </g>
</svg>
