solid OpenSCAD_Model
  facet normal -1 0 0
    outer loop
      vertex 0.5 -2.5 -6
      vertex 0.5 -2.5 1.46447
      vertex 0.5 -0.519615 -6
    endloop
  endfacet
  facet normal -1 0 0
    outer loop
      vertex 0.5 -0.519615 -5
      vertex 0.5 -2.5 1.46447
      vertex 0.5 2.03553 6
    endloop
  endfacet
  facet normal -1 0 0
    outer loop
      vertex 0.5 0.519615 -6
      vertex 0.5 7.5 6
      vertex 0.5 7.5 -6
    endloop
  endfacet
  facet normal -1 0 0
    outer loop
      vertex 0.5 0.519615 -5
      vertex 0.5 7.5 6
      vertex 0.5 0.519615 -6
    endloop
  endfacet
  facet normal -1 0 0
    outer loop
      vertex 0.5 -0.519615 -6
      vertex 0.5 -2.5 1.46447
      vertex 0.5 -0.519615 -5
    endloop
  endfacet
  facet normal -1 0 0
    outer loop
      vertex 0.5 -0.519615 -5
      vertex 0.5 2.03553 6
      vertex 0.5 7.5 6
    endloop
  endfacet
  facet normal -1 0 0
    outer loop
      vertex 0.5 -0.519615 -5
      vertex 0.5 7.5 6
      vertex 0.5 0.519615 -5
    endloop
  endfacet
  facet normal 0 -1 0
    outer loop
      vertex 0.5 -2.5 1.46447
      vertex 0.5 -2.5 -6
      vertex 1.64338 -2.5 -6
    endloop
  endfacet
  facet normal 0 -1 0
    outer loop
      vertex 5.35662 -2.5 -5
      vertex 0.5 -2.5 1.46447
      vertex 1.64338 -2.5 -5
    endloop
  endfacet
  facet normal 0 -1 0
    outer loop
      vertex 1.64338 -2.5 -5
      vertex 0.5 -2.5 1.46447
      vertex 1.64338 -2.5 -6
    endloop
  endfacet
  facet normal 0 -1 0
    outer loop
      vertex 10.1434 -2.5 -6
      vertex 0.5 -2.5 1.46447
      vertex 5.35662 -2.5 -5
    endloop
  endfacet
  facet normal 0 -1 0
    outer loop
      vertex 10.1434 -2.5 -6
      vertex 5.35662 -2.5 -5
      vertex 5.35662 -2.5 -6
    endloop
  endfacet
  facet normal 0 -1 0
    outer loop
      vertex 10.1434 -2.5 -5
      vertex 0.5 -2.5 1.46447
      vertex 10.1434 -2.5 -6
    endloop
  endfacet
  facet normal 0 -1 0
    outer loop
      vertex 13.8566 -2.5 -5
      vertex 0.5 -2.5 1.46447
      vertex 10.1434 -2.5 -5
    endloop
  endfacet
  facet normal 0 -1 0
    outer loop
      vertex 15.5 -2.5 1.46447
      vertex 0.5 -2.5 1.46447
      vertex 13.8566 -2.5 -5
    endloop
  endfacet
  facet normal 0 -1 0
    outer loop
      vertex 15.5 -2.5 -6
      vertex 13.8566 -2.5 -5
      vertex 13.8566 -2.5 -6
    endloop
  endfacet
  facet normal 0 -1 0
    outer loop
      vertex 15.5 -2.5 1.46447
      vertex 13.8566 -2.5 -5
      vertex 15.5 -2.5 -6
    endloop
  endfacet
  facet normal 0 0 -1
    outer loop
      vertex 1.64338 -2.5 -6
      vertex 0.5 -2.5 -6
      vertex 0.5 -0.519615 -6
    endloop
  endfacet
  facet normal 0.866025 0.5 0
    outer loop
      vertex 0.5 -0.519615 -5
      vertex 1.64338 -2.5 -5
      vertex 1.64338 -2.5 -6
    endloop
  endfacet
  facet normal 0.866025 0.5 0
    outer loop
      vertex 0.5 -0.519615 -6
      vertex 0.5 -0.519615 -5
      vertex 1.64338 -2.5 -6
    endloop
  endfacet
  facet normal 0 0 -1
    outer loop
      vertex 1.64338 2.5 -5
      vertex 5.35662 2.5 -5
      vertex 0.5 0.519615 -5
    endloop
  endfacet
  facet normal 0 0 -1
    outer loop
      vertex 0.5 0.519615 -5
      vertex 5.35662 2.5 -5
      vertex 6.8 0 -5
    endloop
  endfacet
  facet normal 0 0 -1
    outer loop
      vertex 0.5 0.519615 -5
      vertex 6.8 0 -5
      vertex 5.35662 -2.5 -5
    endloop
  endfacet
  facet normal 0 0 -1
    outer loop
      vertex 0.5 0.519615 -5
      vertex 5.35662 -2.5 -5
      vertex 1.64338 -2.5 -5
    endloop
  endfacet
  facet normal 0 0 -1
    outer loop
      vertex 0.5 0.519615 -5
      vertex 1.64338 -2.5 -5
      vertex 0.5 -0.519615 -5
    endloop
  endfacet
  facet normal 0.866025 -0.5 0
    outer loop
      vertex 1.64338 2.5 -6
      vertex 1.64338 2.5 -5
      vertex 0.5 0.519615 -5
    endloop
  endfacet
  facet normal 0.866025 -0.5 0
    outer loop
      vertex 0.5 0.519615 -6
      vertex 1.64338 2.5 -6
      vertex 0.5 0.519615 -5
    endloop
  endfacet
  facet normal 0 0 -1
    outer loop
      vertex 0.5 0.519615 -6
      vertex 0.5 7.5 -6
      vertex 1.64338 2.5 -6
    endloop
  endfacet
  facet normal 0 0 -1
    outer loop
      vertex 15.3 0 -6
      vertex 15.5 -2.5 -6
      vertex 13.8566 -2.5 -6
    endloop
  endfacet
  facet normal 0 0 -1
    outer loop
      vertex 1.64338 2.5 -6
      vertex 0.5 7.5 -6
      vertex 15.5 7.5 -6
    endloop
  endfacet
  facet normal 0 0 -1
    outer loop
      vertex 15.5 7.5 -6
      vertex 15.5 -2.5 -6
      vertex 15.3 0 -6
    endloop
  endfacet
  facet normal 0 0 -1
    outer loop
      vertex 10.1434 -2.5 -6
      vertex 6.8 0 -6
      vertex 8.7 0 -6
    endloop
  endfacet
  facet normal 0 0 -1
    outer loop
      vertex 15.5 7.5 -6
      vertex 15.3 0 -6
      vertex 13.8566 2.5 -6
    endloop
  endfacet
  facet normal 0 0 -1
    outer loop
      vertex 15.5 7.5 -6
      vertex 13.8566 2.5 -6
      vertex 10.1434 2.5 -6
    endloop
  endfacet
  facet normal 0 0 -1
    outer loop
      vertex 5.35662 2.5 -6
      vertex 10.1434 2.5 -6
      vertex 8.7 0 -6
    endloop
  endfacet
  facet normal 0 0 -1
    outer loop
      vertex 6.8 0 -6
      vertex 10.1434 -2.5 -6
      vertex 5.35662 -2.5 -6
    endloop
  endfacet
  facet normal 0 0 -1
    outer loop
      vertex 5.35662 2.5 -6
      vertex 8.7 0 -6
      vertex 6.8 0 -6
    endloop
  endfacet
  facet normal 0 0 -1
    outer loop
      vertex 15.5 7.5 -6
      vertex 10.1434 2.5 -6
      vertex 5.35662 2.5 -6
    endloop
  endfacet
  facet normal 0 0 -1
    outer loop
      vertex 1.64338 2.5 -6
      vertex 15.5 7.5 -6
      vertex 5.35662 2.5 -6
    endloop
  endfacet
  facet normal 0 1 0
    outer loop
      vertex 0.5 7.5 -6
      vertex 0.5 7.5 6
      vertex 15.5 7.5 -6
    endloop
  endfacet
  facet normal 0 1 0
    outer loop
      vertex 15.5 7.5 -6
      vertex 0.5 7.5 6
      vertex 15.5 7.5 6
    endloop
  endfacet
  facet normal 0 0 1
    outer loop
      vertex 0.5 7.5 6
      vertex 0.5 2.03553 6
      vertex 15.5 2.03553 6
    endloop
  endfacet
  facet normal 0 0 1
    outer loop
      vertex 15.5 7.5 6
      vertex 0.5 7.5 6
      vertex 15.5 2.03553 6
    endloop
  endfacet
  facet normal 0 -0.707107 0.707107
    outer loop
      vertex 15.5 -2.5 1.46447
      vertex 15.5 2.03553 6
      vertex 0.5 2.03553 6
    endloop
  endfacet
  facet normal 0 -0.707107 0.707107
    outer loop
      vertex 0.5 -2.5 1.46447
      vertex 15.5 -2.5 1.46447
      vertex 0.5 2.03553 6
    endloop
  endfacet
  facet normal 1 0 0
    outer loop
      vertex 15.5 -2.5 1.46447
      vertex 15.5 -2.5 -6
      vertex 15.5 7.5 -6
    endloop
  endfacet
  facet normal 1 0 0
    outer loop
      vertex 15.5 2.03553 6
      vertex 15.5 -2.5 1.46447
      vertex 15.5 7.5 6
    endloop
  endfacet
  facet normal 1 0 0
    outer loop
      vertex 15.5 7.5 6
      vertex 15.5 -2.5 1.46447
      vertex 15.5 7.5 -6
    endloop
  endfacet
  facet normal -0.866025 0.5 0
    outer loop
      vertex 15.3 0 -5
      vertex 15.3 0 -6
      vertex 13.8566 -2.5 -5
    endloop
  endfacet
  facet normal -0.866025 0.5 0
    outer loop
      vertex 13.8566 -2.5 -5
      vertex 15.3 0 -6
      vertex 13.8566 -2.5 -6
    endloop
  endfacet
  facet normal 0 0 -1
    outer loop
      vertex 13.8566 2.5 -5
      vertex 15.3 0 -5
      vertex 10.1434 2.5 -5
    endloop
  endfacet
  facet normal 0 0 -1
    outer loop
      vertex 10.1434 2.5 -5
      vertex 15.3 0 -5
      vertex 13.8566 -2.5 -5
    endloop
  endfacet
  facet normal 0 0 -1
    outer loop
      vertex 10.1434 2.5 -5
      vertex 13.8566 -2.5 -5
      vertex 10.1434 -2.5 -5
    endloop
  endfacet
  facet normal 0 0 -1
    outer loop
      vertex 10.1434 2.5 -5
      vertex 10.1434 -2.5 -5
      vertex 8.7 0 -5
    endloop
  endfacet
  facet normal 0.866025 0.5 0
    outer loop
      vertex 8.7 0 -5
      vertex 10.1434 -2.5 -5
      vertex 10.1434 -2.5 -6
    endloop
  endfacet
  facet normal 0.866025 0.5 0
    outer loop
      vertex 8.7 0 -6
      vertex 8.7 0 -5
      vertex 10.1434 -2.5 -6
    endloop
  endfacet
  facet normal -0.866025 0.5 0
    outer loop
      vertex 6.8 0 -5
      vertex 6.8 0 -6
      vertex 5.35662 -2.5 -5
    endloop
  endfacet
  facet normal -0.866025 0.5 0
    outer loop
      vertex 5.35662 -2.5 -5
      vertex 6.8 0 -6
      vertex 5.35662 -2.5 -6
    endloop
  endfacet
  facet normal -0.866025 -0.5 0
    outer loop
      vertex 6.8 0 -5
      vertex 5.35662 2.5 -5
      vertex 6.8 0 -6
    endloop
  endfacet
  facet normal -0.866025 -0.5 0
    outer loop
      vertex 6.8 0 -6
      vertex 5.35662 2.5 -5
      vertex 5.35662 2.5 -6
    endloop
  endfacet
  facet normal 0 -1 0
    outer loop
      vertex 1.64338 2.5 -5
      vertex 1.64338 2.5 -6
      vertex 5.35662 2.5 -6
    endloop
  endfacet
  facet normal 0 -1 0
    outer loop
      vertex 5.35662 2.5 -5
      vertex 1.64338 2.5 -5
      vertex 5.35662 2.5 -6
    endloop
  endfacet
  facet normal 0.866025 -0.5 0
    outer loop
      vertex 10.1434 2.5 -6
      vertex 10.1434 2.5 -5
      vertex 8.7 0 -5
    endloop
  endfacet
  facet normal 0.866025 -0.5 0
    outer loop
      vertex 8.7 0 -6
      vertex 10.1434 2.5 -6
      vertex 8.7 0 -5
    endloop
  endfacet
  facet normal 0 -1 0
    outer loop
      vertex 10.1434 2.5 -5
      vertex 10.1434 2.5 -6
      vertex 13.8566 2.5 -6
    endloop
  endfacet
  facet normal 0 -1 0
    outer loop
      vertex 13.8566 2.5 -5
      vertex 10.1434 2.5 -5
      vertex 13.8566 2.5 -6
    endloop
  endfacet
  facet normal -0.866025 -0.5 0
    outer loop
      vertex 15.3 0 -5
      vertex 13.8566 2.5 -5
      vertex 15.3 0 -6
    endloop
  endfacet
  facet normal -0.866025 -0.5 0
    outer loop
      vertex 15.3 0 -6
      vertex 13.8566 2.5 -5
      vertex 13.8566 2.5 -6
    endloop
  endfacet
  facet normal 0 0 -1
    outer loop
      vertex 10.4 0 -0.5
      vertex 10.6144 0.8 -0.5
      vertex 10.6144 -0.8 -0.5
    endloop
  endfacet
  facet normal 0 0 -1
    outer loop
      vertex 10.6144 -0.8 -0.5
      vertex 10.6144 0.8 -0.5
      vertex 11.2 1.38564 -0.5
    endloop
  endfacet
  facet normal 0 0 -1
    outer loop
      vertex 10.6144 -0.8 -0.5
      vertex 11.2 1.38564 -0.5
      vertex 12 1.6 -0.5
    endloop
  endfacet
  facet normal 0 0 -1
    outer loop
      vertex 10.6144 -0.8 -0.5
      vertex 12 1.6 -0.5
      vertex 12.8 1.38564 -0.5
    endloop
  endfacet
  facet normal 0 0 -1
    outer loop
      vertex 10.6144 -0.8 -0.5
      vertex 12.8 1.38564 -0.5
      vertex 13.3856 0.8 -0.5
    endloop
  endfacet
  facet normal 0 0 -1
    outer loop
      vertex 10.6144 -0.8 -0.5
      vertex 13.3856 0.8 -0.5
      vertex 13.6 0 -0.5
    endloop
  endfacet
  facet normal 0 0 -1
    outer loop
      vertex 10.6144 -0.8 -0.5
      vertex 13.6 0 -0.5
      vertex 13.3856 -0.8 -0.5
    endloop
  endfacet
  facet normal 0 0 -1
    outer loop
      vertex 10.6144 -0.8 -0.5
      vertex 13.3856 -0.8 -0.5
      vertex 12.8 -1.38564 -0.5
    endloop
  endfacet
  facet normal 0 0 -1
    outer loop
      vertex 10.6144 -0.8 -0.5
      vertex 12.8 -1.38564 -0.5
      vertex 12 -1.6 -0.5
    endloop
  endfacet
  facet normal 0 0 -1
    outer loop
      vertex 10.6144 -0.8 -0.5
      vertex 12 -1.6 -0.5
      vertex 11.2 -1.38564 -0.5
    endloop
  endfacet
  facet normal -0.965926 0.258819 0
    outer loop
      vertex 10.4 0 -0.5
      vertex 10.4 0 0.5
      vertex 10.6144 0.8 -0.5
    endloop
  endfacet
  facet normal -0.965926 0.258819 0
    outer loop
      vertex 10.6144 0.8 -0.5
      vertex 10.4 0 0.5
      vertex 10.6144 0.8 0.5
    endloop
  endfacet
  facet normal -0.965926 -0.258819 0
    outer loop
      vertex 10.4 0 -0.5
      vertex 10.6144 -0.8 -0.5
      vertex 10.4 0 0.5
    endloop
  endfacet
  facet normal -0.965926 -0.258819 0
    outer loop
      vertex 10.4 0 0.5
      vertex 10.6144 -0.8 -0.5
      vertex 10.6144 -0.8 0.5
    endloop
  endfacet
  facet normal -0.707107 -0.707107 0
    outer loop
      vertex 10.6144 -0.8 0.5
      vertex 10.6144 -0.8 -0.5
      vertex 11.2 -1.38564 -0.5
    endloop
  endfacet
  facet normal -0.707107 -0.707107 0
    outer loop
      vertex 11.2 -1.38564 0.5
      vertex 10.6144 -0.8 0.5
      vertex 11.2 -1.38564 -0.5
    endloop
  endfacet
  facet normal -0.258819 -0.965926 0
    outer loop
      vertex 11.2 -1.38564 0.5
      vertex 11.2 -1.38564 -0.5
      vertex 12 -1.6 -0.5
    endloop
  endfacet
  facet normal -0.258819 -0.965926 0
    outer loop
      vertex 12 -1.6 0.5
      vertex 11.2 -1.38564 0.5
      vertex 12 -1.6 -0.5
    endloop
  endfacet
  facet normal 0.258819 -0.965926 0
    outer loop
      vertex 12 -1.6 0.5
      vertex 12 -1.6 -0.5
      vertex 12.8 -1.38564 -0.5
    endloop
  endfacet
  facet normal 0.258819 -0.965926 0
    outer loop
      vertex 12.8 -1.38564 0.5
      vertex 12 -1.6 0.5
      vertex 12.8 -1.38564 -0.5
    endloop
  endfacet
  facet normal 0.707107 -0.707107 0
    outer loop
      vertex 12.8 -1.38564 0.5
      vertex 12.8 -1.38564 -0.5
      vertex 13.3856 -0.8 -0.5
    endloop
  endfacet
  facet normal 0.707107 -0.707107 0
    outer loop
      vertex 13.3856 -0.8 0.5
      vertex 12.8 -1.38564 0.5
      vertex 13.3856 -0.8 -0.5
    endloop
  endfacet
  facet normal 0.965926 -0.258819 0
    outer loop
      vertex 13.3856 -0.8 0.5
      vertex 13.3856 -0.8 -0.5
      vertex 13.6 0 -0.5
    endloop
  endfacet
  facet normal 0.965926 -0.258819 0
    outer loop
      vertex 13.6 0 0.5
      vertex 13.3856 -0.8 0.5
      vertex 13.6 0 -0.5
    endloop
  endfacet
  facet normal 0.965926 0.258819 0
    outer loop
      vertex 13.6 0 -0.5
      vertex 13.3856 0.8 -0.5
      vertex 13.3856 0.8 0.5
    endloop
  endfacet
  facet normal 0.965926 0.258819 0
    outer loop
      vertex 13.6 0 0.5
      vertex 13.6 0 -0.5
      vertex 13.3856 0.8 0.5
    endloop
  endfacet
  facet normal 0.707107 0.707107 0
    outer loop
      vertex 12.8 1.38564 -0.5
      vertex 12.8 1.38564 0.5
      vertex 13.3856 0.8 -0.5
    endloop
  endfacet
  facet normal 0.707107 0.707107 0
    outer loop
      vertex 13.3856 0.8 -0.5
      vertex 12.8 1.38564 0.5
      vertex 13.3856 0.8 0.5
    endloop
  endfacet
  facet normal 0.258819 0.965926 0
    outer loop
      vertex 12 1.6 -0.5
      vertex 12 1.6 0.5
      vertex 12.8 1.38564 -0.5
    endloop
  endfacet
  facet normal 0.258819 0.965926 0
    outer loop
      vertex 12.8 1.38564 -0.5
      vertex 12 1.6 0.5
      vertex 12.8 1.38564 0.5
    endloop
  endfacet
  facet normal -0.258819 0.965926 0
    outer loop
      vertex 11.2 1.38564 -0.5
      vertex 11.2 1.38564 0.5
      vertex 12 1.6 -0.5
    endloop
  endfacet
  facet normal -0.258819 0.965926 0
    outer loop
      vertex 12 1.6 -0.5
      vertex 11.2 1.38564 0.5
      vertex 12 1.6 0.5
    endloop
  endfacet
  facet normal -0.707107 0.707107 0
    outer loop
      vertex 10.6144 0.8 -0.5
      vertex 10.6144 0.8 0.5
      vertex 11.2 1.38564 -0.5
    endloop
  endfacet
  facet normal -0.707107 0.707107 0
    outer loop
      vertex 11.2 1.38564 -0.5
      vertex 10.6144 0.8 0.5
      vertex 11.2 1.38564 0.5
    endloop
  endfacet
  facet normal 0 0 1
    outer loop
      vertex 10.6144 0.8 0.5
      vertex 10.4 0 0.5
      vertex 10.6144 -0.8 0.5
    endloop
  endfacet
  facet normal 0 0 1
    outer loop
      vertex 12 -1.6 0.5
      vertex 10.6144 0.8 0.5
      vertex 11.2 -1.38564 0.5
    endloop
  endfacet
  facet normal 0 0 1
    outer loop
      vertex 11.2 -1.38564 0.5
      vertex 10.6144 0.8 0.5
      vertex 10.6144 -0.8 0.5
    endloop
  endfacet
  facet normal 0 0 1
    outer loop
      vertex 12.8 -1.38564 0.5
      vertex 10.6144 0.8 0.5
      vertex 12 -1.6 0.5
    endloop
  endfacet
  facet normal 0 0 1
    outer loop
      vertex 13.3856 -0.8 0.5
      vertex 10.6144 0.8 0.5
      vertex 12.8 -1.38564 0.5
    endloop
  endfacet
  facet normal 0 0 1
    outer loop
      vertex 13.6 0 0.5
      vertex 10.6144 0.8 0.5
      vertex 13.3856 -0.8 0.5
    endloop
  endfacet
  facet normal 0 0 1
    outer loop
      vertex 13.3856 0.8 0.5
      vertex 10.6144 0.8 0.5
      vertex 13.6 0 0.5
    endloop
  endfacet
  facet normal 0 0 1
    outer loop
      vertex 12.8 1.38564 0.5
      vertex 10.6144 0.8 0.5
      vertex 13.3856 0.8 0.5
    endloop
  endfacet
  facet normal 0 0 1
    outer loop
      vertex 12 1.6 0.5
      vertex 10.6144 0.8 0.5
      vertex 12.8 1.38564 0.5
    endloop
  endfacet
  facet normal 0 0 1
    outer loop
      vertex 11.2 1.38564 0.5
      vertex 10.6144 0.8 0.5
      vertex 12 1.6 0.5
    endloop
  endfacet
  facet normal 0 0 -1
    outer loop
      vertex 1.9 0 -0.5
      vertex 2.11436 0.8 -0.5
      vertex 2.11436 -0.8 -0.5
    endloop
  endfacet
  facet normal 0 0 -1
    outer loop
      vertex 2.11436 -0.8 -0.5
      vertex 2.11436 0.8 -0.5
      vertex 2.7 1.38564 -0.5
    endloop
  endfacet
  facet normal 0 0 -1
    outer loop
      vertex 2.11436 -0.8 -0.5
      vertex 2.7 1.38564 -0.5
      vertex 3.5 1.6 -0.5
    endloop
  endfacet
  facet normal 0 0 -1
    outer loop
      vertex 2.11436 -0.8 -0.5
      vertex 3.5 1.6 -0.5
      vertex 4.3 1.38564 -0.5
    endloop
  endfacet
  facet normal 0 0 -1
    outer loop
      vertex 2.11436 -0.8 -0.5
      vertex 4.3 1.38564 -0.5
      vertex 4.88564 0.8 -0.5
    endloop
  endfacet
  facet normal 0 0 -1
    outer loop
      vertex 2.11436 -0.8 -0.5
      vertex 4.88564 0.8 -0.5
      vertex 5.1 0 -0.5
    endloop
  endfacet
  facet normal 0 0 -1
    outer loop
      vertex 2.11436 -0.8 -0.5
      vertex 5.1 0 -0.5
      vertex 4.88564 -0.8 -0.5
    endloop
  endfacet
  facet normal 0 0 -1
    outer loop
      vertex 2.11436 -0.8 -0.5
      vertex 4.88564 -0.8 -0.5
      vertex 4.3 -1.38564 -0.5
    endloop
  endfacet
  facet normal 0 0 -1
    outer loop
      vertex 2.11436 -0.8 -0.5
      vertex 4.3 -1.38564 -0.5
      vertex 3.5 -1.6 -0.5
    endloop
  endfacet
  facet normal 0 0 -1
    outer loop
      vertex 2.11436 -0.8 -0.5
      vertex 3.5 -1.6 -0.5
      vertex 2.7 -1.38564 -0.5
    endloop
  endfacet
  facet normal -0.965926 0.258819 0
    outer loop
      vertex 1.9 0 -0.5
      vertex 1.9 0 0.5
      vertex 2.11436 0.8 -0.5
    endloop
  endfacet
  facet normal -0.965926 0.258819 0
    outer loop
      vertex 2.11436 0.8 -0.5
      vertex 1.9 0 0.5
      vertex 2.11436 0.8 0.5
    endloop
  endfacet
  facet normal -0.965926 -0.258819 0
    outer loop
      vertex 1.9 0 -0.5
      vertex 2.11436 -0.8 -0.5
      vertex 1.9 0 0.5
    endloop
  endfacet
  facet normal -0.965926 -0.258819 0
    outer loop
      vertex 1.9 0 0.5
      vertex 2.11436 -0.8 -0.5
      vertex 2.11436 -0.8 0.5
    endloop
  endfacet
  facet normal -0.707107 -0.707107 0
    outer loop
      vertex 2.11436 -0.8 0.5
      vertex 2.11436 -0.8 -0.5
      vertex 2.7 -1.38564 -0.5
    endloop
  endfacet
  facet normal -0.707107 -0.707107 0
    outer loop
      vertex 2.7 -1.38564 0.5
      vertex 2.11436 -0.8 0.5
      vertex 2.7 -1.38564 -0.5
    endloop
  endfacet
  facet normal -0.258819 -0.965926 0
    outer loop
      vertex 2.7 -1.38564 0.5
      vertex 2.7 -1.38564 -0.5
      vertex 3.5 -1.6 -0.5
    endloop
  endfacet
  facet normal -0.258819 -0.965926 0
    outer loop
      vertex 3.5 -1.6 0.5
      vertex 2.7 -1.38564 0.5
      vertex 3.5 -1.6 -0.5
    endloop
  endfacet
  facet normal 0.258819 -0.965926 0
    outer loop
      vertex 3.5 -1.6 0.5
      vertex 3.5 -1.6 -0.5
      vertex 4.3 -1.38564 -0.5
    endloop
  endfacet
  facet normal 0.258819 -0.965926 0
    outer loop
      vertex 4.3 -1.38564 0.5
      vertex 3.5 -1.6 0.5
      vertex 4.3 -1.38564 -0.5
    endloop
  endfacet
  facet normal 0.707107 -0.707107 0
    outer loop
      vertex 4.3 -1.38564 0.5
      vertex 4.3 -1.38564 -0.5
      vertex 4.88564 -0.8 -0.5
    endloop
  endfacet
  facet normal 0.707107 -0.707107 0
    outer loop
      vertex 4.88564 -0.8 0.5
      vertex 4.3 -1.38564 0.5
      vertex 4.88564 -0.8 -0.5
    endloop
  endfacet
  facet normal 0.965926 -0.258819 0
    outer loop
      vertex 4.88564 -0.8 0.5
      vertex 4.88564 -0.8 -0.5
      vertex 5.1 0 -0.5
    endloop
  endfacet
  facet normal 0.965926 -0.258819 0
    outer loop
      vertex 5.1 0 0.5
      vertex 4.88564 -0.8 0.5
      vertex 5.1 0 -0.5
    endloop
  endfacet
  facet normal 0.965926 0.258819 0
    outer loop
      vertex 5.1 0 -0.5
      vertex 4.88564 0.8 -0.5
      vertex 4.88564 0.8 0.5
    endloop
  endfacet
  facet normal 0.965926 0.258819 0
    outer loop
      vertex 5.1 0 0.5
      vertex 5.1 0 -0.5
      vertex 4.88564 0.8 0.5
    endloop
  endfacet
  facet normal 0.707107 0.707107 0
    outer loop
      vertex 4.3 1.38564 -0.5
      vertex 4.3 1.38564 0.5
      vertex 4.88564 0.8 -0.5
    endloop
  endfacet
  facet normal 0.707107 0.707107 0
    outer loop
      vertex 4.88564 0.8 -0.5
      vertex 4.3 1.38564 0.5
      vertex 4.88564 0.8 0.5
    endloop
  endfacet
  facet normal 0.258819 0.965926 0
    outer loop
      vertex 3.5 1.6 -0.5
      vertex 3.5 1.6 0.5
      vertex 4.3 1.38564 -0.5
    endloop
  endfacet
  facet normal 0.258819 0.965926 0
    outer loop
      vertex 4.3 1.38564 -0.5
      vertex 3.5 1.6 0.5
      vertex 4.3 1.38564 0.5
    endloop
  endfacet
  facet normal -0.258819 0.965926 0
    outer loop
      vertex 2.7 1.38564 -0.5
      vertex 2.7 1.38564 0.5
      vertex 3.5 1.6 -0.5
    endloop
  endfacet
  facet normal -0.258819 0.965926 0
    outer loop
      vertex 3.5 1.6 -0.5
      vertex 2.7 1.38564 0.5
      vertex 3.5 1.6 0.5
    endloop
  endfacet
  facet normal -0.707107 0.707107 0
    outer loop
      vertex 2.11436 0.8 -0.5
      vertex 2.11436 0.8 0.5
      vertex 2.7 1.38564 -0.5
    endloop
  endfacet
  facet normal -0.707107 0.707107 0
    outer loop
      vertex 2.7 1.38564 -0.5
      vertex 2.11436 0.8 0.5
      vertex 2.7 1.38564 0.5
    endloop
  endfacet
  facet normal 0 0 1
    outer loop
      vertex 2.11436 0.8 0.5
      vertex 1.9 0 0.5
      vertex 2.11436 -0.8 0.5
    endloop
  endfacet
  facet normal 0 0 1
    outer loop
      vertex 3.5 -1.6 0.5
      vertex 2.11436 0.8 0.5
      vertex 2.7 -1.38564 0.5
    endloop
  endfacet
  facet normal 0 0 1
    outer loop
      vertex 2.7 -1.38564 0.5
      vertex 2.11436 0.8 0.5
      vertex 2.11436 -0.8 0.5
    endloop
  endfacet
  facet normal 0 0 1
    outer loop
      vertex 4.3 -1.38564 0.5
      vertex 2.11436 0.8 0.5
      vertex 3.5 -1.6 0.5
    endloop
  endfacet
  facet normal 0 0 1
    outer loop
      vertex 4.88564 -0.8 0.5
      vertex 2.11436 0.8 0.5
      vertex 4.3 -1.38564 0.5
    endloop
  endfacet
  facet normal 0 0 1
    outer loop
      vertex 5.1 0 0.5
      vertex 2.11436 0.8 0.5
      vertex 4.88564 -0.8 0.5
    endloop
  endfacet
  facet normal 0 0 1
    outer loop
      vertex 4.88564 0.8 0.5
      vertex 2.11436 0.8 0.5
      vertex 5.1 0 0.5
    endloop
  endfacet
  facet normal 0 0 1
    outer loop
      vertex 4.3 1.38564 0.5
      vertex 2.11436 0.8 0.5
      vertex 4.88564 0.8 0.5
    endloop
  endfacet
  facet normal 0 0 1
    outer loop
      vertex 3.5 1.6 0.5
      vertex 2.11436 0.8 0.5
      vertex 4.3 1.38564 0.5
    endloop
  endfacet
  facet normal 0 0 1
    outer loop
      vertex 2.7 1.38564 0.5
      vertex 2.11436 0.8 0.5
      vertex 3.5 1.6 0.5
    endloop
  endfacet
endsolid OpenSCAD_Model
