<?xml version="1.0" encoding="UTF-8" standalone="no"?>
<!-- Created with Inkscape (http://www.inkscape.org/) -->

<svg
   xmlns:dc="http://purl.org/dc/elements/1.1/"
   xmlns:cc="http://creativecommons.org/ns#"
   xmlns:rdf="http://www.w3.org/1999/02/22-rdf-syntax-ns#"
   xmlns:svg="http://www.w3.org/2000/svg"
   xmlns="http://www.w3.org/2000/svg"
   xmlns:sodipodi="http://sodipodi.sourceforge.net/DTD/sodipodi-0.dtd"
   xmlns:inkscape="http://www.inkscape.org/namespaces/inkscape"
   width="210mm"
   height="297mm"
   viewBox="0 0 744.09448819 1052.3622047"
   id="svg2"
   version="1.1"
   inkscape:version="0.91 r13725"
   sodipodi:docname="quadrato_10cm.svg">
  <defs
     id="defs4" />
  <sodipodi:namedview
     id="base"
     pagecolor="#ffffff"
     bordercolor="#666666"
     borderopacity="1.0"
     inkscape:pageopacity="0.0"
     inkscape:pageshadow="2"
     inkscape:zoom="1"
     inkscape:cx="361.00909"
     inkscape:cy="512.28571"
     inkscape:document-units="px"
     inkscape:current-layer="layer1"
     showgrid="false"
     inkscape:window-width="1366"
     inkscape:window-height="702"
     inkscape:window-x="0"
     inkscape:window-y="27"
     inkscape:window-maximized="1" />
  <metadata
     id="metadata7">
    <rdf:RDF>
      <cc:Work
         rdf:about="">
        <dc:format>image/svg+xml</dc:format>
        <dc:type
           rdf:resource="http://purl.org/dc/dcmitype/StillImage" />
        <dc:title />
      </cc:Work>
    </rdf:RDF>
  </metadata>
  <g
     inkscape:label="Livello 1"
     inkscape:groupmode="layer"
     id="layer1">
    <path
       style="color:#000000;font-style:normal;font-variant:normal;font-weight:normal;font-stretch:normal;font-size:medium;line-height:normal;font-family:sans-serif;text-indent:0;text-align:start;text-decoration:none;text-decoration-line:none;text-decoration-style:solid;text-decoration-color:#000000;letter-spacing:normal;word-spacing:normal;text-transform:none;direction:ltr;block-progression:tb;writing-mode:lr-tb;baseline-shift:baseline;text-anchor:start;white-space:normal;clip-rule:nonzero;display:inline;overflow:visible;visibility:visible;opacity:1;isolation:auto;mix-blend-mode:normal;color-interpolation:sRGB;color-interpolation-filters:linearRGB;solid-color:#000000;solid-opacity:1;fill:#000000;fill-opacity:1;fill-rule:nonzero;stroke:none;stroke-width:7.08661413;stroke-linecap:butt;stroke-linejoin:miter;stroke-miterlimit:4;stroke-dasharray:none;stroke-dashoffset:0;stroke-opacity:1;color-rendering:auto;image-rendering:auto;shape-rendering:auto;text-rendering:auto;enable-background:accumulate"
       d="m 231.45703,417.81836 0,3.54297 0,357.875 361.41797,0 0,-361.41797 -361.41797,0 z m 7.08594,7.08789 347.24414,0 0,347.24414 -347.24414,0 0,-347.24414 z"
       id="rect3338"
       inkscape:connector-curvature="0" />
    <flowRoot
       xml:space="preserve"
       id="flowRoot4140"
       style="font-style:normal;font-weight:normal;font-size:40px;line-height:125%;font-family:sans-serif;letter-spacing:0px;word-spacing:0px;fill:#000000;fill-opacity:1;stroke:none;stroke-width:1px;stroke-linecap:butt;stroke-linejoin:miter;stroke-opacity:1"><flowRegion
         id="flowRegion4142"><rect
           id="rect4144"
           width="310"
           height="104"
           x="263"
           y="443.36221" /></flowRegion><flowPara
         id="flowPara4146">Quadrato</flowPara><flowPara
         id="flowPara4148">10cm di lato</flowPara></flowRoot>    <path
       style="color:#000000;font-style:normal;font-variant:normal;font-weight:normal;font-stretch:normal;font-size:medium;line-height:normal;font-family:sans-serif;text-indent:0;text-align:start;text-decoration:none;text-decoration-line:none;text-decoration-style:solid;text-decoration-color:#000000;letter-spacing:normal;word-spacing:normal;text-transform:none;direction:ltr;block-progression:tb;writing-mode:lr-tb;baseline-shift:baseline;text-anchor:start;white-space:normal;clip-rule:nonzero;display:inline;overflow:visible;visibility:visible;opacity:1;isolation:auto;mix-blend-mode:normal;color-interpolation:sRGB;color-interpolation-filters:linearRGB;solid-color:#000000;solid-opacity:1;fill:#000000;fill-opacity:1;fill-rule:nonzero;stroke:none;stroke-width:7.08661413;stroke-linecap:butt;stroke-linejoin:miter;stroke-miterlimit:4;stroke-dasharray:none;stroke-dashoffset:0;stroke-opacity:1;color-rendering:auto;image-rendering:auto;shape-rendering:auto;text-rendering:auto;enable-background:accumulate"
       d="m 335.8418,569.83398 c -27.33438,-0.59643 -51.81555,16.94603 -60.03711,43.02149 -8.22156,26.07546 1.77079,54.48795 24.5039,69.67773 22.73312,15.18978 52.80567,13.54899 73.75,-4.02539 l 2.71485,-2.27734 -2.27735,-2.71485 -33.70507,-40.16992 54.07226,-14.49023 -0.91797,-3.42188 c -7.07634,-26.40926 -30.76914,-45.00317 -58.10351,-45.59961 z m -0.1543,7.08399 c 23.01447,0.50218 42.90241,15.4452 50.2168,37.00195 l -57.69336,15.45899 38.39258,45.75586 c -18.35602,13.46267 -43.21715,14.29498 -62.35743,1.50585 -20.14012,-13.4572 -28.96543,-38.55305 -21.68164,-61.65429 7.2838,-23.10124 28.90649,-38.59677 53.12305,-38.06836 z"
       id="path4150"
       inkscape:connector-curvature="0" />
    <path
       style="color:#000000;font-style:normal;font-variant:normal;font-weight:normal;font-stretch:normal;font-size:medium;line-height:normal;font-family:sans-serif;text-indent:0;text-align:start;text-decoration:none;text-decoration-line:none;text-decoration-style:solid;text-decoration-color:#000000;letter-spacing:normal;word-spacing:normal;text-transform:none;direction:ltr;block-progression:tb;writing-mode:lr-tb;baseline-shift:baseline;text-anchor:start;white-space:normal;clip-rule:nonzero;display:inline;overflow:visible;visibility:visible;opacity:1;isolation:auto;mix-blend-mode:normal;color-interpolation:sRGB;color-interpolation-filters:linearRGB;solid-color:#000000;solid-opacity:1;fill:#000000;fill-opacity:1;fill-rule:nonzero;stroke:none;stroke-width:7.08661413;stroke-linecap:butt;stroke-linejoin:miter;stroke-miterlimit:4;stroke-dasharray:none;stroke-dashoffset:0;stroke-opacity:1;color-rendering:auto;image-rendering:auto;shape-rendering:auto;text-rendering:auto;enable-background:accumulate"
       d="m 326.5,591.81836 c -9.08709,0 -17.04297,6.44371 -17.04297,15.04297 0,8.59925 7.95588,15.04492 17.04297,15.04492 9.08709,0 17.04297,-6.44567 17.04297,-15.04492 0,-8.59926 -7.95588,-15.04297 -17.04297,-15.04297 z m 0,7.08789 c 5.82459,0 9.95703,3.85178 9.95703,7.95508 0,4.10329 -4.13244,7.95703 -9.95703,7.95703 -5.82459,0 -9.95703,-3.85374 -9.95703,-7.95703 0,-4.1033 4.13244,-7.95508 9.95703,-7.95508 z"
       id="path4152"
       inkscape:connector-curvature="0" />
    <path
       style="color:#000000;font-style:normal;font-variant:normal;font-weight:normal;font-stretch:normal;font-size:medium;line-height:normal;font-family:sans-serif;text-indent:0;text-align:start;text-decoration:none;text-decoration-line:none;text-decoration-style:solid;text-decoration-color:#000000;letter-spacing:normal;word-spacing:normal;text-transform:none;direction:ltr;block-progression:tb;writing-mode:lr-tb;baseline-shift:baseline;text-anchor:start;white-space:normal;clip-rule:nonzero;display:inline;overflow:visible;visibility:visible;opacity:1;isolation:auto;mix-blend-mode:normal;color-interpolation:sRGB;color-interpolation-filters:linearRGB;solid-color:#000000;solid-opacity:1;fill:#000000;fill-opacity:1;fill-rule:nonzero;stroke:none;stroke-width:7.08661413;stroke-linecap:butt;stroke-linejoin:miter;stroke-miterlimit:4;stroke-dasharray:none;stroke-dashoffset:0;stroke-opacity:1;color-rendering:auto;image-rendering:auto;shape-rendering:auto;text-rendering:auto;enable-background:accumulate"
       d="m 421,624.81836 c -9.09465,0 -16.54297,7.44832 -16.54297,16.54297 0,9.09465 7.44832,16.54492 16.54297,16.54492 9.09465,0 16.54297,-7.45027 16.54297,-16.54492 0,-9.09465 -7.44832,-16.54297 -16.54297,-16.54297 z m 0,7.08789 c 5.26476,0 9.45703,4.19032 9.45703,9.45508 0,5.26475 -4.19227,9.45703 -9.45703,9.45703 -5.26476,0 -9.45703,-4.19228 -9.45703,-9.45703 0,-5.26476 4.19227,-9.45508 9.45703,-9.45508 z"
       id="path4154"
       inkscape:connector-curvature="0" />
    <path
       style="color:#000000;font-style:normal;font-variant:normal;font-weight:normal;font-stretch:normal;font-size:medium;line-height:normal;font-family:sans-serif;text-indent:0;text-align:start;text-decoration:none;text-decoration-line:none;text-decoration-style:solid;text-decoration-color:#000000;letter-spacing:normal;word-spacing:normal;text-transform:none;direction:ltr;block-progression:tb;writing-mode:lr-tb;baseline-shift:baseline;text-anchor:start;white-space:normal;clip-rule:nonzero;display:inline;overflow:visible;visibility:visible;opacity:1;isolation:auto;mix-blend-mode:normal;color-interpolation:sRGB;color-interpolation-filters:linearRGB;solid-color:#000000;solid-opacity:1;fill:#000000;fill-opacity:1;fill-rule:nonzero;stroke:none;stroke-width:7.08661413;stroke-linecap:butt;stroke-linejoin:miter;stroke-miterlimit:4;stroke-dasharray:none;stroke-dashoffset:0;stroke-opacity:1;color-rendering:auto;image-rendering:auto;shape-rendering:auto;text-rendering:auto;enable-background:accumulate"
       d="m 471,638.81836 c -8.8185,0 -16.04297,7.22446 -16.04297,16.04297 0,8.8185 7.22447,16.04492 16.04297,16.04492 8.8185,0 16.04297,-7.22642 16.04297,-16.04492 0,-8.81851 -7.22447,-16.04297 -16.04297,-16.04297 z m 0,7.08789 c 4.98861,0 8.95703,3.96646 8.95703,8.95508 0,4.98861 -3.96842,8.95703 -8.95703,8.95703 -4.98861,0 -8.95703,-3.96842 -8.95703,-8.95703 0,-4.98862 3.96842,-8.95508 8.95703,-8.95508 z"
       id="path4156"
       inkscape:connector-curvature="0" />
    <path
       style="color:#000000;font-style:normal;font-variant:normal;font-weight:normal;font-stretch:normal;font-size:medium;line-height:normal;font-family:sans-serif;text-indent:0;text-align:start;text-decoration:none;text-decoration-line:none;text-decoration-style:solid;text-decoration-color:#000000;letter-spacing:normal;word-spacing:normal;text-transform:none;direction:ltr;block-progression:tb;writing-mode:lr-tb;baseline-shift:baseline;text-anchor:start;white-space:normal;clip-rule:nonzero;display:inline;overflow:visible;visibility:visible;opacity:1;isolation:auto;mix-blend-mode:normal;color-interpolation:sRGB;color-interpolation-filters:linearRGB;solid-color:#000000;solid-opacity:1;fill:#000000;fill-opacity:1;fill-rule:nonzero;stroke:none;stroke-width:7.08661413;stroke-linecap:butt;stroke-linejoin:miter;stroke-miterlimit:4;stroke-dasharray:none;stroke-dashoffset:0;stroke-opacity:1;color-rendering:auto;image-rendering:auto;shape-rendering:auto;text-rendering:auto;enable-background:accumulate"
       d="m 517.5,623.81836 c -9.09465,0 -16.54297,7.44832 -16.54297,16.54297 0,9.09465 7.44832,16.54492 16.54297,16.54492 9.09465,0 16.54297,-7.45027 16.54297,-16.54492 0,-9.09465 -7.44832,-16.54297 -16.54297,-16.54297 z m 0,7.08789 c 5.26476,0 9.45703,4.19032 9.45703,9.45508 0,5.26475 -4.19227,9.45703 -9.45703,9.45703 -5.26476,0 -9.45703,-4.19228 -9.45703,-9.45703 0,-5.26476 4.19227,-9.45508 9.45703,-9.45508 z"
       id="path4158"
       inkscape:connector-curvature="0" />
    <path
       style="color:#000000;font-style:normal;font-variant:normal;font-weight:normal;font-stretch:normal;font-size:medium;line-height:normal;font-family:sans-serif;text-indent:0;text-align:start;text-decoration:none;text-decoration-line:none;text-decoration-style:solid;text-decoration-color:#000000;letter-spacing:normal;word-spacing:normal;text-transform:none;direction:ltr;block-progression:tb;writing-mode:lr-tb;baseline-shift:baseline;text-anchor:start;white-space:normal;clip-rule:nonzero;display:inline;overflow:visible;visibility:visible;opacity:1;isolation:auto;mix-blend-mode:normal;color-interpolation:sRGB;color-interpolation-filters:linearRGB;solid-color:#000000;solid-opacity:1;fill:#000000;fill-opacity:1;fill-rule:nonzero;stroke:none;stroke-width:7.08661413;stroke-linecap:butt;stroke-linejoin:miter;stroke-miterlimit:4;stroke-dasharray:none;stroke-dashoffset:0;stroke-opacity:1;color-rendering:auto;image-rendering:auto;shape-rendering:auto;text-rendering:auto;enable-background:accumulate"
       d="m 539,663.81836 c -9.92307,0 -18.04297,8.11989 -18.04297,18.04297 0,9.92307 8.1199,18.04492 18.04297,18.04492 9.92307,0 18.04297,-8.12185 18.04297,-18.04492 0,-9.92308 -8.1199,-18.04297 -18.04297,-18.04297 z m 0,7.08789 c 6.09318,0 10.95703,4.86189 10.95703,10.95508 0,6.09318 -4.86385,10.95703 -10.95703,10.95703 -6.09318,0 -10.95703,-4.86385 -10.95703,-10.95703 0,-6.09319 4.86385,-10.95508 10.95703,-10.95508 z"
       id="path4160"
       inkscape:connector-curvature="0" />
    <path
       style="color:#000000;font-style:normal;font-variant:normal;font-weight:normal;font-stretch:normal;font-size:medium;line-height:normal;font-family:sans-serif;text-indent:0;text-align:start;text-decoration:none;text-decoration-line:none;text-decoration-style:solid;text-decoration-color:#000000;letter-spacing:normal;word-spacing:normal;text-transform:none;direction:ltr;block-progression:tb;writing-mode:lr-tb;baseline-shift:baseline;text-anchor:start;white-space:normal;clip-rule:nonzero;display:inline;overflow:visible;visibility:visible;opacity:1;isolation:auto;mix-blend-mode:normal;color-interpolation:sRGB;color-interpolation-filters:linearRGB;solid-color:#000000;solid-opacity:1;fill:#000000;fill-opacity:1;fill-rule:nonzero;stroke:none;stroke-width:7.08661413;stroke-linecap:butt;stroke-linejoin:miter;stroke-miterlimit:4;stroke-dasharray:none;stroke-dashoffset:0;stroke-opacity:1;color-rendering:auto;image-rendering:auto;shape-rendering:auto;text-rendering:auto;enable-background:accumulate"
       d="m 468,696.81836 c -13.23678,0 -24.04297,10.80619 -24.04297,24.04297 0,13.23678 10.80619,24.04492 24.04297,24.04492 13.23678,0 24.04297,-10.80814 24.04297,-24.04492 0,-13.23678 -10.80619,-24.04297 -24.04297,-24.04297 z m 0,7.08789 c 9.40689,0 16.95703,7.54819 16.95703,16.95508 0,9.40689 -7.55014,16.95703 -16.95703,16.95703 -9.40689,0 -16.95703,-7.55014 -16.95703,-16.95703 0,-9.40689 7.55014,-16.95508 16.95703,-16.95508 z"
       id="path4162"
       inkscape:connector-curvature="0" />
    <path
       style="color:#000000;font-style:normal;font-variant:normal;font-weight:normal;font-stretch:normal;font-size:medium;line-height:normal;font-family:sans-serif;text-indent:0;text-align:start;text-decoration:none;text-decoration-line:none;text-decoration-style:solid;text-decoration-color:#000000;letter-spacing:normal;word-spacing:normal;text-transform:none;direction:ltr;block-progression:tb;writing-mode:lr-tb;baseline-shift:baseline;text-anchor:start;white-space:normal;clip-rule:nonzero;display:inline;overflow:visible;visibility:visible;opacity:1;isolation:auto;mix-blend-mode:normal;color-interpolation:sRGB;color-interpolation-filters:linearRGB;solid-color:#000000;solid-opacity:1;fill:#000000;fill-opacity:1;fill-rule:nonzero;stroke:none;stroke-width:7.08661413;stroke-linecap:butt;stroke-linejoin:miter;stroke-miterlimit:4;stroke-dasharray:none;stroke-dashoffset:0;stroke-opacity:1;color-rendering:auto;image-rendering:auto;shape-rendering:auto;text-rendering:auto;enable-background:accumulate"
       d="m 403.5,703.81836 c -11.02764,0 -20.04297,9.01532 -20.04297,20.04297 0,11.02764 9.01533,20.04492 20.04297,20.04492 11.02764,0 20.04297,-9.01728 20.04297,-20.04492 0,-11.02765 -9.01533,-20.04297 -20.04297,-20.04297 z m 0,7.08789 c 7.19775,0 12.95703,5.75733 12.95703,12.95508 0,7.19775 -5.75928,12.95703 -12.95703,12.95703 -7.19775,0 -12.95703,-5.75928 -12.95703,-12.95703 0,-7.19775 5.75928,-12.95508 12.95703,-12.95508 z"
       id="path4164"
       inkscape:connector-curvature="0" />
    <path
       style="color:#000000;font-style:normal;font-variant:normal;font-weight:normal;font-stretch:normal;font-size:medium;line-height:normal;font-family:sans-serif;text-indent:0;text-align:start;text-decoration:none;text-decoration-line:none;text-decoration-style:solid;text-decoration-color:#000000;letter-spacing:normal;word-spacing:normal;text-transform:none;direction:ltr;block-progression:tb;writing-mode:lr-tb;baseline-shift:baseline;text-anchor:start;white-space:normal;clip-rule:nonzero;display:inline;overflow:visible;visibility:visible;opacity:1;isolation:auto;mix-blend-mode:normal;color-interpolation:sRGB;color-interpolation-filters:linearRGB;solid-color:#000000;solid-opacity:1;fill:#000000;fill-opacity:1;fill-rule:nonzero;stroke:none;stroke-width:7.08661413;stroke-linecap:butt;stroke-linejoin:miter;stroke-miterlimit:4;stroke-dasharray:none;stroke-dashoffset:0;stroke-opacity:1;color-rendering:auto;image-rendering:auto;shape-rendering:auto;text-rendering:auto;enable-background:accumulate"
       d="m 410,661.81836 c -7.99008,0 -14.54297,6.55289 -14.54297,14.54297 0,7.99008 6.55289,14.54492 14.54297,14.54492 7.99008,0 14.54297,-6.55484 14.54297,-14.54492 0,-7.99008 -6.55289,-14.54297 -14.54297,-14.54297 z m 0,7.08789 c 4.16019,0 7.45703,3.29489 7.45703,7.45508 0,4.16019 -3.29684,7.45703 -7.45703,7.45703 -4.16019,0 -7.45703,-3.29684 -7.45703,-7.45703 0,-4.16019 3.29684,-7.45508 7.45703,-7.45508 z"
       id="path4166"
       inkscape:connector-curvature="0" />
  </g>
</svg>
