solid OpenSCAD_Model
  facet normal -1 0 0
    outer loop
      vertex -100 -100 -0.5
      vertex -100 100 0.5
      vertex -100 100 -0.5
    endloop
  endfacet
  facet normal -1 -0 0
    outer loop
      vertex -100 100 0.5
      vertex -100 -100 -0.5
      vertex -100 -100 0.5
    endloop
  endfacet
  facet normal 0 0 1
    outer loop
      vertex 100 100 0.5
      vertex 99.5 99.5 0.5
      vertex 100 -100 0.5
    endloop
  endfacet
  facet normal 0 0 1
    outer loop
      vertex 100 100 0.5
      vertex -99.5 99.5 0.5
      vertex 99.5 99.5 0.5
    endloop
  endfacet
  facet normal 0 0 1
    outer loop
      vertex -99.5 99.5 0.5
      vertex -100 100 0.5
      vertex -99.5 -99.5 0.5
    endloop
  endfacet
  facet normal -0 0 1
    outer loop
      vertex -100 100 0.5
      vertex -99.5 99.5 0.5
      vertex 100 100 0.5
    endloop
  endfacet
  facet normal -0 0 1
    outer loop
      vertex 99.5 -99.5 0.5
      vertex 100 -100 0.5
      vertex 99.5 99.5 0.5
    endloop
  endfacet
  facet normal -0 0 1
    outer loop
      vertex -99.5 -99.5 0.5
      vertex 100 -100 0.5
      vertex 99.5 -99.5 0.5
    endloop
  endfacet
  facet normal 0 0 1
    outer loop
      vertex -99.5 -99.5 0.5
      vertex -100 -100 0.5
      vertex 100 -100 0.5
    endloop
  endfacet
  facet normal 0 0 1
    outer loop
      vertex -100 -100 0.5
      vertex -99.5 -99.5 0.5
      vertex -100 100 0.5
    endloop
  endfacet
  facet normal 1 -0 0
    outer loop
      vertex 100 -100 0.5
      vertex 100 100 -0.5
      vertex 100 100 0.5
    endloop
  endfacet
  facet normal 1 0 0
    outer loop
      vertex 100 100 -0.5
      vertex 100 -100 0.5
      vertex 100 -100 -0.5
    endloop
  endfacet
  facet normal 0 1 -0
    outer loop
      vertex 100 100 -0.5
      vertex -100 100 0.5
      vertex 100 100 0.5
    endloop
  endfacet
  facet normal 0 1 0
    outer loop
      vertex -100 100 0.5
      vertex 100 100 -0.5
      vertex -100 100 -0.5
    endloop
  endfacet
  facet normal 0 0 -1
    outer loop
      vertex 100 -100 -0.5
      vertex 99.5 -99.5 -0.5
      vertex 100 100 -0.5
    endloop
  endfacet
  facet normal 0 0 -1
    outer loop
      vertex 100 -100 -0.5
      vertex -99.5 -99.5 -0.5
      vertex 99.5 -99.5 -0.5
    endloop
  endfacet
  facet normal -0 0 -1
    outer loop
      vertex -99.5 -99.5 -0.5
      vertex -100 -100 -0.5
      vertex -99.5 99.5 -0.5
    endloop
  endfacet
  facet normal 0 0 -1
    outer loop
      vertex -100 -100 -0.5
      vertex -99.5 -99.5 -0.5
      vertex 100 -100 -0.5
    endloop
  endfacet
  facet normal 0 0 -1
    outer loop
      vertex 99.5 99.5 -0.5
      vertex 100 100 -0.5
      vertex 99.5 -99.5 -0.5
    endloop
  endfacet
  facet normal 0 0 -1
    outer loop
      vertex -99.5 99.5 -0.5
      vertex 100 100 -0.5
      vertex 99.5 99.5 -0.5
    endloop
  endfacet
  facet normal 0 0 -1
    outer loop
      vertex -99.5 99.5 -0.5
      vertex -100 100 -0.5
      vertex 100 100 -0.5
    endloop
  endfacet
  facet normal 0 0 -1
    outer loop
      vertex -100 100 -0.5
      vertex -99.5 99.5 -0.5
      vertex -100 -100 -0.5
    endloop
  endfacet
  facet normal 0 -1 0
    outer loop
      vertex -100 -100 -0.5
      vertex 100 -100 0.5
      vertex -100 -100 0.5
    endloop
  endfacet
  facet normal 0 -1 -0
    outer loop
      vertex 100 -100 0.5
      vertex -100 -100 -0.5
      vertex 100 -100 -0.5
    endloop
  endfacet
  facet normal 1 -0 0
    outer loop
      vertex -99.5 -99.5 0.5
      vertex -99.5 99.5 -0.5
      vertex -99.5 99.5 0.5
    endloop
  endfacet
  facet normal 1 0 0
    outer loop
      vertex -99.5 99.5 -0.5
      vertex -99.5 -99.5 0.5
      vertex -99.5 -99.5 -0.5
    endloop
  endfacet
  facet normal -1 0 0
    outer loop
      vertex 99.5 -99.5 -0.5
      vertex 99.5 99.5 0.5
      vertex 99.5 99.5 -0.5
    endloop
  endfacet
  facet normal -1 -0 0
    outer loop
      vertex 99.5 99.5 0.5
      vertex 99.5 -99.5 -0.5
      vertex 99.5 -99.5 0.5
    endloop
  endfacet
  facet normal 0 1 -0
    outer loop
      vertex 99.5 -99.5 -0.5
      vertex -99.5 -99.5 0.5
      vertex 99.5 -99.5 0.5
    endloop
  endfacet
  facet normal 0 1 0
    outer loop
      vertex -99.5 -99.5 0.5
      vertex 99.5 -99.5 -0.5
      vertex -99.5 -99.5 -0.5
    endloop
  endfacet
  facet normal 0 -1 0
    outer loop
      vertex -99.5 99.5 -0.5
      vertex 99.5 99.5 0.5
      vertex -99.5 99.5 0.5
    endloop
  endfacet
  facet normal 0 -1 -0
    outer loop
      vertex 99.5 99.5 0.5
      vertex -99.5 99.5 -0.5
      vertex 99.5 99.5 -0.5
    endloop
  endfacet
endsolid OpenSCAD_Model
