  0
SECTION
  2
BLOCKS
  0
ENDSEC
  0
SECTION
  2
ENTITIES
  0
LINE
  8
0
 10
-282.24
 11
-282.24
 20
-99.146
 21
-96.854
  0
LINE
  8
0
 10
-282.24
 11
-56.58
 20
-96.854
 21
294
  0
LINE
  8
0
 10
-56.58
 11
56.58
 20
294
 21
294
  0
LINE
  8
0
 10
56.58
 11
282.24
 20
294
 21
-96.854
  0
LINE
  8
0
 10
282.24
 11
282.24
 20
-96.854
 21
-99.146
  0
LINE
  8
0
 10
282.24
 11
227.453
 20
-99.146
 21
-194.04
  0
LINE
  8
0
 10
227.453
 11
-227.453
 20
-194.04
 21
-194.04
  0
LINE
  8
0
 10
-227.453
 11
-282.24
 20
-194.04
 21
-99.146
  0
LINE
  8
0
 10
-265.749
 11
-265.455
 20
-117.519
 21
-116.419
  0
LINE
  8
0
 10
-265.455
 11
-264.649
 20
-116.419
 21
-115.614
  0
LINE
  8
0
 10
-264.649
 11
-263.549
 20
-115.614
 21
-115.319
  0
LINE
  8
0
 10
-263.549
 11
-262.449
 20
-115.319
 21
-115.614
  0
LINE
  8
0
 10
-262.449
 11
-261.644
 20
-115.614
 21
-116.419
  0
LINE
  8
0
 10
-261.644
 11
-261.349
 20
-116.419
 21
-117.519
  0
LINE
  8
0
 10
-261.349
 11
-261.644
 20
-117.519
 21
-118.619
  0
LINE
  8
0
 10
-261.644
 11
-262.449
 20
-118.619
 21
-119.424
  0
LINE
  8
0
 10
-262.449
 11
-263.549
 20
-119.424
 21
-119.719
  0
LINE
  8
0
 10
-263.549
 11
-264.649
 20
-119.719
 21
-119.424
  0
LINE
  8
0
 10
-264.649
 11
-265.455
 20
-119.424
 21
-118.619
  0
LINE
  8
0
 10
-265.455
 11
-265.749
 20
-118.619
 21
-117.519
  0
LINE
  8
0
 10
-245.167
 11
-244.485
 20
-130
 21
-124.824
  0
LINE
  8
0
 10
-244.485
 11
-242.487
 20
-124.824
 21
-120
  0
LINE
  8
0
 10
-242.487
 11
-239.309
 20
-120
 21
-115.858
  0
LINE
  8
0
 10
-239.309
 11
-235.167
 20
-115.858
 21
-112.679
  0
LINE
  8
0
 10
-235.167
 11
-230.343
 20
-112.679
 21
-110.681
  0
LINE
  8
0
 10
-230.343
 11
-225.167
 20
-110.681
 21
-110
  0
LINE
  8
0
 10
-225.167
 11
-219.99
 20
-110
 21
-110.681
  0
LINE
  8
0
 10
-219.99
 11
-215.167
 20
-110.681
 21
-112.679
  0
LINE
  8
0
 10
-215.167
 11
-211.024
 20
-112.679
 21
-115.858
  0
LINE
  8
0
 10
-211.024
 11
-207.846
 20
-115.858
 21
-120
  0
LINE
  8
0
 10
-207.846
 11
-205.848
 20
-120
 21
-124.824
  0
LINE
  8
0
 10
-205.848
 11
-205.167
 20
-124.824
 21
-130
  0
LINE
  8
0
 10
-205.167
 11
-205.848
 20
-130
 21
-135.176
  0
LINE
  8
0
 10
-205.848
 11
-207.846
 20
-135.176
 21
-140
  0
LINE
  8
0
 10
-207.846
 11
-211.024
 20
-140
 21
-144.142
  0
LINE
  8
0
 10
-211.024
 11
-215.167
 20
-144.142
 21
-147.321
  0
LINE
  8
0
 10
-215.167
 11
-219.99
 20
-147.321
 21
-149.319
  0
LINE
  8
0
 10
-219.99
 11
-225.167
 20
-149.319
 21
-150
  0
LINE
  8
0
 10
-225.167
 11
-230.343
 20
-150
 21
-149.319
  0
LINE
  8
0
 10
-230.343
 11
-235.167
 20
-149.319
 21
-147.321
  0
LINE
  8
0
 10
-235.167
 11
-239.309
 20
-147.321
 21
-144.142
  0
LINE
  8
0
 10
-239.309
 11
-242.487
 20
-144.142
 21
-140
  0
LINE
  8
0
 10
-242.487
 11
-244.485
 20
-140
 21
-135.176
  0
LINE
  8
0
 10
-244.485
 11
-245.167
 20
-135.176
 21
-130
  0
LINE
  8
0
 10
-235.749
 11
-235.455
 20
-169.481
 21
-168.381
  0
LINE
  8
0
 10
-235.455
 11
-234.649
 20
-168.381
 21
-167.576
  0
LINE
  8
0
 10
-234.649
 11
-233.549
 20
-167.576
 21
-167.281
  0
LINE
  8
0
 10
-233.549
 11
-232.449
 20
-167.281
 21
-167.576
  0
LINE
  8
0
 10
-232.449
 11
-231.644
 20
-167.576
 21
-168.381
  0
LINE
  8
0
 10
-231.644
 11
-231.349
 20
-168.381
 21
-169.481
  0
LINE
  8
0
 10
-231.349
 11
-231.644
 20
-169.481
 21
-170.581
  0
LINE
  8
0
 10
-231.644
 11
-232.449
 20
-170.581
 21
-171.386
  0
LINE
  8
0
 10
-232.449
 11
-233.549
 20
-171.386
 21
-171.681
  0
LINE
  8
0
 10
-233.549
 11
-234.649
 20
-171.681
 21
-171.386
  0
LINE
  8
0
 10
-234.649
 11
-235.455
 20
-171.386
 21
-170.581
  0
LINE
  8
0
 10
-235.455
 11
-235.749
 20
-170.581
 21
-169.481
  0
LINE
  8
0
 10
-215.52
 11
-215.225
 20
-88.519
 21
-87.419
  0
LINE
  8
0
 10
-215.225
 11
-214.42
 20
-87.419
 21
-86.614
  0
LINE
  8
0
 10
-214.42
 11
-213.32
 20
-86.614
 21
-86.319
  0
LINE
  8
0
 10
-213.32
 11
-212.22
 20
-86.319
 21
-86.614
  0
LINE
  8
0
 10
-212.22
 11
-211.415
 20
-86.614
 21
-87.419
  0
LINE
  8
0
 10
-211.415
 11
-211.12
 20
-87.419
 21
-88.519
  0
LINE
  8
0
 10
-211.12
 11
-211.415
 20
-88.519
 21
-89.619
  0
LINE
  8
0
 10
-211.415
 11
-212.22
 20
-89.619
 21
-90.424
  0
LINE
  8
0
 10
-212.22
 11
-213.32
 20
-90.424
 21
-90.719
  0
LINE
  8
0
 10
-213.32
 11
-214.42
 20
-90.719
 21
-90.424
  0
LINE
  8
0
 10
-214.42
 11
-215.225
 20
-90.424
 21
-89.619
  0
LINE
  8
0
 10
-215.225
 11
-215.52
 20
-89.619
 21
-88.519
  0
LINE
  8
0
 10
-185.52
 11
-185.225
 20
-140.481
 21
-139.381
  0
LINE
  8
0
 10
-185.225
 11
-184.42
 20
-139.381
 21
-138.576
  0
LINE
  8
0
 10
-184.42
 11
-183.32
 20
-138.576
 21
-138.281
  0
LINE
  8
0
 10
-183.32
 11
-182.22
 20
-138.281
 21
-138.576
  0
LINE
  8
0
 10
-182.22
 11
-181.415
 20
-138.576
 21
-139.381
  0
LINE
  8
0
 10
-181.415
 11
-181.12
 20
-139.381
 21
-140.481
  0
LINE
  8
0
 10
-181.12
 11
-181.415
 20
-140.481
 21
-141.581
  0
LINE
  8
0
 10
-181.415
 11
-182.22
 20
-141.581
 21
-142.386
  0
LINE
  8
0
 10
-182.22
 11
-183.32
 20
-142.386
 21
-142.681
  0
LINE
  8
0
 10
-183.32
 11
-184.42
 20
-142.681
 21
-142.386
  0
LINE
  8
0
 10
-184.42
 11
-185.225
 20
-142.386
 21
-141.581
  0
LINE
  8
0
 10
-185.225
 11
-185.52
 20
-141.581
 21
-140.481
  0
LINE
  8
0
 10
-159.926
 11
-159.645
 20
0
 21
1.05
  0
LINE
  8
0
 10
-159.645
 11
-158.876
 20
1.05
 21
1.819
  0
LINE
  8
0
 10
-158.876
 11
-157.826
 20
1.819
 21
2.1
  0
LINE
  8
0
 10
-157.826
 11
-97.826
 20
2.1
 21
2.1
  0
LINE
  8
0
 10
-97.826
 11
-96.776
 20
2.1
 21
1.819
  0
LINE
  8
0
 10
-96.776
 11
-96.007
 20
1.819
 21
1.05
  0
LINE
  8
0
 10
-96.007
 11
-95.726
 20
1.05
 21
0
  0
LINE
  8
0
 10
-95.726
 11
-96.007
 20
0
 21
-1.05
  0
LINE
  8
0
 10
-96.007
 11
-96.776
 20
-1.05
 21
-1.819
  0
LINE
  8
0
 10
-96.776
 11
-97.826
 20
-1.819
 21
-2.1
  0
LINE
  8
0
 10
-97.826
 11
-157.826
 20
-2.1
 21
-2.1
  0
LINE
  8
0
 10
-157.826
 11
-158.876
 20
-2.1
 21
-1.819
  0
LINE
  8
0
 10
-158.876
 11
-159.645
 20
-1.819
 21
-1.05
  0
LINE
  8
0
 10
-159.645
 11
-159.926
 20
-1.05
 21
0
  0
LINE
  8
0
 10
-138.781
 11
-138.5
 20
-78.913
 21
-77.863
  0
LINE
  8
0
 10
-138.5
 11
-137.731
 20
-77.863
 21
-77.094
  0
LINE
  8
0
 10
-137.731
 11
-85.77
 20
-77.094
 21
-47.094
  0
LINE
  8
0
 10
-85.77
 11
-84.72
 20
-47.094
 21
-46.813
  0
LINE
  8
0
 10
-84.72
 11
-83.67
 20
-46.813
 21
-47.094
  0
LINE
  8
0
 10
-83.67
 11
-82.901
 20
-47.094
 21
-47.863
  0
LINE
  8
0
 10
-82.901
 11
-82.62
 20
-47.863
 21
-48.913
  0
LINE
  8
0
 10
-82.62
 11
-82.901
 20
-48.913
 21
-49.963
  0
LINE
  8
0
 10
-82.901
 11
-83.67
 20
-49.963
 21
-50.732
  0
LINE
  8
0
 10
-83.67
 11
-135.631
 20
-50.732
 21
-80.732
  0
LINE
  8
0
 10
-135.631
 11
-136.681
 20
-80.732
 21
-81.013
  0
LINE
  8
0
 10
-136.681
 11
-137.731
 20
-81.013
 21
-80.732
  0
LINE
  8
0
 10
-137.731
 11
-138.5
 20
-80.732
 21
-79.963
  0
LINE
  8
0
 10
-138.5
 11
-138.781
 20
-79.963
 21
-78.913
  0
LINE
  8
0
 10
-138.781
 11
-138.5
 20
78.913
 21
79.963
  0
LINE
  8
0
 10
-138.5
 11
-137.731
 20
79.963
 21
80.732
  0
LINE
  8
0
 10
-137.731
 11
-136.681
 20
80.732
 21
81.013
  0
LINE
  8
0
 10
-136.681
 11
-135.631
 20
81.013
 21
80.732
  0
LINE
  8
0
 10
-135.631
 11
-83.67
 20
80.732
 21
50.732
  0
LINE
  8
0
 10
-83.67
 11
-82.901
 20
50.732
 21
49.963
  0
LINE
  8
0
 10
-82.901
 11
-82.62
 20
49.963
 21
48.913
  0
LINE
  8
0
 10
-82.62
 11
-82.901
 20
48.913
 21
47.863
  0
LINE
  8
0
 10
-82.901
 11
-83.67
 20
47.863
 21
47.094
  0
LINE
  8
0
 10
-83.67
 11
-84.72
 20
47.094
 21
46.813
  0
LINE
  8
0
 10
-84.72
 11
-85.77
 20
46.813
 21
47.094
  0
LINE
  8
0
 10
-85.77
 11
-137.731
 20
47.094
 21
77.094
  0
LINE
  8
0
 10
-137.731
 11
-138.5
 20
77.094
 21
77.863
  0
LINE
  8
0
 10
-138.5
 11
-138.781
 20
77.863
 21
78.913
  0
LINE
  8
0
 10
-81.013
 11
-80.732
 20
-136.681
 21
-135.631
  0
LINE
  8
0
 10
-80.732
 11
-50.732
 20
-135.631
 21
-83.67
  0
LINE
  8
0
 10
-50.732
 11
-49.963
 20
-83.67
 21
-82.901
  0
LINE
  8
0
 10
-49.963
 11
-48.913
 20
-82.901
 21
-82.62
  0
LINE
  8
0
 10
-48.913
 11
-47.863
 20
-82.62
 21
-82.901
  0
LINE
  8
0
 10
-47.863
 11
-47.094
 20
-82.901
 21
-83.67
  0
LINE
  8
0
 10
-47.094
 11
-46.813
 20
-83.67
 21
-84.72
  0
LINE
  8
0
 10
-46.813
 11
-47.094
 20
-84.72
 21
-85.77
  0
LINE
  8
0
 10
-47.094
 11
-77.094
 20
-85.77
 21
-137.731
  0
LINE
  8
0
 10
-77.094
 11
-77.863
 20
-137.731
 21
-138.5
  0
LINE
  8
0
 10
-77.863
 11
-78.913
 20
-138.5
 21
-138.781
  0
LINE
  8
0
 10
-78.913
 11
-79.963
 20
-138.781
 21
-138.5
  0
LINE
  8
0
 10
-79.963
 11
-80.732
 20
-138.5
 21
-137.731
  0
LINE
  8
0
 10
-80.732
 11
-81.013
 20
-137.731
 21
-136.681
  0
LINE
  8
0
 10
-81.013
 11
-80.732
 20
136.681
 21
137.731
  0
LINE
  8
0
 10
-80.732
 11
-79.963
 20
137.731
 21
138.5
  0
LINE
  8
0
 10
-79.963
 11
-78.913
 20
138.5
 21
138.781
  0
LINE
  8
0
 10
-78.913
 11
-77.863
 20
138.781
 21
138.5
  0
LINE
  8
0
 10
-77.863
 11
-77.094
 20
138.5
 21
137.731
  0
LINE
  8
0
 10
-77.094
 11
-47.094
 20
137.731
 21
85.77
  0
LINE
  8
0
 10
-47.094
 11
-46.813
 20
85.77
 21
84.72
  0
LINE
  8
0
 10
-46.813
 11
-47.094
 20
84.72
 21
83.67
  0
LINE
  8
0
 10
-47.094
 11
-47.863
 20
83.67
 21
82.901
  0
LINE
  8
0
 10
-47.863
 11
-48.913
 20
82.901
 21
82.62
  0
LINE
  8
0
 10
-48.913
 11
-49.963
 20
82.62
 21
82.901
  0
LINE
  8
0
 10
-49.963
 11
-50.732
 20
82.901
 21
83.67
  0
LINE
  8
0
 10
-50.732
 11
-80.732
 20
83.67
 21
135.631
  0
LINE
  8
0
 10
-80.732
 11
-81.013
 20
135.631
 21
136.681
  0
LINE
  8
0
 10
-32.2
 11
-31.905
 20
229
 21
230.1
  0
LINE
  8
0
 10
-31.905
 11
-31.1
 20
230.1
 21
230.905
  0
LINE
  8
0
 10
-31.1
 11
-30
 20
230.905
 21
231.2
  0
LINE
  8
0
 10
-30
 11
-28.9
 20
231.2
 21
230.905
  0
LINE
  8
0
 10
-28.9
 11
-28.095
 20
230.905
 21
230.1
  0
LINE
  8
0
 10
-28.095
 11
-27.8
 20
230.1
 21
229
  0
LINE
  8
0
 10
-27.8
 11
-28.095
 20
229
 21
227.9
  0
LINE
  8
0
 10
-28.095
 11
-28.9
 20
227.9
 21
227.095
  0
LINE
  8
0
 10
-28.9
 11
-30
 20
227.095
 21
226.8
  0
LINE
  8
0
 10
-30
 11
-31.1
 20
226.8
 21
227.095
  0
LINE
  8
0
 10
-31.1
 11
-31.905
 20
227.095
 21
227.9
  0
LINE
  8
0
 10
-31.905
 11
-32.2
 20
227.9
 21
229
  0
LINE
  8
0
 10
-32.2
 11
-31.905
 20
287
 21
288.1
  0
LINE
  8
0
 10
-31.905
 11
-31.1
 20
288.1
 21
288.905
  0
LINE
  8
0
 10
-31.1
 11
-30
 20
288.905
 21
289.2
  0
LINE
  8
0
 10
-30
 11
-28.9
 20
289.2
 21
288.905
  0
LINE
  8
0
 10
-28.9
 11
-28.095
 20
288.905
 21
288.1
  0
LINE
  8
0
 10
-28.095
 11
-27.8
 20
288.1
 21
287
  0
LINE
  8
0
 10
-27.8
 11
-28.095
 20
287
 21
285.9
  0
LINE
  8
0
 10
-28.095
 11
-28.9
 20
285.9
 21
285.095
  0
LINE
  8
0
 10
-28.9
 11
-30
 20
285.095
 21
284.8
  0
LINE
  8
0
 10
-30
 11
-31.1
 20
284.8
 21
285.095
  0
LINE
  8
0
 10
-31.1
 11
-31.905
 20
285.095
 21
285.9
  0
LINE
  8
0
 10
-31.905
 11
-32.2
 20
285.9
 21
287
  0
LINE
  8
0
 10
-20
 11
-19.319
 20
260
 21
265.176
  0
LINE
  8
0
 10
-19.319
 11
-17.321
 20
265.176
 21
270
  0
LINE
  8
0
 10
-17.321
 11
-14.142
 20
270
 21
274.142
  0
LINE
  8
0
 10
-14.142
 11
-10
 20
274.142
 21
277.321
  0
LINE
  8
0
 10
-10
 11
-5.176
 20
277.321
 21
279.319
  0
LINE
  8
0
 10
-5.176
 11
0
 20
279.319
 21
280
  0
LINE
  8
0
 10
0
 11
5.176
 20
280
 21
279.319
  0
LINE
  8
0
 10
5.176
 11
10
 20
279.319
 21
277.321
  0
LINE
  8
0
 10
10
 11
14.142
 20
277.321
 21
274.142
  0
LINE
  8
0
 10
14.142
 11
17.321
 20
274.142
 21
270
  0
LINE
  8
0
 10
17.321
 11
19.319
 20
270
 21
265.176
  0
LINE
  8
0
 10
19.319
 11
20
 20
265.176
 21
260
  0
LINE
  8
0
 10
20
 11
19.319
 20
260
 21
254.824
  0
LINE
  8
0
 10
19.319
 11
17.321
 20
254.824
 21
250
  0
LINE
  8
0
 10
17.321
 11
14.142
 20
250
 21
245.858
  0
LINE
  8
0
 10
14.142
 11
10
 20
245.858
 21
242.679
  0
LINE
  8
0
 10
10
 11
5.176
 20
242.679
 21
240.681
  0
LINE
  8
0
 10
5.176
 11
0
 20
240.681
 21
240
  0
LINE
  8
0
 10
0
 11
-5.176
 20
240
 21
240.681
  0
LINE
  8
0
 10
-5.176
 11
-10
 20
240.681
 21
242.679
  0
LINE
  8
0
 10
-10
 11
-14.142
 20
242.679
 21
245.858
  0
LINE
  8
0
 10
-14.142
 11
-17.321
 20
245.858
 21
250
  0
LINE
  8
0
 10
-17.321
 11
-19.319
 20
250
 21
254.824
  0
LINE
  8
0
 10
-19.319
 11
-20
 20
254.824
 21
260
  0
LINE
  8
0
 10
-5
 11
-4.33
 20
0
 21
2.5
  0
LINE
  8
0
 10
-4.33
 11
-2.5
 20
2.5
 21
4.33
  0
LINE
  8
0
 10
-2.5
 11
0
 20
4.33
 21
5
  0
LINE
  8
0
 10
0
 11
2.5
 20
5
 21
4.33
  0
LINE
  8
0
 10
2.5
 11
4.33
 20
4.33
 21
2.5
  0
LINE
  8
0
 10
4.33
 11
5
 20
2.5
 21
0
  0
LINE
  8
0
 10
5
 11
4.33
 20
0
 21
-2.5
  0
LINE
  8
0
 10
4.33
 11
2.5
 20
-2.5
 21
-4.33
  0
LINE
  8
0
 10
2.5
 11
0
 20
-4.33
 21
-5
  0
LINE
  8
0
 10
0
 11
-2.5
 20
-5
 21
-4.33
  0
LINE
  8
0
 10
-2.5
 11
-4.33
 20
-4.33
 21
-2.5
  0
LINE
  8
0
 10
-4.33
 11
-5
 20
-2.5
 21
0
  0
LINE
  8
0
 10
-2.1
 11
-2.1
 20
-157.826
 21
-97.826
  0
LINE
  8
0
 10
-2.1
 11
-1.819
 20
-97.826
 21
-96.776
  0
LINE
  8
0
 10
-1.819
 11
-1.05
 20
-96.776
 21
-96.007
  0
LINE
  8
0
 10
-1.05
 11
0
 20
-96.007
 21
-95.726
  0
LINE
  8
0
 10
0
 11
1.05
 20
-95.726
 21
-96.007
  0
LINE
  8
0
 10
1.05
 11
1.819
 20
-96.007
 21
-96.776
  0
LINE
  8
0
 10
1.819
 11
2.1
 20
-96.776
 21
-97.826
  0
LINE
  8
0
 10
2.1
 11
2.1
 20
-97.826
 21
-157.826
  0
LINE
  8
0
 10
2.1
 11
1.819
 20
-157.826
 21
-158.876
  0
LINE
  8
0
 10
1.819
 11
1.05
 20
-158.876
 21
-159.645
  0
LINE
  8
0
 10
1.05
 11
0
 20
-159.645
 21
-159.926
  0
LINE
  8
0
 10
0
 11
-1.05
 20
-159.926
 21
-159.645
  0
LINE
  8
0
 10
-1.05
 11
-1.819
 20
-159.645
 21
-158.876
  0
LINE
  8
0
 10
-1.819
 11
-2.1
 20
-158.876
 21
-157.826
  0
LINE
  8
0
 10
-2.1
 11
-2.1
 20
97.826
 21
157.826
  0
LINE
  8
0
 10
-2.1
 11
-1.819
 20
157.826
 21
158.876
  0
LINE
  8
0
 10
-1.819
 11
-1.05
 20
158.876
 21
159.645
  0
LINE
  8
0
 10
-1.05
 11
0
 20
159.645
 21
159.926
  0
LINE
  8
0
 10
0
 11
1.05
 20
159.926
 21
159.645
  0
LINE
  8
0
 10
1.05
 11
1.819
 20
159.645
 21
158.876
  0
LINE
  8
0
 10
1.819
 11
2.1
 20
158.876
 21
157.826
  0
LINE
  8
0
 10
2.1
 11
2.1
 20
157.826
 21
97.826
  0
LINE
  8
0
 10
2.1
 11
1.819
 20
97.826
 21
96.776
  0
LINE
  8
0
 10
1.819
 11
1.05
 20
96.776
 21
96.007
  0
LINE
  8
0
 10
1.05
 11
0
 20
96.007
 21
95.726
  0
LINE
  8
0
 10
0
 11
-1.05
 20
95.726
 21
96.007
  0
LINE
  8
0
 10
-1.05
 11
-1.819
 20
96.007
 21
96.776
  0
LINE
  8
0
 10
-1.819
 11
-2.1
 20
96.776
 21
97.826
  0
LINE
  8
0
 10
27.8
 11
28.095
 20
229
 21
230.1
  0
LINE
  8
0
 10
28.095
 11
28.9
 20
230.1
 21
230.905
  0
LINE
  8
0
 10
28.9
 11
30
 20
230.905
 21
231.2
  0
LINE
  8
0
 10
30
 11
31.1
 20
231.2
 21
230.905
  0
LINE
  8
0
 10
31.1
 11
31.905
 20
230.905
 21
230.1
  0
LINE
  8
0
 10
31.905
 11
32.2
 20
230.1
 21
229
  0
LINE
  8
0
 10
32.2
 11
31.905
 20
229
 21
227.9
  0
LINE
  8
0
 10
31.905
 11
31.1
 20
227.9
 21
227.095
  0
LINE
  8
0
 10
31.1
 11
30
 20
227.095
 21
226.8
  0
LINE
  8
0
 10
30
 11
28.9
 20
226.8
 21
227.095
  0
LINE
  8
0
 10
28.9
 11
28.095
 20
227.095
 21
227.9
  0
LINE
  8
0
 10
28.095
 11
27.8
 20
227.9
 21
229
  0
LINE
  8
0
 10
27.8
 11
28.095
 20
287
 21
288.1
  0
LINE
  8
0
 10
28.095
 11
28.9
 20
288.1
 21
288.905
  0
LINE
  8
0
 10
28.9
 11
30
 20
288.905
 21
289.2
  0
LINE
  8
0
 10
30
 11
31.1
 20
289.2
 21
288.905
  0
LINE
  8
0
 10
31.1
 11
31.905
 20
288.905
 21
288.1
  0
LINE
  8
0
 10
31.905
 11
32.2
 20
288.1
 21
287
  0
LINE
  8
0
 10
32.2
 11
31.905
 20
287
 21
285.9
  0
LINE
  8
0
 10
31.905
 11
31.1
 20
285.9
 21
285.095
  0
LINE
  8
0
 10
31.1
 11
30
 20
285.095
 21
284.8
  0
LINE
  8
0
 10
30
 11
28.9
 20
284.8
 21
285.095
  0
LINE
  8
0
 10
28.9
 11
28.095
 20
285.095
 21
285.9
  0
LINE
  8
0
 10
28.095
 11
27.8
 20
285.9
 21
287
  0
LINE
  8
0
 10
46.813
 11
47.094
 20
-84.72
 21
-83.67
  0
LINE
  8
0
 10
47.094
 11
47.863
 20
-83.67
 21
-82.901
  0
LINE
  8
0
 10
47.863
 11
48.913
 20
-82.901
 21
-82.62
  0
LINE
  8
0
 10
48.913
 11
49.963
 20
-82.62
 21
-82.901
  0
LINE
  8
0
 10
49.963
 11
50.732
 20
-82.901
 21
-83.67
  0
LINE
  8
0
 10
50.732
 11
80.732
 20
-83.67
 21
-135.631
  0
LINE
  8
0
 10
80.732
 11
81.013
 20
-135.631
 21
-136.681
  0
LINE
  8
0
 10
81.013
 11
80.732
 20
-136.681
 21
-137.731
  0
LINE
  8
0
 10
80.732
 11
79.963
 20
-137.731
 21
-138.5
  0
LINE
  8
0
 10
79.963
 11
78.913
 20
-138.5
 21
-138.781
  0
LINE
  8
0
 10
78.913
 11
77.863
 20
-138.781
 21
-138.5
  0
LINE
  8
0
 10
77.863
 11
77.094
 20
-138.5
 21
-137.731
  0
LINE
  8
0
 10
77.094
 11
47.094
 20
-137.731
 21
-85.77
  0
LINE
  8
0
 10
47.094
 11
46.813
 20
-85.77
 21
-84.72
  0
LINE
  8
0
 10
46.813
 11
47.094
 20
84.72
 21
85.77
  0
LINE
  8
0
 10
47.094
 11
77.094
 20
85.77
 21
137.731
  0
LINE
  8
0
 10
77.094
 11
77.863
 20
137.731
 21
138.5
  0
LINE
  8
0
 10
77.863
 11
78.913
 20
138.5
 21
138.781
  0
LINE
  8
0
 10
78.913
 11
79.963
 20
138.781
 21
138.5
  0
LINE
  8
0
 10
79.963
 11
80.732
 20
138.5
 21
137.731
  0
LINE
  8
0
 10
80.732
 11
81.013
 20
137.731
 21
136.681
  0
LINE
  8
0
 10
81.013
 11
80.732
 20
136.681
 21
135.631
  0
LINE
  8
0
 10
80.732
 11
50.732
 20
135.631
 21
83.67
  0
LINE
  8
0
 10
50.732
 11
49.963
 20
83.67
 21
82.901
  0
LINE
  8
0
 10
49.963
 11
48.913
 20
82.901
 21
82.62
  0
LINE
  8
0
 10
48.913
 11
47.863
 20
82.62
 21
82.901
  0
LINE
  8
0
 10
47.863
 11
47.094
 20
82.901
 21
83.67
  0
LINE
  8
0
 10
47.094
 11
46.813
 20
83.67
 21
84.72
  0
LINE
  8
0
 10
82.62
 11
82.901
 20
-48.913
 21
-47.863
  0
LINE
  8
0
 10
82.901
 11
83.67
 20
-47.863
 21
-47.094
  0
LINE
  8
0
 10
83.67
 11
84.72
 20
-47.094
 21
-46.813
  0
LINE
  8
0
 10
84.72
 11
85.77
 20
-46.813
 21
-47.094
  0
LINE
  8
0
 10
85.77
 11
137.731
 20
-47.094
 21
-77.094
  0
LINE
  8
0
 10
137.731
 11
138.5
 20
-77.094
 21
-77.863
  0
LINE
  8
0
 10
138.5
 11
138.781
 20
-77.863
 21
-78.913
  0
LINE
  8
0
 10
138.781
 11
138.5
 20
-78.913
 21
-79.963
  0
LINE
  8
0
 10
138.5
 11
137.731
 20
-79.963
 21
-80.732
  0
LINE
  8
0
 10
137.731
 11
136.681
 20
-80.732
 21
-81.013
  0
LINE
  8
0
 10
136.681
 11
135.631
 20
-81.013
 21
-80.732
  0
LINE
  8
0
 10
135.631
 11
83.67
 20
-80.732
 21
-50.732
  0
LINE
  8
0
 10
83.67
 11
82.901
 20
-50.732
 21
-49.963
  0
LINE
  8
0
 10
82.901
 11
82.62
 20
-49.963
 21
-48.913
  0
LINE
  8
0
 10
82.62
 11
82.901
 20
48.913
 21
49.963
  0
LINE
  8
0
 10
82.901
 11
83.67
 20
49.963
 21
50.732
  0
LINE
  8
0
 10
83.67
 11
135.631
 20
50.732
 21
80.732
  0
LINE
  8
0
 10
135.631
 11
136.681
 20
80.732
 21
81.013
  0
LINE
  8
0
 10
136.681
 11
137.731
 20
81.013
 21
80.732
  0
LINE
  8
0
 10
137.731
 11
138.5
 20
80.732
 21
79.963
  0
LINE
  8
0
 10
138.5
 11
138.781
 20
79.963
 21
78.913
  0
LINE
  8
0
 10
138.781
 11
138.5
 20
78.913
 21
77.863
  0
LINE
  8
0
 10
138.5
 11
137.731
 20
77.863
 21
77.094
  0
LINE
  8
0
 10
137.731
 11
85.77
 20
77.094
 21
47.094
  0
LINE
  8
0
 10
85.77
 11
84.72
 20
47.094
 21
46.813
  0
LINE
  8
0
 10
84.72
 11
83.67
 20
46.813
 21
47.094
  0
LINE
  8
0
 10
83.67
 11
82.901
 20
47.094
 21
47.863
  0
LINE
  8
0
 10
82.901
 11
82.62
 20
47.863
 21
48.913
  0
LINE
  8
0
 10
95.726
 11
96.007
 20
0
 21
1.05
  0
LINE
  8
0
 10
96.007
 11
96.776
 20
1.05
 21
1.819
  0
LINE
  8
0
 10
96.776
 11
97.826
 20
1.819
 21
2.1
  0
LINE
  8
0
 10
97.826
 11
157.826
 20
2.1
 21
2.1
  0
LINE
  8
0
 10
157.826
 11
158.876
 20
2.1
 21
1.819
  0
LINE
  8
0
 10
158.876
 11
159.645
 20
1.819
 21
1.05
  0
LINE
  8
0
 10
159.645
 11
159.926
 20
1.05
 21
0
  0
LINE
  8
0
 10
159.926
 11
159.645
 20
0
 21
-1.05
  0
LINE
  8
0
 10
159.645
 11
158.876
 20
-1.05
 21
-1.819
  0
LINE
  8
0
 10
158.876
 11
157.826
 20
-1.819
 21
-2.1
  0
LINE
  8
0
 10
157.826
 11
97.826
 20
-2.1
 21
-2.1
  0
LINE
  8
0
 10
97.826
 11
96.776
 20
-2.1
 21
-1.819
  0
LINE
  8
0
 10
96.776
 11
96.007
 20
-1.819
 21
-1.05
  0
LINE
  8
0
 10
96.007
 11
95.726
 20
-1.05
 21
0
  0
LINE
  8
0
 10
181.12
 11
181.415
 20
-140.481
 21
-139.381
  0
LINE
  8
0
 10
181.415
 11
182.22
 20
-139.381
 21
-138.576
  0
LINE
  8
0
 10
182.22
 11
183.32
 20
-138.576
 21
-138.281
  0
LINE
  8
0
 10
183.32
 11
184.42
 20
-138.281
 21
-138.576
  0
LINE
  8
0
 10
184.42
 11
185.225
 20
-138.576
 21
-139.381
  0
LINE
  8
0
 10
185.225
 11
185.52
 20
-139.381
 21
-140.481
  0
LINE
  8
0
 10
185.52
 11
185.225
 20
-140.481
 21
-141.581
  0
LINE
  8
0
 10
185.225
 11
184.42
 20
-141.581
 21
-142.386
  0
LINE
  8
0
 10
184.42
 11
183.32
 20
-142.386
 21
-142.681
  0
LINE
  8
0
 10
183.32
 11
182.22
 20
-142.681
 21
-142.386
  0
LINE
  8
0
 10
182.22
 11
181.415
 20
-142.386
 21
-141.581
  0
LINE
  8
0
 10
181.415
 11
181.12
 20
-141.581
 21
-140.481
  0
LINE
  8
0
 10
205.167
 11
205.848
 20
-130
 21
-124.824
  0
LINE
  8
0
 10
205.848
 11
207.846
 20
-124.824
 21
-120
  0
LINE
  8
0
 10
207.846
 11
211.024
 20
-120
 21
-115.858
  0
LINE
  8
0
 10
211.024
 11
215.167
 20
-115.858
 21
-112.679
  0
LINE
  8
0
 10
215.167
 11
219.99
 20
-112.679
 21
-110.681
  0
LINE
  8
0
 10
219.99
 11
225.167
 20
-110.681
 21
-110
  0
LINE
  8
0
 10
225.167
 11
230.343
 20
-110
 21
-110.681
  0
LINE
  8
0
 10
230.343
 11
235.167
 20
-110.681
 21
-112.679
  0
LINE
  8
0
 10
235.167
 11
239.309
 20
-112.679
 21
-115.858
  0
LINE
  8
0
 10
239.309
 11
242.487
 20
-115.858
 21
-120
  0
LINE
  8
0
 10
242.487
 11
244.485
 20
-120
 21
-124.824
  0
LINE
  8
0
 10
244.485
 11
245.167
 20
-124.824
 21
-130
  0
LINE
  8
0
 10
245.167
 11
244.485
 20
-130
 21
-135.176
  0
LINE
  8
0
 10
244.485
 11
242.487
 20
-135.176
 21
-140
  0
LINE
  8
0
 10
242.487
 11
239.309
 20
-140
 21
-144.142
  0
LINE
  8
0
 10
239.309
 11
235.167
 20
-144.142
 21
-147.321
  0
LINE
  8
0
 10
235.167
 11
230.343
 20
-147.321
 21
-149.319
  0
LINE
  8
0
 10
230.343
 11
225.167
 20
-149.319
 21
-150
  0
LINE
  8
0
 10
225.167
 11
219.99
 20
-150
 21
-149.319
  0
LINE
  8
0
 10
219.99
 11
215.167
 20
-149.319
 21
-147.321
  0
LINE
  8
0
 10
215.167
 11
211.024
 20
-147.321
 21
-144.142
  0
LINE
  8
0
 10
211.024
 11
207.846
 20
-144.142
 21
-140
  0
LINE
  8
0
 10
207.846
 11
205.848
 20
-140
 21
-135.176
  0
LINE
  8
0
 10
205.848
 11
205.167
 20
-135.176
 21
-130
  0
LINE
  8
0
 10
211.12
 11
211.415
 20
-88.519
 21
-87.419
  0
LINE
  8
0
 10
211.415
 11
212.22
 20
-87.419
 21
-86.614
  0
LINE
  8
0
 10
212.22
 11
213.32
 20
-86.614
 21
-86.319
  0
LINE
  8
0
 10
213.32
 11
214.42
 20
-86.319
 21
-86.614
  0
LINE
  8
0
 10
214.42
 11
215.225
 20
-86.614
 21
-87.419
  0
LINE
  8
0
 10
215.225
 11
215.52
 20
-87.419
 21
-88.519
  0
LINE
  8
0
 10
215.52
 11
215.225
 20
-88.519
 21
-89.619
  0
LINE
  8
0
 10
215.225
 11
214.42
 20
-89.619
 21
-90.424
  0
LINE
  8
0
 10
214.42
 11
213.32
 20
-90.424
 21
-90.719
  0
LINE
  8
0
 10
213.32
 11
212.22
 20
-90.719
 21
-90.424
  0
LINE
  8
0
 10
212.22
 11
211.415
 20
-90.424
 21
-89.619
  0
LINE
  8
0
 10
211.415
 11
211.12
 20
-89.619
 21
-88.519
  0
LINE
  8
0
 10
231.349
 11
231.644
 20
-169.481
 21
-168.381
  0
LINE
  8
0
 10
231.644
 11
232.449
 20
-168.381
 21
-167.576
  0
LINE
  8
0
 10
232.449
 11
233.549
 20
-167.576
 21
-167.281
  0
LINE
  8
0
 10
233.549
 11
234.649
 20
-167.281
 21
-167.576
  0
LINE
  8
0
 10
234.649
 11
235.455
 20
-167.576
 21
-168.381
  0
LINE
  8
0
 10
235.455
 11
235.749
 20
-168.381
 21
-169.481
  0
LINE
  8
0
 10
235.749
 11
235.455
 20
-169.481
 21
-170.581
  0
LINE
  8
0
 10
235.455
 11
234.649
 20
-170.581
 21
-171.386
  0
LINE
  8
0
 10
234.649
 11
233.549
 20
-171.386
 21
-171.681
  0
LINE
  8
0
 10
233.549
 11
232.449
 20
-171.681
 21
-171.386
  0
LINE
  8
0
 10
232.449
 11
231.644
 20
-171.386
 21
-170.581
  0
LINE
  8
0
 10
231.644
 11
231.349
 20
-170.581
 21
-169.481
  0
LINE
  8
0
 10
261.349
 11
261.644
 20
-117.519
 21
-116.419
  0
LINE
  8
0
 10
261.644
 11
262.449
 20
-116.419
 21
-115.614
  0
LINE
  8
0
 10
262.449
 11
263.549
 20
-115.614
 21
-115.319
  0
LINE
  8
0
 10
263.549
 11
264.649
 20
-115.319
 21
-115.614
  0
LINE
  8
0
 10
264.649
 11
265.455
 20
-115.614
 21
-116.419
  0
LINE
  8
0
 10
265.455
 11
265.749
 20
-116.419
 21
-117.519
  0
LINE
  8
0
 10
265.749
 11
265.455
 20
-117.519
 21
-118.619
  0
LINE
  8
0
 10
265.455
 11
264.649
 20
-118.619
 21
-119.424
  0
LINE
  8
0
 10
264.649
 11
263.549
 20
-119.424
 21
-119.719
  0
LINE
  8
0
 10
263.549
 11
262.449
 20
-119.719
 21
-119.424
  0
LINE
  8
0
 10
262.449
 11
261.644
 20
-119.424
 21
-118.619
  0
LINE
  8
0
 10
261.644
 11
261.349
 20
-118.619
 21
-117.519
  0
ENDSEC
  0
SECTION
  2
OBJECTS
  0
DICTIONARY
  0
ENDSEC
  0
EOF
