solid OpenSCAD_Model
  facet normal -1 0 0
    outer loop
      vertex -50 -80 -2.5
      vertex -50 -80 2.5
      vertex -50 80 -2.5
    endloop
  endfacet
  facet normal -1 0 0
    outer loop
      vertex -50 80 -2.5
      vertex -50 -80 2.5
      vertex -50 80 2.5
    endloop
  endfacet
  facet normal 0 -1 0
    outer loop
      vertex -50 -80 2.5
      vertex -50 -80 -2.5
      vertex -46 -80 -2.5
    endloop
  endfacet
  facet normal 0 -1 0
    outer loop
      vertex -46 -80 2.5
      vertex -50 -80 2.5
      vertex -46 -80 -2.5
    endloop
  endfacet
  facet normal 0 0 -1
    outer loop
      vertex -50 -80 -2.5
      vertex -50 80 -2.5
      vertex -46 -80 -2.5
    endloop
  endfacet
  facet normal 0 0 -1
    outer loop
      vertex -46 2 -2.5
      vertex -50 80 -2.5
      vertex -46 80 -2.5
    endloop
  endfacet
  facet normal 0 0 -1
    outer loop
      vertex -46 -80 -2.5
      vertex -50 80 -2.5
      vertex -46 -2 -2.5
    endloop
  endfacet
  facet normal 0 0 -1
    outer loop
      vertex 46 2 -2.5
      vertex 46 80 -2.5
      vertex 50 80 -2.5
    endloop
  endfacet
  facet normal 0 0 -1
    outer loop
      vertex 46 2 -2.5
      vertex 50 80 -2.5
      vertex 50 -80 -2.5
    endloop
  endfacet
  facet normal 0 0 -1
    outer loop
      vertex 46 -2 -2.5
      vertex 50 -80 -2.5
      vertex 46 -80 -2.5
    endloop
  endfacet
  facet normal 0 0 -1
    outer loop
      vertex 46 2 -2.5
      vertex 50 -80 -2.5
      vertex 46 -2 -2.5
    endloop
  endfacet
  facet normal 0 0 -1
    outer loop
      vertex -46 2 -2.5
      vertex 46 2 -2.5
      vertex -46 -2 -2.5
    endloop
  endfacet
  facet normal 0 0 -1
    outer loop
      vertex -46 2 -2.5
      vertex -46 -2 -2.5
      vertex -50 80 -2.5
    endloop
  endfacet
  facet normal 0 0 -1
    outer loop
      vertex -46 -2 -2.5
      vertex 46 2 -2.5
      vertex 46 -2 -2.5
    endloop
  endfacet
  facet normal 0 1 0
    outer loop
      vertex -50 80 -2.5
      vertex -50 80 2.5
      vertex -46 80 -2.5
    endloop
  endfacet
  facet normal 0 1 0
    outer loop
      vertex -46 80 -2.5
      vertex -50 80 2.5
      vertex -46 80 2.5
    endloop
  endfacet
  facet normal 0 0 1
    outer loop
      vertex -50 80 2.5
      vertex -50 -80 2.5
      vertex -46 -80 2.5
    endloop
  endfacet
  facet normal 0 0 1
    outer loop
      vertex -46 2 2.5
      vertex -50 80 2.5
      vertex -46 -2 2.5
    endloop
  endfacet
  facet normal 0 0 1
    outer loop
      vertex -46 -2 2.5
      vertex -50 80 2.5
      vertex -46 -80 2.5
    endloop
  endfacet
  facet normal 0 0 1
    outer loop
      vertex -46 2 2.5
      vertex -46 80 2.5
      vertex -50 80 2.5
    endloop
  endfacet
  facet normal 0 0 1
    outer loop
      vertex 50 -80 2.5
      vertex 46 -2 2.5
      vertex 46 -80 2.5
    endloop
  endfacet
  facet normal 0 0 1
    outer loop
      vertex 50 80 2.5
      vertex 46 -2 2.5
      vertex 50 -80 2.5
    endloop
  endfacet
  facet normal 0 0 1
    outer loop
      vertex 50 80 2.5
      vertex 46 2 2.5
      vertex 46 -2 2.5
    endloop
  endfacet
  facet normal 0 0 1
    outer loop
      vertex 50 80 2.5
      vertex 46 80 2.5
      vertex 46 2 2.5
    endloop
  endfacet
  facet normal 0 0 1
    outer loop
      vertex 46 -2 2.5
      vertex -46 2 2.5
      vertex -46 -2 2.5
    endloop
  endfacet
  facet normal 0 0 1
    outer loop
      vertex 46 2 2.5
      vertex -46 2 2.5
      vertex 46 -2 2.5
    endloop
  endfacet
  facet normal 1 0 0
    outer loop
      vertex -46 -2 -2.5
      vertex -46 -2 2.5
      vertex -46 -80 2.5
    endloop
  endfacet
  facet normal 1 0 0
    outer loop
      vertex -46 -80 -2.5
      vertex -46 -2 -2.5
      vertex -46 -80 2.5
    endloop
  endfacet
  facet normal 0 -1 0
    outer loop
      vertex 46 -2 -2.5
      vertex 46 -2 2.5
      vertex -46 -2 2.5
    endloop
  endfacet
  facet normal 0 -1 0
    outer loop
      vertex -46 -2 -2.5
      vertex 46 -2 -2.5
      vertex -46 -2 2.5
    endloop
  endfacet
  facet normal -1 0 0
    outer loop
      vertex 46 -2 2.5
      vertex 46 -2 -2.5
      vertex 46 -80 2.5
    endloop
  endfacet
  facet normal -1 0 0
    outer loop
      vertex 46 -80 2.5
      vertex 46 -2 -2.5
      vertex 46 -80 -2.5
    endloop
  endfacet
  facet normal 0 -1 0
    outer loop
      vertex 46 -80 2.5
      vertex 46 -80 -2.5
      vertex 50 -80 -2.5
    endloop
  endfacet
  facet normal 0 -1 0
    outer loop
      vertex 50 -80 2.5
      vertex 46 -80 2.5
      vertex 50 -80 -2.5
    endloop
  endfacet
  facet normal 1 0 0
    outer loop
      vertex 50 -80 2.5
      vertex 50 -80 -2.5
      vertex 50 80 -2.5
    endloop
  endfacet
  facet normal 1 0 0
    outer loop
      vertex 50 80 2.5
      vertex 50 -80 2.5
      vertex 50 80 -2.5
    endloop
  endfacet
  facet normal 0 1 0
    outer loop
      vertex 46 80 -2.5
      vertex 46 80 2.5
      vertex 50 80 -2.5
    endloop
  endfacet
  facet normal 0 1 0
    outer loop
      vertex 50 80 -2.5
      vertex 46 80 2.5
      vertex 50 80 2.5
    endloop
  endfacet
  facet normal -1 0 0
    outer loop
      vertex 46 80 2.5
      vertex 46 80 -2.5
      vertex 46 2 2.5
    endloop
  endfacet
  facet normal -1 0 0
    outer loop
      vertex 46 2 2.5
      vertex 46 80 -2.5
      vertex 46 2 -2.5
    endloop
  endfacet
  facet normal 0 1 0
    outer loop
      vertex 46 2 2.5
      vertex 46 2 -2.5
      vertex -46 2 2.5
    endloop
  endfacet
  facet normal 0 1 0
    outer loop
      vertex -46 2 2.5
      vertex 46 2 -2.5
      vertex -46 2 -2.5
    endloop
  endfacet
  facet normal 1 0 0
    outer loop
      vertex -46 80 -2.5
      vertex -46 80 2.5
      vertex -46 2 2.5
    endloop
  endfacet
  facet normal 1 0 0
    outer loop
      vertex -46 2 -2.5
      vertex -46 80 -2.5
      vertex -46 2 2.5
    endloop
  endfacet
endsolid OpenSCAD_Model
